<svg width="40" height="37" viewBox="0 0 40 37" fill="none" xmlns="http://www.w3.org/2000/svg">
<g filter="url(#filter0_d_1812_610)">
<ellipse cx="20" cy="15" rx="16" ry="15" fill="white"/>
</g>
<path d="M13.0752 19.75V18.6748L19.6697 8.83085H13.0035V7.51673H21.4378V8.59192L14.8433 18.4359H21.5095V19.75H13.0752Z" fill="#251181"/>
<path d="M25.6967 16.0401C25.5735 15.663 25.4111 15.3252 25.2095 15.0265C25.0117 14.7241 24.7746 14.4665 24.4983 14.2537C24.2258 14.0409 23.9159 13.8785 23.5688 13.7665C23.2216 13.6545 22.8408 13.5985 22.4264 13.5985C21.7469 13.5985 21.129 13.774 20.5728 14.1249C20.0165 14.4758 19.5741 14.9929 19.2456 15.6761C18.9171 16.3593 18.7528 17.1974 18.7528 18.1905C18.7528 19.1835 18.9189 20.0216 19.2512 20.7048C19.5835 21.388 20.0333 21.9051 20.6008 22.256C21.1682 22.607 21.8066 22.7824 22.516 22.7824C23.173 22.7824 23.7517 22.6424 24.2519 22.3624C24.7559 22.0787 25.1479 21.6792 25.4279 21.164C25.7117 20.6451 25.8535 20.0347 25.8535 19.3328L26.2791 19.4224H22.8296V18.1905H27.1975V19.4224C27.1975 20.367 26.9959 21.1883 26.5927 21.8864C26.1933 22.5846 25.6407 23.1259 24.9351 23.5104C24.2333 23.8912 23.4269 24.0816 22.516 24.0816C21.5005 24.0816 20.6082 23.8427 19.8392 23.3648C19.0739 22.8869 18.4765 22.2075 18.0472 21.3264C17.6216 20.4454 17.4088 19.4 17.4088 18.1905C17.4088 17.2833 17.5301 16.4675 17.7728 15.7433C18.0192 15.0153 18.3664 14.3956 18.8144 13.8841C19.2624 13.3726 19.7925 12.9806 20.4048 12.7081C21.017 12.4356 21.6909 12.2993 22.4264 12.2993C23.0312 12.2993 23.5949 12.3908 24.1175 12.5737C24.6439 12.7529 25.1125 13.0086 25.5231 13.3409C25.9375 13.6694 26.2829 14.0633 26.5591 14.5225C26.8354 14.978 27.0258 15.4838 27.1303 16.0401H25.6967Z" fill="#F7B05E"/>
<defs>
<filter id="filter0_d_1812_610" x="0.8" y="0" width="38.4" height="36.4" filterUnits="userSpaceOnUse" color-interpolation-filters="sRGB">
<feFlood flood-opacity="0" result="BackgroundImageFix"/>
<feColorMatrix in="SourceAlpha" type="matrix" values="0 0 0 0 0 0 0 0 0 0 0 0 0 0 0 0 0 0 127 0" result="hardAlpha"/>
<feOffset dy="3.2"/>
<feGaussianBlur stdDeviation="1.6"/>
<feComposite in2="hardAlpha" operator="out"/>
<feColorMatrix type="matrix" values="0 0 0 0 0 0 0 0 0 0 0 0 0 0 0 0 0 0 0.25 0"/>
<feBlend mode="normal" in2="BackgroundImageFix" result="effect1_dropShadow_1812_610"/>
<feBlend mode="normal" in="SourceGraphic" in2="effect1_dropShadow_1812_610" result="shape"/>
</filter>
</defs>
</svg>
