<svg width="48" height="48" viewBox="0 0 48 48" fill="none" xmlns="http://www.w3.org/2000/svg">
<g filter="url(#filter0_d_1812_569)">
<circle cx="24" cy="20" r="20" fill="white"/>
</g>
<path d="M15.344 25V23.656L23.5871 11.3511H15.2544V9.70841H25.7972V11.0524L17.5541 23.3573H25.8868V25H15.344Z" fill="#251181"/>
<path d="M31.121 21.043C30.967 20.5717 30.764 20.1494 30.512 19.776C30.2646 19.398 29.9683 19.076 29.623 18.81C29.2823 18.544 28.895 18.341 28.461 18.201C28.027 18.061 27.551 17.991 27.033 17.991C26.1837 17.991 25.4114 18.2104 24.716 18.649C24.0207 19.0877 23.4677 19.734 23.0571 20.588C22.6464 21.442 22.4411 22.4897 22.4411 23.731C22.4411 24.9723 22.6487 26.02 23.0641 26.874C23.4794 27.728 24.0417 28.3743 24.751 28.8129C25.4604 29.2516 26.2584 29.4709 27.145 29.4709C27.9663 29.4709 28.6897 29.2959 29.315 28.9459C29.945 28.5913 30.435 28.092 30.785 27.448C31.1396 26.7993 31.317 26.0363 31.317 25.159L31.849 25.271H27.537V23.731H32.997V25.271C32.997 26.4516 32.745 27.4783 32.241 28.3509C31.7416 29.2236 31.051 29.9003 30.169 30.3809C29.2917 30.8569 28.2837 31.0949 27.145 31.0949C25.8757 31.0949 24.7604 30.7963 23.799 30.1989C22.8424 29.6016 22.0957 28.7523 21.5591 27.651C21.0271 26.5496 20.7611 25.243 20.7611 23.731C20.7611 22.597 20.9127 21.5773 21.2161 20.672C21.5241 19.762 21.9581 18.9874 22.5181 18.348C23.0781 17.7087 23.7407 17.2187 24.506 16.8781C25.2714 16.5374 26.1137 16.3671 27.033 16.3671C27.789 16.3671 28.4937 16.4814 29.147 16.7101C29.805 16.9341 30.3906 17.2537 30.904 17.669C31.422 18.0797 31.8536 18.572 32.199 19.146C32.5443 19.7154 32.7823 20.3477 32.913 21.043H31.121Z" fill="#F7B05E"/>
<defs>
<filter id="filter0_d_1812_569" x="0" y="0" width="48" height="48" filterUnits="userSpaceOnUse" color-interpolation-filters="sRGB">
<feFlood flood-opacity="0" result="BackgroundImageFix"/>
<feColorMatrix in="SourceAlpha" type="matrix" values="0 0 0 0 0 0 0 0 0 0 0 0 0 0 0 0 0 0 127 0" result="hardAlpha"/>
<feOffset dy="4"/>
<feGaussianBlur stdDeviation="2"/>
<feComposite in2="hardAlpha" operator="out"/>
<feColorMatrix type="matrix" values="0 0 0 0 0 0 0 0 0 0 0 0 0 0 0 0 0 0 0.25 0"/>
<feBlend mode="normal" in2="BackgroundImageFix" result="effect1_dropShadow_1812_569"/>
<feBlend mode="normal" in="SourceGraphic" in2="effect1_dropShadow_1812_569" result="shape"/>
</filter>
</defs>
</svg>
