<svg width="100" height="100" viewBox="0 0 100 100" fill="none" xmlns="http://www.w3.org/2000/svg">
<rect width="100" height="100" fill="white"/>
<path d="M69.1648 79.4925L68.839 79.0038L68.7742 79.047L68.7228 79.1057L69.1648 79.4925ZM56.3851 73.6288L56.004 74.0757L56.0087 74.0797L56.3851 73.6288ZM42.7785 60.6236L43.2111 60.2263L41.8291 58.7219L42.2011 60.7306L42.7785 60.6236ZM44.2069 67.4645L43.633 67.5901L43.6358 67.6016L44.2069 67.4645ZM44.9586 71.0729L44.38 71.1735L44.3821 71.1856L44.3847 71.1977L44.9586 71.0729ZM43.7558 76.4103L43.5945 75.8456L43.3128 75.9261L43.2077 76.1995L43.7558 76.4103ZM41.7261 71.5239L41.1589 71.6766L41.1608 71.6834L41.7261 71.5239ZM38.7191 57.9925L38.1405 58.0936L38.1417 58.1001L38.7191 57.9925ZM37.817 40.7775L37.4589 40.312L37.3024 40.4325L37.2504 40.623L37.817 40.7775ZM41.3502 42.3562L40.7773 42.4856L40.7783 42.4897L41.3502 42.3562ZM42.3275 49.4978L42.9126 49.4469L42.9123 49.4438L42.3275 49.4978ZM42.4778 51.2268L41.8927 51.2777L41.9418 51.8424L42.5079 51.8133L42.4778 51.2268ZM50.4463 49.9488L50.3198 49.3753L50.318 49.3757L50.4463 49.9488ZM59.5425 46.8667L59.8011 47.394L59.8051 47.392L59.5425 46.8667ZM61.4218 38.7478L61.0307 39.1859L61.0389 39.1933L61.0474 39.2003L61.4218 38.7478ZM54.8816 35.5905L54.7165 36.1541L54.719 36.1548L54.8816 35.5905ZM35.0356 35.7408L35.3236 36.2529L35.3354 36.2458L35.0356 35.7408ZM32.63 41.6045V42.1918H33.2173V41.6045H32.63ZM30.6002 40.1761L30.1037 40.4898L30.6002 40.1761ZM34.1335 31.4559L33.9562 30.896L33.9534 30.8969L34.1335 31.4559ZM56.31 31.4559L56.4771 30.8929L56.31 31.4559ZM64.4288 35.9664L64.0284 36.3961L64.0338 36.4009L64.4288 35.9664ZM64.955 48.5957L64.6088 48.1212L64.6027 48.1259L64.955 48.5957ZM58.5652 51.753L58.7371 52.3146L58.5652 51.753ZM49.5443 54.0834L49.6706 54.657L49.6734 54.6564L49.5443 54.0834ZM43.7558 55.5118L43.5701 54.9546L42.8021 55.2106L43.2838 55.8612L43.7558 55.5118ZM54.8816 67.69L54.5101 68.1449L54.5132 68.1474L54.8816 67.69ZM66.1578 75.5834L65.8547 76.0864L65.8584 76.0886L66.1578 75.5834ZM69.0145 77.3876L69.3599 76.9126H69.3599L69.0145 77.3876ZM68.7228 79.1057C68.508 79.3512 68.1845 79.5066 67.6613 79.5066V80.6812C68.4412 80.6812 69.12 80.4355 69.6068 79.8792L68.7228 79.1057ZM67.6613 79.5066C66.6403 79.5066 65.2216 79.0309 63.3678 77.9681C61.5297 76.9143 59.3289 75.3216 56.7616 73.178L56.0087 74.0797C58.6034 76.246 60.8629 77.8859 62.7836 78.9871C64.6885 80.0793 66.3269 80.6812 67.6613 80.6812V79.5066ZM56.7663 73.182C51.6699 68.8351 47.152 64.5165 43.2111 60.2263L42.346 61.0209C46.3235 65.3508 50.8766 69.7023 56.004 74.0757L56.7663 73.182ZM42.2011 60.7306C42.4535 62.094 42.9315 64.3825 43.6331 67.59L44.7806 67.339C44.079 64.1317 43.6047 61.8596 43.356 60.5167L42.2011 60.7306ZM43.6358 67.6016C43.9339 68.8436 44.1818 70.0342 44.38 71.1735L45.5372 70.9723C45.3344 69.8062 45.0812 68.5912 44.7779 67.3275L43.6358 67.6016ZM44.3847 71.1977C44.6323 72.3366 44.7472 73.1905 44.7472 73.7792H45.9218C45.9218 73.0649 45.7861 72.1145 45.5325 70.9481L44.3847 71.1977ZM44.7472 73.7792C44.7472 74.4419 44.6262 74.9082 44.4362 75.2248C44.2554 75.5261 43.9884 75.733 43.5945 75.8456L43.9172 76.975C44.5756 76.7869 45.0979 76.4049 45.4434 75.8292C45.7797 75.2688 45.9218 74.5698 45.9218 73.7792H44.7472ZM43.2077 76.1995C43.1863 76.2551 43.2453 76.0358 43.5113 75.9751C43.6513 75.9432 43.7665 75.9782 43.831 76.0102C43.8618 76.0255 43.883 76.0408 43.8949 76.0501C43.9069 76.0597 43.9132 76.0663 43.9141 76.0672C43.9148 76.068 43.9047 76.0571 43.8844 76.0268C43.8649 75.9976 43.8405 75.9571 43.8113 75.9028C43.7525 75.7937 43.683 75.6451 43.6028 75.4521C43.2791 74.6728 42.8423 73.3179 42.2913 71.3645L41.1608 71.6834C41.7125 73.6391 42.1652 75.0531 42.5181 75.9026C42.684 76.302 42.8616 76.6644 43.0619 76.8756C43.1445 76.9627 43.401 77.205 43.7725 77.1203C44.1277 77.0393 44.2627 76.7284 44.304 76.6211L43.2077 76.1995ZM42.2932 71.3713C41.2457 67.4806 40.2466 62.9857 39.2965 57.885L38.1417 58.1001C39.096 63.2231 40.1016 67.7492 41.159 71.6766L42.2932 71.3713ZM39.2976 57.8914C38.3987 52.7477 37.9533 48.4741 37.9533 45.0625H36.7787C36.7787 48.5669 37.2353 52.9134 38.1406 58.0936L39.2976 57.8914ZM37.9533 45.0625C37.9533 43.3359 38.1019 41.965 38.3836 40.9321L37.2504 40.623C36.9307 41.7952 36.7787 43.2809 36.7787 45.0625H37.9533ZM38.1751 41.243C38.798 40.7639 39.219 40.6131 39.4709 40.6131V39.4385C38.8206 39.4385 38.1391 39.7888 37.4589 40.312L38.1751 41.243ZM39.4709 40.6131C39.7239 40.6131 39.9449 40.7102 40.1601 40.9771C40.3932 41.2661 40.6112 41.7498 40.7773 42.4856L41.9231 42.2268C41.7384 41.409 41.4678 40.7275 41.0744 40.2397C40.6632 39.7298 40.1199 39.4385 39.4709 39.4385V40.6131ZM40.7783 42.4897C41.1194 43.9515 41.4423 46.2982 41.7427 49.5518L42.9123 49.4438C42.6112 46.1822 42.2827 43.7679 41.9222 42.2228L40.7783 42.4897ZM41.7424 49.5487L41.8927 51.2777L43.0629 51.1759L42.9126 49.4469L41.7424 49.5487ZM42.5079 51.8133C44.5113 51.7106 47.2049 51.2764 50.5747 50.522L50.318 49.3757C46.9722 50.1248 44.3535 50.5425 42.4478 50.6403L42.5079 51.8133ZM50.5729 50.5224C54.0186 49.7623 57.0962 48.7209 59.8011 47.394L59.2838 46.3394C56.6764 47.6185 53.6899 48.6319 50.3198 49.3753L50.5729 50.5224ZM59.8051 47.392C62.5751 46.007 64.1892 44.2512 64.1892 42.0555H63.0146C63.0146 43.5684 61.9224 45.0201 59.2798 46.3414L59.8051 47.392ZM64.1892 42.0555C64.1892 40.7736 63.275 39.5191 61.7963 38.2954L61.0474 39.2003C62.4754 40.3821 63.0146 41.3327 63.0146 42.0555H64.1892ZM61.813 38.3097C60.3151 36.9723 58.0383 35.8888 55.0443 35.0261L54.719 36.1548C57.6387 36.9961 59.7221 38.0175 61.0307 39.1859L61.813 38.3097ZM55.0468 35.0269C52.0696 34.1543 48.4267 33.7252 44.1317 33.7252V34.8998C48.3564 34.8998 51.8802 35.3228 54.7165 36.1541L55.0468 35.0269ZM44.1317 33.7252H41.7261V34.8998H44.1317V33.7252ZM41.7261 33.7252C38.8156 33.7252 36.4661 34.2084 34.7357 35.2358L35.3354 36.2458C36.8124 35.3688 38.9233 34.8998 41.7261 34.8998V33.7252ZM34.7476 35.229C32.8619 36.2897 32.0427 38.5269 32.0427 41.6045H33.2173C33.2173 38.668 34.0017 36.9962 35.3235 36.2527L34.7476 35.229ZM32.63 41.0172C32.1677 41.0172 31.6479 40.7352 31.0968 39.8625L30.1037 40.4898C30.7553 41.5215 31.5887 42.1918 32.63 42.1918V41.0172ZM31.0968 39.8625C30.5317 38.9678 30.2855 38.1996 30.2855 37.545H29.1109C29.1109 38.4942 29.466 39.48 30.1037 40.4898L31.0968 39.8625ZM30.2855 37.545C30.2855 36.0857 30.6315 34.9308 31.2817 34.0381C31.9319 33.1455 32.9249 32.4621 34.3135 32.0149L33.9534 30.8969C32.3851 31.4019 31.1605 32.2095 30.3323 33.3465C29.504 34.4836 29.1109 35.8971 29.1109 37.545H30.2855ZM34.3108 32.0158C37.2323 31.0906 41.4715 30.6149 47.0635 30.6149V29.4403C41.4294 29.4403 37.0486 29.9167 33.9562 30.896L34.3108 32.0158ZM47.0635 30.6149C49.9569 30.6149 52.9826 31.0807 56.1428 32.0189L56.4771 30.8929C53.2224 29.9266 50.0838 29.4403 47.0635 29.4403V30.6149ZM56.1428 32.0189C59.273 32.9482 61.8967 34.4097 64.0284 36.396L64.8292 35.5367C62.5507 33.4135 59.7619 31.868 56.4771 30.8929L56.1428 32.0189ZM64.0338 36.4009C66.1152 38.2931 67.1492 40.6406 67.1492 43.4838H68.3238C68.3238 40.3131 67.1527 37.6489 64.8239 35.5318L64.0338 36.4009ZM67.1492 43.4838C67.1492 45.327 66.3321 46.8637 64.6089 48.1213L65.3012 49.0701C67.2866 47.6214 68.3238 45.7502 68.3238 43.4838H67.1492ZM64.6027 48.1259C62.8599 49.433 60.7929 50.4569 58.3933 51.1915L58.7371 52.3146C61.2489 51.5457 63.4419 50.4647 65.3074 49.0655L64.6027 48.1259ZM58.3933 51.1915C55.9562 51.9375 52.9644 52.7107 49.4151 53.5105L49.6734 54.6564C53.2406 53.8525 56.2628 53.072 58.7371 52.3146L58.3933 51.1915ZM49.4179 53.5099C46.4674 54.16 44.5067 54.6424 43.5701 54.9546L43.9415 56.0689C44.8091 55.7797 46.7074 55.3099 49.6706 54.657L49.4179 53.5099ZM43.2838 55.8612C47.1609 61.0978 50.9022 65.1976 54.5101 68.1449L55.2532 67.2352C51.7446 64.369 48.0687 60.3499 44.2278 55.1623L43.2838 55.8612ZM54.5132 68.1474C58.142 71.0706 61.9225 73.717 65.8547 76.0864L66.4609 75.0803C62.575 72.7388 58.8381 70.123 55.2501 67.2327L54.5132 68.1474ZM65.8584 76.0886C67.2108 76.89 68.1421 77.4793 68.669 77.8625L69.3599 76.9126C68.7843 76.494 67.8112 75.8805 66.4572 75.0781L65.8584 76.0886ZM68.669 77.8625C69.201 78.2494 69.2541 78.4713 69.2541 78.5152H70.4287C70.4287 77.8575 69.9305 77.3276 69.3599 76.9126L68.669 77.8625ZM69.2541 78.5152C69.2541 78.5793 69.2199 78.7499 68.839 79.0038L69.4906 79.9811C70.0119 79.6336 70.4287 79.1527 70.4287 78.5152H69.2541Z" fill="#151515"/>
<path d="M53.895 76.5559C53.5442 76.9569 53.043 77.1573 52.3915 77.1573C50.036 77.1573 46.2773 75.0023 41.1153 70.6923C36.0034 66.3322 31.4679 61.9971 27.5087 57.6871C27.7593 59.0403 28.2354 61.3205 28.937 64.528C29.2377 65.7809 29.4883 66.9837 29.6888 68.1364C29.9393 69.2891 30.0646 70.1912 30.0646 70.8427C30.0646 72.296 29.5384 73.1731 28.486 73.4738C28.2354 74.1253 27.5588 72.4965 26.4563 68.5874C25.4038 64.6783 24.4015 60.1679 23.4493 55.056C22.5472 49.894 22.0961 45.584 22.0961 42.126C22.0961 40.3719 22.2465 38.9436 22.5472 37.841C23.1987 37.3398 23.75 37.0893 24.201 37.0893C25.1031 37.0893 25.7296 37.8661 26.0804 39.4197C26.4312 40.9232 26.757 43.3037 27.0577 46.5613L27.208 48.2903C29.1625 48.1901 31.8187 47.7641 35.1765 47.0123C38.5844 46.2606 41.6165 45.2332 44.2726 43.9302C46.9789 42.577 48.3321 40.9733 48.3321 39.119C48.3321 38.1167 47.6054 37.0141 46.152 35.8113C44.7487 34.5584 42.5687 33.5059 39.6118 32.654C36.7051 31.802 33.1217 31.376 28.8618 31.376H26.4563C23.5996 31.376 21.3694 31.8521 19.7657 32.8043C18.162 33.7064 17.3601 35.6609 17.3601 38.6679C16.6084 38.6679 15.9318 38.1918 15.3304 37.2396C14.729 36.2874 14.4283 35.4104 14.4283 34.6085C14.4283 31.5013 15.9068 29.4716 18.8636 28.5194C21.8706 27.5672 26.1806 27.091 31.7937 27.091C34.7505 27.091 37.8327 27.5672 41.0401 28.5194C44.2476 29.4716 46.9539 30.9751 49.159 33.0298C51.3641 35.0345 52.4667 37.5403 52.4667 40.5473C52.4667 42.6021 51.5395 44.306 49.6852 45.6592C47.881 47.0123 45.7511 48.0648 43.2954 48.8165C40.8397 49.5683 37.8327 50.3451 34.2744 51.1469C31.3175 51.7984 29.3881 52.2745 28.486 52.5752C32.3449 57.7873 36.0535 61.8468 39.6118 64.7535C43.2202 67.6603 46.9789 70.2914 50.888 72.6469C52.2411 73.4487 53.1934 74.0501 53.7446 74.451C54.2959 74.852 54.5716 75.2279 54.5716 75.5787C54.5716 75.9295 54.346 76.2552 53.895 76.5559Z" fill="#151515"/>
</svg>
