<svg width="100" height="100" viewBox="0 0 100 100" fill="none" xmlns="http://www.w3.org/2000/svg">
<rect width="100" height="100" fill="white"/>
<rect x="27" y="15" width="10" height="70" rx="5" fill="#151515"/>
<rect x="63" y="16" width="10" height="70" rx="5" fill="#151515"/>
<path d="M35.9393 48.9393C35.3536 49.5251 35.3536 50.4749 35.9393 51.0607L45.4853 60.6066C46.0711 61.1924 47.0208 61.1924 47.6066 60.6066C48.1924 60.0208 48.1924 59.0711 47.6066 58.4853L39.1213 50L47.6066 41.5147C48.1924 40.9289 48.1924 39.9792 47.6066 39.3934C47.0208 38.8076 46.0711 38.8076 45.4853 39.3934L35.9393 48.9393ZM69.0284 51.0607C69.6142 50.4749 69.6142 49.5251 69.0284 48.9393L59.4825 39.3934C58.8967 38.8076 57.947 38.8076 57.3612 39.3934C56.7754 39.9792 56.7754 40.9289 57.3612 41.5147L65.8465 50L57.3612 58.4853C56.7754 59.0711 56.7754 60.0208 57.3612 60.6066C57.947 61.1924 58.8967 61.1924 59.4825 60.6066L69.0284 51.0607ZM37 51.5H67.9678V48.5H37V51.5Z" fill="#151515"/>
</svg>
