<svg width="100" height="100" viewBox="0 0 100 100" fill="none" xmlns="http://www.w3.org/2000/svg">
<g clip-path="url(#clip0_357_16)">
<rect width="100" height="100" fill="white"/>
<path d="M19.6621 63.4609C19.6621 61.2148 19.8086 58.334 20.1016 54.8184C20.3945 51.2051 20.8828 47.3477 21.5664 43.2461C22.3477 39.0469 23.373 34.8965 24.6426 30.7949C25.9121 26.5957 27.4258 22.7871 29.1836 19.3691C31.0391 15.9512 33.1875 13.168 35.6289 11.0195C38.0703 8.87109 40.9023 7.79688 44.125 7.79688C48.0312 7.79688 51.3516 8.91992 54.0859 11.166C56.918 13.4121 59.2129 16.1953 60.9707 19.5156C62.8262 22.7383 64.2422 26.2051 65.2188 29.916C66.1953 33.627 66.8301 36.9473 67.123 39.877C66.9277 41.0488 66.3906 42.0254 65.5117 42.8066C64.6328 43.4902 63.7051 43.832 62.7285 43.832H61.9961C61.8984 43.6367 61.7031 43.3926 61.4102 43.0996C61.1172 42.8066 60.9219 42.6113 60.8242 42.5137C60.8242 42.2207 60.7754 41.8789 60.6777 41.4883C60.6777 41 60.6777 40.4629 60.6777 39.877C60.6777 39.291 60.6289 38.8027 60.5312 38.4121C60.5312 37.9238 60.5312 37.582 60.5312 37.3867C60.5312 35.5312 60.7754 33.8711 61.2637 32.4062C61.752 30.9414 61.9961 29.4277 61.9961 27.8652V27.1328C60.8242 25.7656 59.6523 24.3496 58.4805 22.8848C57.3086 21.3223 56.0391 19.9062 54.6719 18.6367C53.4023 17.3672 51.9863 16.3418 50.4238 15.5605C48.8613 14.6816 47.1035 14.2422 45.1504 14.2422C42.709 14.2422 40.4629 15.1699 38.4121 17.0254C36.459 18.7832 34.75 21.0781 33.2852 23.9102C31.8203 26.6445 30.5508 29.7695 29.4766 33.2852C28.4023 36.7031 27.5234 40.1211 26.8398 43.5391C26.1562 46.8594 25.668 49.9844 25.375 52.9141C25.082 55.7461 24.9355 57.9922 24.9355 59.6523C24.9355 63.4609 25.375 66.9766 26.2539 70.1992C27.1328 73.4219 28.5488 76.2051 30.502 78.5488C32.4551 80.8926 34.8477 82.748 37.6797 84.1152C40.6094 85.3848 44.0762 86.0195 48.0801 86.0195C50.1309 86.0195 52.2793 85.8242 54.5254 85.4336C56.7715 85.043 58.9688 84.5059 61.1172 83.8223C63.3633 83.1387 65.5117 82.3086 67.5625 81.332C69.7109 80.3555 71.6641 79.2812 73.4219 78.1094C73.6172 78.1094 73.959 77.9141 74.4473 77.5234C74.9355 77.1328 75.4238 76.7422 75.9121 76.3516C76.498 75.8633 77.0352 75.4727 77.5234 75.1797C78.1094 74.7891 78.4512 74.4961 78.5488 74.3008C78.6465 74.3008 78.8418 74.3008 79.1348 74.3008C79.5254 74.2031 79.7695 74.1543 79.8672 74.1543C80.0625 74.1543 80.3066 74.2031 80.5996 74.3008C80.8926 74.3008 81.0879 74.3008 81.1855 74.3008C80.6973 76.3516 79.7695 78.207 78.4023 79.8672C77.0352 81.4297 75.375 82.8457 73.4219 84.1152C71.5664 85.3848 69.4668 86.459 67.123 87.3379C64.7793 88.2168 62.4355 88.9492 60.0918 89.5352C57.748 90.1211 55.502 90.5605 53.3535 90.8535C51.3027 91.0488 49.4473 91.1465 47.7871 91.1465C43.5879 91.1465 39.7305 90.5117 36.2148 89.2422C32.7969 87.9727 29.8184 86.166 27.2793 83.8223C24.8379 81.4785 22.9336 78.5977 21.5664 75.1797C20.2969 71.7617 19.6621 67.8555 19.6621 63.4609Z" fill="#151515"/>
</g>
<defs>
<clipPath id="clip0_357_16">
<rect width="100" height="100" fill="white"/>
</clipPath>
</defs>
</svg>
