<svg width="100" height="100" viewBox="0 0 100 100" fill="none" xmlns="http://www.w3.org/2000/svg">
<g clip-path="url(#clip0_2264_3660)">
<rect width="100" height="100" fill="white"/>
<path d="M13.632 95.408C10.752 95.408 8.288 94.896 6.24 93.872C3.488 92.464 2.112 90.48 2.112 87.92C2.112 85.168 3.616 83.024 6.624 81.488C8.992 80.272 11.712 79.664 14.784 79.664C15.36 79.664 15.648 79.76 15.648 79.952C15.648 80.208 15.36 80.336 14.784 80.336C12.16 80.336 9.92 80.848 8.064 81.872C5.632 83.152 4.416 84.976 4.416 87.344C4.416 89.392 5.344 90.992 7.2 92.144C8.864 93.104 10.72 93.584 12.768 93.584C18.464 93.584 23.712 90.96 28.512 85.712C30.112 83.984 31.744 81.84 33.408 79.28C35.072 76.72 36.768 73.744 38.496 70.352C39.2 68.88 40.192 66.8 41.472 64.112C42.816 61.36 44.384 57.936 46.176 53.84C47.712 50.32 49.152 47.216 50.496 44.528C51.84 41.84 53.056 39.504 54.144 37.52L47.424 36.08C46.784 38.704 46.016 41.584 45.12 44.72C44.224 47.856 43.136 51.216 41.856 54.8C42.56 54.352 43.168 54.128 43.68 54.128C44.128 54.128 44.352 54.416 44.352 54.992C44.352 56.656 42.496 59.152 38.784 62.48C37.696 65.04 36.448 67.6 35.04 70.16C33.696 72.656 32.192 75.12 30.528 77.552C25.856 84.528 21.824 88.016 18.432 88.016C17.216 88.016 16.608 87.696 16.608 87.056C16.608 86.736 16.768 86.576 17.088 86.576C17.28 86.576 17.536 86.608 17.856 86.672C18.176 86.736 18.4 86.768 18.528 86.768C21.856 86.768 25.76 83.376 30.24 76.592C33.312 71.984 35.904 67.088 38.016 61.904C37.248 59.28 36.864 57.264 36.864 55.856C36.864 53.744 37.248 52.688 38.016 52.688C38.912 52.688 39.712 53.616 40.416 55.472C41.312 53.616 42.272 51.056 43.296 47.792C44.32 44.528 45.344 40.528 46.368 35.792C36.384 33.68 28.736 32.624 23.424 32.624C12.608 32.624 7.2 36.368 7.2 43.856C7.2 48.784 10.048 53.232 15.744 57.2C16 57.392 16.128 57.552 16.128 57.68C16.128 57.872 16 57.968 15.744 57.968C15.68 57.968 15.52 57.904 15.264 57.776C7.712 53.488 3.936 48.336 3.936 42.32C3.936 38.032 5.984 34.896 10.08 32.912C13.216 31.44 17.152 30.704 21.888 30.704C27.52 30.704 35.808 31.76 46.752 33.872C46.944 32.592 47.168 31.248 47.424 29.84C47.744 28.432 48.064 26.992 48.384 25.52C48.576 25.584 48.672 26.256 48.672 27.536C48.672 29.2 48.384 31.376 47.808 34.064L55.296 35.504C61.312 25.456 67.904 20.432 75.072 20.432C79.424 20.432 81.6 22.256 81.6 25.904C81.6 26.608 81.472 26.96 81.216 26.96C80.96 26.96 80.832 26.672 80.832 26.096C80.832 23.472 79.072 22.16 75.552 22.16C70.688 22.16 65.568 26.928 60.192 36.464C63.712 37.104 66.752 37.584 69.312 37.904C71.936 38.224 74.112 38.384 75.84 38.384C82.368 38.384 85.632 36.752 85.632 33.488C85.632 32.976 85.536 32.56 85.344 32.24C85.152 31.856 85.056 31.6 85.056 31.472C85.056 31.28 85.12 31.184 85.248 31.184C85.696 31.184 86.112 31.76 86.496 32.912C86.752 33.68 86.88 34.416 86.88 35.12C86.88 39.216 83.584 41.264 76.992 41.264C75.136 41.264 72.704 41.04 69.696 40.592C66.688 40.144 63.104 39.472 58.944 38.576C58.688 39.024 57.728 40.976 56.064 44.432C54.4 47.888 51.968 52.848 48.768 59.312C50.624 58.224 54.56 57.68 60.576 57.68C66.976 57.68 72.16 58.32 76.128 59.6C76.448 59.728 76.608 59.856 76.608 59.984C76.608 60.176 76.48 60.272 76.224 60.272C75.52 60.272 74.464 60.208 73.056 60.08C71.712 59.888 70.656 59.792 69.888 59.792C67.648 59.792 65.44 59.888 63.264 60.08C61.152 60.272 59.104 60.528 57.12 60.848C50.72 62.064 47.52 64.016 47.52 66.704C47.52 66.96 47.584 67.312 47.712 67.76C47.904 68.144 48 68.432 48 68.624C47.616 68.624 47.168 68.208 46.656 67.376C46.208 66.544 45.952 65.808 45.888 65.168C43.648 69.52 41.472 73.328 39.36 76.592C37.312 79.856 35.296 82.608 33.312 84.848C27.04 91.888 20.48 95.408 13.632 95.408Z" fill="#151515"/>
</g>
<defs>
<clipPath id="clip0_2264_3660">
<rect width="100" height="100" fill="white"/>
</clipPath>
</defs>
</svg>
