<svg width="101" height="100" viewBox="0 0 101 100" fill="none" xmlns="http://www.w3.org/2000/svg">
<rect width="100.07" height="99.5179" fill="white"/>
<path d="M50 14.0001C80.5 25.126 86 20.791 86 23.0001C86 25.2092 86 23.0001 50 23C14 22.9999 14 25.2092 14 23.0001C14 20.791 14 27.0001 50 14.0001Z" fill="#151515"/>
<path d="M50.0704 85.518C19.5704 74.392 14.0704 78.7271 14.0704 76.518C14.0704 74.3088 14.0704 76.518 50.0704 76.5181C86.0704 76.5181 86.0704 74.3088 86.0704 76.518C86.0704 78.7271 86.0704 72.518 50.0704 85.518Z" fill="#151515"/>
<ellipse cx="49.5" cy="47.5" rx="3.5" ry="32.5" fill="#151515"/>
</svg>
