<svg width="100" height="100" viewBox="0 0 100 100" fill="none" xmlns="http://www.w3.org/2000/svg">
<g clip-path="url(#clip0_357_39)">
<rect width="100" height="100" fill="white"/>
<path d="M12.7441 96.1914C12.7441 95.9961 12.7441 95.752 12.7441 95.459C12.8418 95.166 12.8906 95.0195 12.8906 95.0195C14.3555 92.1875 15.8691 89.4531 17.4316 86.8164C19.0918 84.1797 20.752 81.5918 22.4121 79.0527C24.1699 76.416 25.8301 73.7793 27.3926 71.1426C29.0527 68.4082 30.5664 65.6738 31.9336 62.9395C31.543 62.0605 30.5664 61.2793 29.0039 60.5957C27.4414 59.9121 25.5371 59.1797 23.291 58.3984C21.1426 57.6172 18.8477 56.7383 16.4062 55.7617C13.9648 54.6875 11.7188 53.4668 9.66797 52.0996C7.61719 50.6348 5.9082 48.9746 4.54102 47.1191C3.17383 45.166 2.49023 42.9199 2.49023 40.3809C2.49023 37.7441 3.36914 35.4492 5.12695 33.4961C6.88477 31.4453 9.0332 29.7852 11.5723 28.5156C14.1113 27.1484 16.7969 26.123 19.6289 25.4395C22.4609 24.7559 24.9023 24.4141 26.9531 24.4141C31.25 24.4141 35.0098 25.1465 38.2324 26.6113C41.5527 28.0762 44.9707 29.9805 48.4863 32.3242C49.6582 31.4453 50.6348 30.4688 51.416 29.3945C52.2949 28.3203 53.0762 27.1484 53.7598 25.8789C54.0527 25.1953 54.6875 23.9746 55.6641 22.2168C56.7383 20.3613 57.7637 18.4082 58.7402 16.3574C59.8145 14.3066 60.8398 12.4023 61.8164 10.6445C62.8906 8.78906 63.5742 7.4707 63.8672 6.68945C64.6484 6.10352 65.2832 5.76172 65.7715 5.66406C66.2598 5.46875 66.9434 5.37109 67.8223 5.37109C67.9199 5.37109 68.1152 5.37109 68.4082 5.37109C68.7988 5.37109 69.043 5.37109 69.1406 5.37109C70.1172 9.47266 70.8496 13.6719 71.3379 17.9688C71.8262 22.2656 72.168 26.5625 72.3633 30.8594C72.6562 35.1562 72.9004 39.4531 73.0957 43.75C73.291 48.0469 73.6328 52.3438 74.1211 56.6406C74.4141 56.6406 74.9512 56.6895 75.7324 56.7871C76.5137 56.7871 77.0996 56.7871 77.4902 56.7871C78.8574 56.7871 80.2246 56.6406 81.5918 56.3477C82.959 56.0547 84.3262 55.7617 85.6934 55.4688C87.0605 55.0781 88.4277 54.7363 89.7949 54.4434C91.2598 54.1504 92.7246 54.0039 94.1895 54.0039H94.6289C94.7266 54.1016 94.9219 54.2969 95.2148 54.5898C95.5078 54.8828 95.752 55.0781 95.9473 55.1758C95.3613 56.25 94.3848 57.1289 93.0176 57.8125C91.748 58.3984 90.2832 58.8867 88.623 59.2773C87.0605 59.668 85.4004 60.0586 83.6426 60.4492C81.8848 60.7422 80.3223 61.1328 78.9551 61.6211C77.5879 62.0117 76.416 62.5 75.4395 63.0859C74.5605 63.6719 74.1211 64.502 74.1211 65.5762C74.1211 67.5293 74.2188 69.4824 74.4141 71.4355C74.707 73.3887 75 75.3906 75.293 77.4414C75.6836 79.3945 76.0254 81.3965 76.3184 83.4473C76.6113 85.4004 76.7578 87.4023 76.7578 89.4531C76.7578 89.9414 76.709 90.625 76.6113 91.5039C76.6113 92.3828 76.5137 93.2617 76.3184 94.1406C76.2207 95.0195 75.9277 95.8008 75.4395 96.4844C75.0488 97.168 74.4141 97.5098 73.5352 97.5098C72.5586 97.5098 71.6797 96.7773 70.8984 95.3125C70.1172 93.8477 69.4824 91.9922 68.9941 89.7461C68.5059 87.5 68.0664 85.0586 67.6758 82.4219C67.3828 79.6875 67.0898 77.0996 66.7969 74.6582C66.6016 72.1191 66.3574 69.9219 66.0645 68.0664C65.7715 66.1133 65.4785 64.8438 65.1855 64.2578C64.4043 64.1602 62.9395 64.0625 60.791 63.9648C58.7402 63.8672 56.543 63.7695 54.1992 63.6719C51.9531 63.4766 49.8047 63.3301 47.7539 63.2324C45.7031 63.0371 44.2871 62.9395 43.5059 62.9395H42.041C40.0879 62.9395 38.2324 63.8672 36.4746 65.7227C34.8145 67.4805 33.252 69.7754 31.7871 72.6074C30.4199 75.3418 29.0527 78.3203 27.6855 81.543C26.3184 84.668 25 87.6465 23.7305 90.4785C22.4609 93.2129 21.1426 95.5078 19.7754 97.3633C18.4082 99.2188 16.9434 100.146 15.3809 100.146C14.3066 100.146 13.5742 99.7559 13.1836 98.9746C12.8906 98.0957 12.7441 97.168 12.7441 96.1914ZM42.1875 56.6406C42.9688 57.1289 43.8965 57.5195 44.9707 57.8125C46.1426 58.0078 47.3145 58.1055 48.4863 58.1055C49.6582 58.1055 50.7324 58.1055 51.709 58.1055C52.7832 58.1055 53.7109 58.1055 54.4922 58.1055C54.8828 58.1055 55.3711 58.1055 55.957 58.1055C56.543 58.0078 57.1289 57.959 57.7148 57.959C58.3008 57.959 58.7891 57.959 59.1797 57.959C59.668 57.8613 59.9609 57.8125 60.0586 57.8125L61.377 56.6406C61.5723 56.4453 61.2305 55.5664 60.3516 54.0039C59.4727 52.4414 58.3496 50.8301 56.9824 49.1699C55.7129 47.4121 54.4434 45.8496 53.1738 44.4824C51.9043 43.0176 51.0254 42.2852 50.5371 42.2852C50.4395 42.2852 50.3418 42.334 50.2441 42.4316C50.1465 42.5293 50 42.5781 49.8047 42.5781C48.3398 44.7266 46.9727 46.9727 45.7031 49.3164C44.4336 51.6602 43.2617 54.1016 42.1875 56.6406ZM8.93555 40.2344C8.93555 42.7734 9.81445 45.0195 11.5723 46.9727C13.3301 48.8281 15.4785 50.3906 18.0176 51.6602C20.5566 52.9297 23.2422 53.8574 26.0742 54.4434C28.9062 55.0293 31.3965 55.3223 33.5449 55.3223C34.9121 55.3223 36.3281 54.6387 37.793 53.2715C39.2578 51.8066 40.5762 50.1465 41.748 48.291C43.0176 46.4355 44.043 44.5312 44.8242 42.5781C45.7031 40.625 46.1426 39.1113 46.1426 38.0371C46.1426 36.8652 45.3613 35.791 43.7988 34.8145C42.2363 33.7402 40.3809 32.8125 38.2324 32.0312C36.1816 31.25 34.1309 30.6641 32.0801 30.2734C30.0293 29.7852 28.5156 29.541 27.5391 29.541C26.0742 29.541 24.2676 29.7852 22.1191 30.2734C20.0684 30.6641 18.0176 31.2988 15.9668 32.1777C14.0137 33.0566 12.3535 34.1797 10.9863 35.5469C9.61914 36.8164 8.93555 38.3789 8.93555 40.2344ZM54.9316 35.4004C54.9316 36.6699 55.4199 38.2324 56.3965 40.0879C57.373 41.9434 58.5449 43.75 59.9121 45.5078C61.2793 47.2656 62.6953 48.7793 64.1602 50.0488C65.7227 51.3184 67.0898 51.9531 68.2617 51.9531C68.2617 51.4648 68.2129 50.7324 68.1152 49.7559C68.1152 48.7793 68.0664 47.7051 67.9688 46.5332C67.9688 45.3613 67.9199 44.2871 67.8223 43.3105C67.8223 42.334 67.8223 41.6016 67.8223 41.1133C67.627 39.7461 67.3828 37.9395 67.0898 35.6934C66.8945 33.4473 66.6504 31.25 66.3574 29.1016C66.1621 26.9531 65.918 25.0488 65.625 23.3887C65.4297 21.7285 65.2832 20.8496 65.1855 20.752L63.8672 18.2617C63.7695 18.3594 63.5254 18.5547 63.1348 18.8477C62.8418 19.1406 62.6465 19.3359 62.5488 19.4336C62.2559 20.0195 61.7676 20.9961 61.084 22.3633C60.4004 23.6328 59.6191 25 58.7402 26.4648C57.959 27.9297 57.2266 29.3457 56.543 30.7129C55.8594 32.0801 55.3711 33.0078 55.0781 33.4961C55.0781 33.6914 55.0293 34.0332 54.9316 34.5215C54.9316 35.0098 54.9316 35.3027 54.9316 35.4004Z" fill="#151515"/>
</g>
<defs>
<clipPath id="clip0_357_39">
<rect width="100" height="100" fill="white"/>
</clipPath>
</defs>
</svg>
