<svg width="100" height="100" viewBox="0 0 100 100" fill="none" xmlns="http://www.w3.org/2000/svg">
<g clip-path="url(#clip0_323_54)">
<rect width="100" height="100" rx="10" fill="white"/>
<g filter="url(#filter0_d_323_54)">
<path d="M38.75 87.35C31.85 87.35 26.35 85.45 22.25 81.65C18.25 77.75 16.25 72.3 16.25 65.3C16.25 61.4 16.75 57.75 17.75 54.35C17.05 52.65 16.5 50.9 16.1 49.1C15.8 47.3 15.65 45.45 15.65 43.55C15.65 39.95 16.25 36.85 17.45 34.25C18.65 31.65 20.5 29.05 23 26.45C27.7 21.45 33.4 17.75 40.1 15.35C46.9 12.95 53.65 11.75 60.35 11.75C64.45 11.75 68.4 12.55 72.2 14.15C76.1 15.75 79.35 18.1 81.95 21.2C84.65 24.2 86.3 27.9 86.9 32.3C87.1 33.3 87.2 34.3 87.2 35.3C87.2 36.3 87.2 37.35 87.2 38.45C87.2 45.35 85.75 51.85 82.85 57.95C80.05 63.95 76.15 69.25 71.15 73.85C66.25 78.35 60.6 81.85 54.2 84.35C49.1 86.35 43.95 87.35 38.75 87.35ZM36.2 82.1C39.4 82.1 42.55 81.65 45.65 80.75C48.85 79.85 51.85 78.75 54.65 77.45C59.85 74.95 64.8 71.7 69.5 67.7C74.3 63.7 78.2 59.1 81.2 53.9C84.2 48.6 85.7 42.95 85.7 36.95C85.7 36.15 85.65 35.4 85.55 34.7C85.55 34 85.5 33.3 85.4 32.6C85 28.8 83.45 25.55 80.75 22.85C78.15 20.15 75 18.1 71.3 16.7C67.7 15.2 64.05 14.45 60.35 14.45C55.15 14.45 50.05 15.25 45.05 16.85C40.05 18.45 35.55 20.85 31.55 24.05C27.55 27.15 24.35 31.1 21.95 35.9C21.25 37.3 20.65 39.05 20.15 41.15C19.75 43.25 19.55 45.05 19.55 46.55C19.55 47.35 19.65 48.05 19.85 48.65C21.65 45.25 24.1 41.75 27.2 38.15C30.3 34.55 33.9 31.2 38 28.1C42.2 25 46.65 22.5 51.35 20.6C56.15 18.7 61.1 17.75 66.2 17.75C67.8 17.75 68.6 18 68.6 18.5C68.6 19.1 67.7 19.4 65.9 19.4C61.7 19.4 57.3 20.6 52.7 23C48.2 25.3 43.85 28.3 39.65 32C35.45 35.7 31.75 39.6 28.55 43.7C25.35 47.7 23 51.4 21.5 54.8C22.6 56.9 24.5 58.95 27.2 60.95C30 62.95 33.15 64.55 36.65 65.75C40.25 66.95 43.7 67.45 47 67.25C48 67.25 48.5 67.45 48.5 67.85C48.5 68.25 47.95 68.5 46.85 68.6C46.15 68.7 45.4 68.8 44.6 68.9C43.8 68.9 43.05 68.9 42.35 68.9C38.75 68.9 35.45 68.35 32.45 67.25C29.55 66.05 27.05 64.65 24.95 63.05C22.85 61.35 21.3 59.8 20.3 58.4C19.9 59.4 19.45 60.55 18.95 61.85C18.55 63.15 18.35 64.35 18.35 65.45C18.35 70.95 19.95 75.1 23.15 77.9C26.45 80.7 30.8 82.1 36.2 82.1Z" fill="black"/>
<path d="M22.25 81.65L20.8538 83.082L20.8719 83.0997L20.8905 83.1169L22.25 81.65ZM17.75 54.35L19.6687 54.9143L19.8673 54.2392L19.5994 53.5885L17.75 54.35ZM16.1 49.1L14.1272 49.4288L14.136 49.4816L14.1476 49.5339L16.1 49.1ZM17.45 34.25L15.6341 33.4119L17.45 34.25ZM23 26.45L24.4417 27.8362L24.4495 27.8281L24.4573 27.8198L23 26.45ZM40.1 15.35L39.4344 13.464L39.4255 13.4671L40.1 15.35ZM72.2 14.15L71.4239 15.9933L71.4324 15.9968L71.4409 16.0003L72.2 14.15ZM81.95 21.2L80.4176 22.4852L80.4401 22.512L80.4634 22.5379L81.95 21.2ZM86.9 32.3L84.9183 32.5702L84.9267 32.6315L84.9388 32.6922L86.9 32.3ZM82.85 57.95L81.0437 57.0913L81.0407 57.0977L81.0376 57.1042L82.85 57.95ZM71.15 73.85L72.5028 75.3231L72.5041 75.3219L71.15 73.85ZM54.2 84.35L53.4723 82.4871L53.4698 82.4881L54.2 84.35ZM45.65 80.75L45.1085 78.8247L45.1004 78.827L45.0924 78.8293L45.65 80.75ZM54.65 77.45L55.4922 79.264L55.5044 79.2583L55.5166 79.2525L54.65 77.45ZM69.5 67.7L68.2196 66.1636L68.2117 66.1702L68.2038 66.1769L69.5 67.7ZM81.2 53.9L82.9324 54.8994L82.9365 54.8923L82.9405 54.8852L81.2 53.9ZM85.55 34.7H83.55V34.8421L83.5701 34.9828L85.55 34.7ZM85.4 32.6L83.411 32.8094L83.4149 32.8462L83.4201 32.8828L85.4 32.6ZM80.75 22.85L79.3094 24.2373L79.3224 24.2509L79.3358 24.2642L80.75 22.85ZM71.3 16.7L70.5308 18.5462L70.5613 18.5589L70.5922 18.5706L71.3 16.7ZM45.05 16.85L44.4405 14.9451H44.4404L45.05 16.85ZM31.55 24.05L32.7751 25.6308L32.7873 25.6214L32.7994 25.6117L31.55 24.05ZM21.95 35.9L23.7389 36.7944L21.95 35.9ZM20.15 41.15L18.2044 40.6868L18.1938 40.731L18.1853 40.7758L20.15 41.15ZM19.85 48.65L17.9526 49.2825L19.4307 53.7166L21.6176 49.5858L19.85 48.65ZM27.2 38.15L25.6845 36.8449H25.6845L27.2 38.15ZM38 28.1L36.8123 26.4908L36.803 26.4977L36.7938 26.5047L38 28.1ZM51.35 20.6L50.6139 18.7404L50.6072 18.7431L50.6004 18.7458L51.35 20.6ZM52.7 23L53.6102 24.7809L53.6177 24.7771L53.6251 24.7732L52.7 23ZM39.65 32L40.9721 33.5007L39.65 32ZM28.55 43.7L30.1117 44.9494L30.1192 44.94L30.1266 44.9305L28.55 43.7ZM21.5 54.8L19.6702 53.9927L19.2812 54.8744L19.7283 55.728L21.5 54.8ZM27.2 60.95L26.0095 62.5571L26.0234 62.5674L26.0375 62.5775L27.2 60.95ZM36.65 65.75L36.0014 67.6419L36.0094 67.6447L36.0175 67.6474L36.65 65.75ZM47 67.25V65.25H46.9394L46.879 65.2537L47 67.25ZM46.85 68.6L46.6689 66.6082L46.6179 66.6129L46.5672 66.6201L46.85 68.6ZM44.6 68.9V70.9H44.7245L44.8481 70.8846L44.6 68.9ZM32.45 67.25L31.6853 69.098L31.7231 69.1137L31.7615 69.1278L32.45 67.25ZM24.95 63.05L23.6916 64.6045L23.7145 64.623L23.7379 64.6409L24.95 63.05ZM20.3 58.4L21.9275 57.2375L19.8015 54.2611L18.443 57.6572L20.3 58.4ZM18.95 61.85L17.0833 61.132L17.0586 61.1962L17.0384 61.2618L18.95 61.85ZM23.15 77.9L21.833 79.4052L21.8444 79.4152L21.856 79.425L23.15 77.9ZM38.75 85.35C32.2303 85.35 27.258 83.5646 23.6095 80.1831L20.8905 83.1169C25.442 87.3354 31.4697 89.35 38.75 89.35V85.35ZM23.6462 80.218C20.1248 76.7846 18.25 71.9053 18.25 65.3H14.25C14.25 72.6947 16.3752 78.7154 20.8538 83.082L23.6462 80.218ZM18.25 65.3C18.25 61.572 18.7277 58.1137 19.6687 54.9143L15.8313 53.7857C14.7723 57.3863 14.25 61.228 14.25 65.3H18.25ZM19.5994 53.5885C18.9432 51.9949 18.4276 50.3545 18.0524 48.6661L14.1476 49.5339C14.5724 51.4455 15.1568 53.3051 15.9006 55.1115L19.5994 53.5885ZM18.0728 48.7712C17.7916 47.0842 17.65 45.3444 17.65 43.55H13.65C13.65 45.5556 13.8084 47.5158 14.1272 49.4288L18.0728 48.7712ZM17.65 43.55C17.65 40.1672 18.2142 37.3669 19.2659 35.0881L15.6341 33.4119C14.2858 36.3331 13.65 39.7328 13.65 43.55H17.65ZM19.2659 35.0881C20.3519 32.7351 22.0578 30.3155 24.4417 27.8362L21.5583 25.0638C18.9422 27.7845 16.9481 30.5649 15.6341 33.4119L19.2659 35.0881ZM24.4573 27.8198C28.9324 23.059 34.3609 19.5302 40.7745 17.2328L39.4255 13.4671C32.4391 15.9697 26.4676 19.841 21.5427 25.0802L24.4573 27.8198ZM40.7656 17.236C47.3682 14.9057 53.8935 13.75 60.35 13.75V9.75C53.4066 9.75 46.4318 10.9943 39.4344 13.464L40.7656 17.236ZM60.35 13.75C64.1819 13.75 67.8681 14.4961 71.4239 15.9933L72.9761 12.3067C68.9319 10.6039 64.7181 9.75 60.35 9.75V13.75ZM71.4409 16.0003C75.0542 17.4827 78.0346 19.644 80.4176 22.4852L83.4824 19.9148C80.6654 16.556 77.1459 14.0173 72.9591 12.2997L71.4409 16.0003ZM80.4634 22.5379C82.8683 25.21 84.3669 28.5261 84.9183 32.5702L88.8817 32.0298C88.2331 27.2739 86.4317 23.19 83.4366 19.8621L80.4634 22.5379ZM84.9388 32.6922C85.1135 33.5656 85.2 34.4343 85.2 35.3H89.2C89.2 34.1657 89.0865 33.0343 88.8612 31.9078L84.9388 32.6922ZM85.2 35.3C85.2 35.3019 85.2 35.3039 85.2 35.3059C85.2 35.3078 85.2 35.3098 85.2 35.3117C85.2 35.3137 85.2 35.3156 85.2 35.3176C85.2 35.3195 85.2 35.3215 85.2 35.3234C85.2 35.3254 85.2 35.3274 85.2 35.3293C85.2 35.3313 85.2 35.3332 85.2 35.3352C85.2 35.3371 85.2 35.3391 85.2 35.341C85.2 35.343 85.2 35.345 85.2 35.3469C85.2 35.3489 85.2 35.3508 85.2 35.3528C85.2 35.3547 85.2 35.3567 85.2 35.3587C85.2 35.3606 85.2 35.3626 85.2 35.3645C85.2 35.3665 85.2 35.3684 85.2 35.3704C85.2 35.3724 85.2 35.3743 85.2 35.3763C85.2 35.3782 85.2 35.3802 85.2 35.3821C85.2 35.3841 85.2 35.3861 85.2 35.388C85.2 35.39 85.2 35.3919 85.2 35.3939C85.2 35.3959 85.2 35.3978 85.2 35.3998C85.2 35.4017 85.2 35.4037 85.2 35.4056C85.2 35.4076 85.2 35.4096 85.2 35.4115C85.2 35.4135 85.2 35.4155 85.2 35.4174C85.2 35.4194 85.2 35.4213 85.2 35.4233C85.2 35.4253 85.2 35.4272 85.2 35.4292C85.2 35.4311 85.2 35.4331 85.2 35.4351C85.2 35.437 85.2 35.439 85.2 35.4409C85.2 35.4429 85.2 35.4449 85.2 35.4468C85.2 35.4488 85.2 35.4508 85.2 35.4527C85.2 35.4547 85.2 35.4566 85.2 35.4586C85.2 35.4606 85.2 35.4625 85.2 35.4645C85.2 35.4665 85.2 35.4684 85.2 35.4704C85.2 35.4724 85.2 35.4743 85.2 35.4763C85.2 35.4783 85.2 35.4802 85.2 35.4822C85.2 35.4842 85.2 35.4861 85.2 35.4881C85.2 35.4901 85.2 35.492 85.2 35.494C85.2 35.4959 85.2 35.4979 85.2 35.4999C85.2 35.5018 85.2 35.5038 85.2 35.5058C85.2 35.5077 85.2 35.5097 85.2 35.5117C85.2 35.5136 85.2 35.5156 85.2 35.5176C85.2 35.5195 85.2 35.5215 85.2 35.5235C85.2 35.5254 85.2 35.5274 85.2 35.5294C85.2 35.5313 85.2 35.5333 85.2 35.5353C85.2 35.5373 85.2 35.5392 85.2 35.5412C85.2 35.5432 85.2 35.5451 85.2 35.5471C85.2 35.5491 85.2 35.551 85.2 35.553C85.2 35.555 85.2 35.5569 85.2 35.5589C85.2 35.5609 85.2 35.5629 85.2 35.5648C85.2 35.5668 85.2 35.5688 85.2 35.5707C85.2 35.5727 85.2 35.5747 85.2 35.5767C85.2 35.5786 85.2 35.5806 85.2 35.5826C85.2 35.5845 85.2 35.5865 85.2 35.5885C85.2 35.5905 85.2 35.5924 85.2 35.5944C85.2 35.5964 85.2 35.5983 85.2 35.6003C85.2 35.6023 85.2 35.6043 85.2 35.6062C85.2 35.6082 85.2 35.6102 85.2 35.6122C85.2 35.6141 85.2 35.6161 85.2 35.6181C85.2 35.62 85.2 35.622 85.2 35.624C85.2 35.626 85.2 35.6279 85.2 35.6299C85.2 35.6319 85.2 35.6339 85.2 35.6358C85.2 35.6378 85.2 35.6398 85.2 35.6418C85.2 35.6437 85.2 35.6457 85.2 35.6477C85.2 35.6497 85.2 35.6516 85.2 35.6536C85.2 35.6556 85.2 35.6576 85.2 35.6595C85.2 35.6615 85.2 35.6635 85.2 35.6655C85.2 35.6675 85.2 35.6694 85.2 35.6714C85.2 35.6734 85.2 35.6754 85.2 35.6773C85.2 35.6793 85.2 35.6813 85.2 35.6833C85.2 35.6852 85.2 35.6872 85.2 35.6892C85.2 35.6912 85.2 35.6932 85.2 35.6951C85.2 35.6971 85.2 35.6991 85.2 35.7011C85.2 35.7031 85.2 35.705 85.2 35.707C85.2 35.709 85.2 35.711 85.2 35.713C85.2 35.7149 85.2 35.7169 85.2 35.7189C85.2 35.7209 85.2 35.7229 85.2 35.7248C85.2 35.7268 85.2 35.7288 85.2 35.7308C85.2 35.7328 85.2 35.7347 85.2 35.7367C85.2 35.7387 85.2 35.7407 85.2 35.7427C85.2 35.7447 85.2 35.7466 85.2 35.7486C85.2 35.7506 85.2 35.7526 85.2 35.7546C85.2 35.7565 85.2 35.7585 85.2 35.7605C85.2 35.7625 85.2 35.7645 85.2 35.7665C85.2 35.7684 85.2 35.7704 85.2 35.7724C85.2 35.7744 85.2 35.7764 85.2 35.7784C85.2 35.7803 85.2 35.7823 85.2 35.7843C85.2 35.7863 85.2 35.7883 85.2 35.7903C85.2 35.7923 85.2 35.7942 85.2 35.7962C85.2 35.7982 85.2 35.8002 85.2 35.8022C85.2 35.8042 85.2 35.8062 85.2 35.8081C85.2 35.8101 85.2 35.8121 85.2 35.8141C85.2 35.8161 85.2 35.8181 85.2 35.8201C85.2 35.822 85.2 35.824 85.2 35.826C85.2 35.828 85.2 35.83 85.2 35.832C85.2 35.834 85.2 35.836 85.2 35.8379C85.2 35.8399 85.2 35.8419 85.2 35.8439C85.2 35.8459 85.2 35.8479 85.2 35.8499C85.2 35.8519 85.2 35.8538 85.2 35.8558C85.2 35.8578 85.2 35.8598 85.2 35.8618C85.2 35.8638 85.2 35.8658 85.2 35.8678C85.2 35.8698 85.2 35.8717 85.2 35.8737C85.2 35.8757 85.2 35.8777 85.2 35.8797C85.2 35.8817 85.2 35.8837 85.2 35.8857C85.2 35.8877 85.2 35.8897 85.2 35.8917C85.2 35.8936 85.2 35.8956 85.2 35.8976C85.2 35.8996 85.2 35.9016 85.2 35.9036C85.2 35.9056 85.2 35.9076 85.2 35.9096C85.2 35.9116 85.2 35.9136 85.2 35.9156C85.2 35.9176 85.2 35.9195 85.2 35.9215C85.2 35.9235 85.2 35.9255 85.2 35.9275C85.2 35.9295 85.2 35.9315 85.2 35.9335C85.2 35.9355 85.2 35.9375 85.2 35.9395C85.2 35.9415 85.2 35.9435 85.2 35.9455C85.2 35.9475 85.2 35.9495 85.2 35.9515C85.2 35.9534 85.2 35.9554 85.2 35.9574C85.2 35.9594 85.2 35.9614 85.2 35.9634C85.2 35.9654 85.2 35.9674 85.2 35.9694C85.2 35.9714 85.2 35.9734 85.2 35.9754C85.2 35.9774 85.2 35.9794 85.2 35.9814C85.2 35.9834 85.2 35.9854 85.2 35.9874C85.2 35.9894 85.2 35.9914 85.2 35.9934C85.2 35.9954 85.2 35.9974 85.2 35.9994C85.2 36.0014 85.2 36.0034 85.2 36.0054C85.2 36.0074 85.2 36.0094 85.2 36.0114C85.2 36.0134 85.2 36.0154 85.2 36.0174C85.2 36.0194 85.2 36.0214 85.2 36.0234C85.2 36.0254 85.2 36.0274 85.2 36.0294C85.2 36.0314 85.2 36.0334 85.2 36.0354C85.2 36.0374 85.2 36.0394 85.2 36.0414C85.2 36.0434 85.2 36.0454 85.2 36.0474C85.2 36.0494 85.2 36.0514 85.2 36.0534C85.2 36.0554 85.2 36.0574 85.2 36.0594C85.2 36.0614 85.2 36.0634 85.2 36.0654C85.2 36.0674 85.2 36.0694 85.2 36.0714C85.2 36.0734 85.2 36.0754 85.2 36.0774C85.2 36.0794 85.2 36.0814 85.2 36.0834C85.2 36.0854 85.2 36.0874 85.2 36.0894C85.2 36.0914 85.2 36.0934 85.2 36.0954C85.2 36.0974 85.2 36.0994 85.2 36.1014C85.2 36.1034 85.2 36.1055 85.2 36.1075C85.2 36.1095 85.2 36.1115 85.2 36.1135C85.2 36.1155 85.2 36.1175 85.2 36.1195C85.2 36.1215 85.2 36.1235 85.2 36.1255C85.2 36.1275 85.2 36.1295 85.2 36.1315C85.2 36.1335 85.2 36.1355 85.2 36.1375C85.2 36.1395 85.2 36.1416 85.2 36.1436C85.2 36.1456 85.2 36.1476 85.2 36.1496C85.2 36.1516 85.2 36.1536 85.2 36.1556C85.2 36.1576 85.2 36.1596 85.2 36.1616C85.2 36.1636 85.2 36.1657 85.2 36.1677C85.2 36.1697 85.2 36.1717 85.2 36.1737C85.2 36.1757 85.2 36.1777 85.2 36.1797C85.2 36.1817 85.2 36.1837 85.2 36.1857C85.2 36.1878 85.2 36.1898 85.2 36.1918C85.2 36.1938 85.2 36.1958 85.2 36.1978C85.2 36.1998 85.2 36.2018 85.2 36.2038C85.2 36.2059 85.2 36.2079 85.2 36.2099C85.2 36.2119 85.2 36.2139 85.2 36.2159C85.2 36.2179 85.2 36.2199 85.2 36.2219C85.2 36.224 85.2 36.226 85.2 36.228C85.2 36.23 85.2 36.232 85.2 36.234C85.2 36.236 85.2 36.2381 85.2 36.2401C85.2 36.2421 85.2 36.2441 85.2 36.2461C85.2 36.2481 85.2 36.2501 85.2 36.2521C85.2 36.2542 85.2 36.2562 85.2 36.2582C85.2 36.2602 85.2 36.2622 85.2 36.2642C85.2 36.2663 85.2 36.2683 85.2 36.2703C85.2 36.2723 85.2 36.2743 85.2 36.2763C85.2 36.2783 85.2 36.2804 85.2 36.2824C85.2 36.2844 85.2 36.2864 85.2 36.2884C85.2 36.2904 85.2 36.2924 85.2 36.2945C85.2 36.2965 85.2 36.2985 85.2 36.3005C85.2 36.3025 85.2 36.3046 85.2 36.3066C85.2 36.3086 85.2 36.3106 85.2 36.3126C85.2 36.3146 85.2 36.3167 85.2 36.3187C85.2 36.3207 85.2 36.3227 85.2 36.3247C85.2 36.3268 85.2 36.3288 85.2 36.3308C85.2 36.3328 85.2 36.3348 85.2 36.3369C85.2 36.3389 85.2 36.3409 85.2 36.3429C85.2 36.3449 85.2 36.3469 85.2 36.349C85.2 36.351 85.2 36.353 85.2 36.355C85.2 36.3571 85.2 36.3591 85.2 36.3611C85.2 36.3631 85.2 36.3651 85.2 36.3672C85.2 36.3692 85.2 36.3712 85.2 36.3732C85.2 36.3752 85.2 36.3773 85.2 36.3793C85.2 36.3813 85.2 36.3833 85.2 36.3854C85.2 36.3874 85.2 36.3894 85.2 36.3914C85.2 36.3934 85.2 36.3955 85.2 36.3975C85.2 36.3995 85.2 36.4015 85.2 36.4036C85.2 36.4056 85.2 36.4076 85.2 36.4096C85.2 36.4117 85.2 36.4137 85.2 36.4157C85.2 36.4177 85.2 36.4198 85.2 36.4218C85.2 36.4238 85.2 36.4258 85.2 36.4279C85.2 36.4299 85.2 36.4319 85.2 36.4339C85.2 36.436 85.2 36.438 85.2 36.44C85.2 36.442 85.2 36.4441 85.2 36.4461C85.2 36.4481 85.2 36.4501 85.2 36.4522C85.2 36.4542 85.2 36.4562 85.2 36.4583C85.2 36.4603 85.2 36.4623 85.2 36.4643C85.2 36.4664 85.2 36.4684 85.2 36.4704C85.2 36.4724 85.2 36.4745 85.2 36.4765C85.2 36.4785 85.2 36.4806 85.2 36.4826C85.2 36.4846 85.2 36.4866 85.2 36.4887C85.2 36.4907 85.2 36.4927 85.2 36.4948C85.2 36.4968 85.2 36.4988 85.2 36.5008C85.2 36.5029 85.2 36.5049 85.2 36.5069C85.2 36.509 85.2 36.511 85.2 36.513C85.2 36.5151 85.2 36.5171 85.2 36.5191C85.2 36.5211 85.2 36.5232 85.2 36.5252C85.2 36.5272 85.2 36.5293 85.2 36.5313C85.2 36.5333 85.2 36.5354 85.2 36.5374C85.2 36.5394 85.2 36.5415 85.2 36.5435C85.2 36.5455 85.2 36.5476 85.2 36.5496C85.2 36.5516 85.2 36.5537 85.2 36.5557C85.2 36.5577 85.2 36.5598 85.2 36.5618C85.2 36.5638 85.2 36.5659 85.2 36.5679C85.2 36.5699 85.2 36.572 85.2 36.574C85.2 36.576 85.2 36.5781 85.2 36.5801C85.2 36.5821 85.2 36.5842 85.2 36.5862C85.2 36.5882 85.2 36.5903 85.2 36.5923C85.2 36.5944 85.2 36.5964 85.2 36.5984C85.2 36.6005 85.2 36.6025 85.2 36.6045C85.2 36.6066 85.2 36.6086 85.2 36.6106C85.2 36.6127 85.2 36.6147 85.2 36.6168C85.2 36.6188 85.2 36.6208 85.2 36.6229C85.2 36.6249 85.2 36.6269 85.2 36.629C85.2 36.631 85.2 36.6331 85.2 36.6351C85.2 36.6371 85.2 36.6392 85.2 36.6412C85.2 36.6432 85.2 36.6453 85.2 36.6473C85.2 36.6494 85.2 36.6514 85.2 36.6534C85.2 36.6555 85.2 36.6575 85.2 36.6596C85.2 36.6616 85.2 36.6636 85.2 36.6657C85.2 36.6677 85.2 36.6698 85.2 36.6718C85.2 36.6738 85.2 36.6759 85.2 36.6779C85.2 36.68 85.2 36.682 85.2 36.684C85.2 36.6861 85.2 36.6881 85.2 36.6902C85.2 36.6922 85.2 36.6943 85.2 36.6963C85.2 36.6983 85.2 36.7004 85.2 36.7024C85.2 36.7045 85.2 36.7065 85.2 36.7085C85.2 36.7106 85.2 36.7126 85.2 36.7147C85.2 36.7167 85.2 36.7188 85.2 36.7208C85.2 36.7229 85.2 36.7249 85.2 36.7269C85.2 36.729 85.2 36.731 85.2 36.7331C85.2 36.7351 85.2 36.7372 85.2 36.7392C85.2 36.7412 85.2 36.7433 85.2 36.7453C85.2 36.7474 85.2 36.7494 85.2 36.7515C85.2 36.7535 85.2 36.7556 85.2 36.7576C85.2 36.7597 85.2 36.7617 85.2 36.7637C85.2 36.7658 85.2 36.7678 85.2 36.7699C85.2 36.7719 85.2 36.774 85.2 36.776C85.2 36.7781 85.2 36.7801 85.2 36.7822C85.2 36.7842 85.2 36.7863 85.2 36.7883C85.2 36.7904 85.2 36.7924 85.2 36.7945C85.2 36.7965 85.2 36.7986 85.2 36.8006C85.2 36.8027 85.2 36.8047 85.2 36.8067C85.2 36.8088 85.2 36.8108 85.2 36.8129C85.2 36.8149 85.2 36.817 85.2 36.819C85.2 36.8211 85.2 36.8231 85.2 36.8252C85.2 36.8272 85.2 36.8293 85.2 36.8313C85.2 36.8334 85.2 36.8354 85.2 36.8375C85.2 36.8395 85.2 36.8416 85.2 36.8437C85.2 36.8457 85.2 36.8477 85.2 36.8498C85.2 36.8519 85.2 36.8539 85.2 36.856C85.2 36.858 85.2 36.8601 85.2 36.8621C85.2 36.8642 85.2 36.8662 85.2 36.8683C85.2 36.8703 85.2 36.8724 85.2 36.8744C85.2 36.8765 85.2 36.8785 85.2 36.8806C85.2 36.8826 85.2 36.8847 85.2 36.8867C85.2 36.8888 85.2 36.8909 85.2 36.8929C85.2 36.895 85.2 36.897 85.2 36.8991C85.2 36.9011 85.2 36.9032 85.2 36.9052C85.2 36.9073 85.2 36.9093 85.2 36.9114C85.2 36.9135 85.2 36.9155 85.2 36.9176C85.2 36.9196 85.2 36.9217 85.2 36.9237C85.2 36.9258 85.2 36.9279 85.2 36.9299C85.2 36.932 85.2 36.934 85.2 36.9361C85.2 36.9381 85.2 36.9402 85.2 36.9423C85.2 36.9443 85.2 36.9464 85.2 36.9484C85.2 36.9505 85.2 36.9525 85.2 36.9546C85.2 36.9567 85.2 36.9587 85.2 36.9608C85.2 36.9628 85.2 36.9649 85.2 36.9669C85.2 36.969 85.2 36.9711 85.2 36.9731C85.2 36.9752 85.2 36.9772 85.2 36.9793C85.2 36.9814 85.2 36.9834 85.2 36.9855C85.2 36.9875 85.2 36.9896 85.2 36.9917C85.2 36.9937 85.2 36.9958 85.2 36.9978C85.2 36.9999 85.2 37.002 85.2 37.004C85.2 37.0061 85.2 37.0081 85.2 37.0102C85.2 37.0123 85.2 37.0143 85.2 37.0164C85.2 37.0185 85.2 37.0205 85.2 37.0226C85.2 37.0246 85.2 37.0267 85.2 37.0288C85.2 37.0308 85.2 37.0329 85.2 37.035C85.2 37.037 85.2 37.0391 85.2 37.0411C85.2 37.0432 85.2 37.0453 85.2 37.0473C85.2 37.0494 85.2 37.0515 85.2 37.0535C85.2 37.0556 85.2 37.0577 85.2 37.0597C85.2 37.0618 85.2 37.0639 85.2 37.0659C85.2 37.068 85.2 37.07 85.2 37.0721C85.2 37.0742 85.2 37.0762 85.2 37.0783C85.2 37.0804 85.2 37.0824 85.2 37.0845C85.2 37.0866 85.2 37.0886 85.2 37.0907C85.2 37.0928 85.2 37.0948 85.2 37.0969C85.2 37.099 85.2 37.101 85.2 37.1031C85.2 37.1052 85.2 37.1072 85.2 37.1093C85.2 37.1114 85.2 37.1134 85.2 37.1155C85.2 37.1176 85.2 37.1196 85.2 37.1217C85.2 37.1238 85.2 37.1259 85.2 37.1279C85.2 37.13 85.2 37.1321 85.2 37.1341C85.2 37.1362 85.2 37.1383 85.2 37.1403C85.2 37.1424 85.2 37.1445 85.2 37.1465C85.2 37.1486 85.2 37.1507 85.2 37.1528C85.2 37.1548 85.2 37.1569 85.2 37.159C85.2 37.161 85.2 37.1631 85.2 37.1652C85.2 37.1673 85.2 37.1693 85.2 37.1714C85.2 37.1735 85.2 37.1755 85.2 37.1776C85.2 37.1797 85.2 37.1817 85.2 37.1838C85.2 37.1859 85.2 37.188 85.2 37.19C85.2 37.1921 85.2 37.1942 85.2 37.1963C85.2 37.1983 85.2 37.2004 85.2 37.2025C85.2 37.2046 85.2 37.2066 85.2 37.2087C85.2 37.2108 85.2 37.2128 85.2 37.2149C85.2 37.217 85.2 37.2191 85.2 37.2211C85.2 37.2232 85.2 37.2253 85.2 37.2274C85.2 37.2294 85.2 37.2315 85.2 37.2336C85.2 37.2357 85.2 37.2377 85.2 37.2398C85.2 37.2419 85.2 37.244 85.2 37.246C85.2 37.2481 85.2 37.2502 85.2 37.2523C85.2 37.2543 85.2 37.2564 85.2 37.2585C85.2 37.2606 85.2 37.2627 85.2 37.2647C85.2 37.2668 85.2 37.2689 85.2 37.271C85.2 37.273 85.2 37.2751 85.2 37.2772C85.2 37.2793 85.2 37.2813 85.2 37.2834C85.2 37.2855 85.2 37.2876 85.2 37.2897C85.2 37.2917 85.2 37.2938 85.2 37.2959C85.2 37.298 85.2 37.3001 85.2 37.3021C85.2 37.3042 85.2 37.3063 85.2 37.3084C85.2 37.3105 85.2 37.3125 85.2 37.3146C85.2 37.3167 85.2 37.3188 85.2 37.3209C85.2 37.3229 85.2 37.325 85.2 37.3271C85.2 37.3292 85.2 37.3313 85.2 37.3333C85.2 37.3354 85.2 37.3375 85.2 37.3396C85.2 37.3417 85.2 37.3438 85.2 37.3458C85.2 37.3479 85.2 37.35 85.2 37.3521C85.2 37.3542 85.2 37.3562 85.2 37.3583C85.2 37.3604 85.2 37.3625 85.2 37.3646C85.2 37.3667 85.2 37.3687 85.2 37.3708C85.2 37.3729 85.2 37.375 85.2 37.3771C85.2 37.3792 85.2 37.3812 85.2 37.3833C85.2 37.3854 85.2 37.3875 85.2 37.3896C85.2 37.3917 85.2 37.3938 85.2 37.3958C85.2 37.3979 85.2 37.4 85.2 37.4021C85.2 37.4042 85.2 37.4063 85.2 37.4084C85.2 37.4104 85.2 37.4125 85.2 37.4146C85.2 37.4167 85.2 37.4188 85.2 37.4209C85.2 37.423 85.2 37.425 85.2 37.4271C85.2 37.4292 85.2 37.4313 85.2 37.4334C85.2 37.4355 85.2 37.4376 85.2 37.4397C85.2 37.4417 85.2 37.4438 85.2 37.4459C85.2 37.448 85.2 37.4501 85.2 37.4522C85.2 37.4543 85.2 37.4564 85.2 37.4585C85.2 37.4605 85.2 37.4626 85.2 37.4647C85.2 37.4668 85.2 37.4689 85.2 37.471C85.2 37.4731 85.2 37.4752 85.2 37.4773C85.2 37.4793 85.2 37.4814 85.2 37.4835C85.2 37.4856 85.2 37.4877 85.2 37.4898C85.2 37.4919 85.2 37.494 85.2 37.4961C85.2 37.4982 85.2 37.5003 85.2 37.5023C85.2 37.5044 85.2 37.5065 85.2 37.5086C85.2 37.5107 85.2 37.5128 85.2 37.5149C85.2 37.517 85.2 37.5191 85.2 37.5212C85.2 37.5233 85.2 37.5254 85.2 37.5275C85.2 37.5295 85.2 37.5316 85.2 37.5337C85.2 37.5358 85.2 37.5379 85.2 37.54C85.2 37.5421 85.2 37.5442 85.2 37.5463C85.2 37.5484 85.2 37.5505 85.2 37.5526C85.2 37.5547 85.2 37.5568 85.2 37.5589C85.2 37.561 85.2 37.5631 85.2 37.5652C85.2 37.5672 85.2 37.5693 85.2 37.5714C85.2 37.5735 85.2 37.5756 85.2 37.5777C85.2 37.5798 85.2 37.5819 85.2 37.584C85.2 37.5861 85.2 37.5882 85.2 37.5903C85.2 37.5924 85.2 37.5945 85.2 37.5966C85.2 37.5987 85.2 37.6008 85.2 37.6029C85.2 37.605 85.2 37.6071 85.2 37.6092C85.2 37.6113 85.2 37.6134 85.2 37.6155C85.2 37.6176 85.2 37.6197 85.2 37.6218C85.2 37.6239 85.2 37.626 85.2 37.6281C85.2 37.6302 85.2 37.6323 85.2 37.6344C85.2 37.6365 85.2 37.6386 85.2 37.6407C85.2 37.6428 85.2 37.6449 85.2 37.647C85.2 37.6491 85.2 37.6512 85.2 37.6533C85.2 37.6554 85.2 37.6575 85.2 37.6596C85.2 37.6617 85.2 37.6638 85.2 37.6659C85.2 37.668 85.2 37.6701 85.2 37.6722C85.2 37.6743 85.2 37.6764 85.2 37.6785C85.2 37.6806 85.2 37.6827 85.2 37.6848C85.2 37.6869 85.2 37.689 85.2 37.6911C85.2 37.6932 85.2 37.6953 85.2 37.6974C85.2 37.6995 85.2 37.7016 85.2 37.7037C85.2 37.7058 85.2 37.7079 85.2 37.71C85.2 37.7121 85.2 37.7142 85.2 37.7164C85.2 37.7185 85.2 37.7206 85.2 37.7227C85.2 37.7248 85.2 37.7269 85.2 37.729C85.2 37.7311 85.2 37.7332 85.2 37.7353C85.2 37.7374 85.2 37.7395 85.2 37.7416C85.2 37.7437 85.2 37.7458 85.2 37.7479C85.2 37.75 85.2 37.7522 85.2 37.7543C85.2 37.7564 85.2 37.7585 85.2 37.7606C85.2 37.7627 85.2 37.7648 85.2 37.7669C85.2 37.769 85.2 37.7711 85.2 37.7732C85.2 37.7753 85.2 37.7774 85.2 37.7795C85.2 37.7817 85.2 37.7838 85.2 37.7859C85.2 37.788 85.2 37.7901 85.2 37.7922C85.2 37.7943 85.2 37.7964 85.2 37.7985C85.2 37.8006 85.2 37.8027 85.2 37.8049C85.2 37.807 85.2 37.8091 85.2 37.8112C85.2 37.8133 85.2 37.8154 85.2 37.8175C85.2 37.8196 85.2 37.8217 85.2 37.8239C85.2 37.826 85.2 37.8281 85.2 37.8302C85.2 37.8323 85.2 37.8344 85.2 37.8365C85.2 37.8386 85.2 37.8407 85.2 37.8429C85.2 37.845 85.2 37.8471 85.2 37.8492C85.2 37.8513 85.2 37.8534 85.2 37.8555C85.2 37.8576 85.2 37.8598 85.2 37.8619C85.2 37.864 85.2 37.8661 85.2 37.8682C85.2 37.8703 85.2 37.8724 85.2 37.8745C85.2 37.8767 85.2 37.8788 85.2 37.8809C85.2 37.883 85.2 37.8851 85.2 37.8872C85.2 37.8894 85.2 37.8915 85.2 37.8936C85.2 37.8957 85.2 37.8978 85.2 37.8999C85.2 37.902 85.2 37.9042 85.2 37.9063C85.2 37.9084 85.2 37.9105 85.2 37.9126C85.2 37.9147 85.2 37.9169 85.2 37.919C85.2 37.9211 85.2 37.9232 85.2 37.9253C85.2 37.9274 85.2 37.9296 85.2 37.9317C85.2 37.9338 85.2 37.9359 85.2 37.938C85.2 37.9402 85.2 37.9423 85.2 37.9444C85.2 37.9465 85.2 37.9486 85.2 37.9507C85.2 37.9529 85.2 37.955 85.2 37.9571C85.2 37.9592 85.2 37.9613 85.2 37.9635C85.2 37.9656 85.2 37.9677 85.2 37.9698C85.2 37.9719 85.2 37.9741 85.2 37.9762C85.2 37.9783 85.2 37.9804 85.2 37.9825C85.2 37.9847 85.2 37.9868 85.2 37.9889C85.2 37.991 85.2 37.9931 85.2 37.9953C85.2 37.9974 85.2 37.9995 85.2 38.0016C85.2 38.0038 85.2 38.0059 85.2 38.008C85.2 38.0101 85.2 38.0122 85.2 38.0144C85.2 38.0165 85.2 38.0186 85.2 38.0207C85.2 38.0229 85.2 38.025 85.2 38.0271C85.2 38.0292 85.2 38.0313 85.2 38.0335C85.2 38.0356 85.2 38.0377 85.2 38.0398C85.2 38.042 85.2 38.0441 85.2 38.0462C85.2 38.0483 85.2 38.0505 85.2 38.0526C85.2 38.0547 85.2 38.0568 85.2 38.059C85.2 38.0611 85.2 38.0632 85.2 38.0653C85.2 38.0675 85.2 38.0696 85.2 38.0717C85.2 38.0738 85.2 38.076 85.2 38.0781C85.2 38.0802 85.2 38.0823 85.2 38.0845C85.2 38.0866 85.2 38.0887 85.2 38.0909C85.2 38.093 85.2 38.0951 85.2 38.0972C85.2 38.0994 85.2 38.1015 85.2 38.1036C85.2 38.1057 85.2 38.1079 85.2 38.11C85.2 38.1121 85.2 38.1143 85.2 38.1164C85.2 38.1185 85.2 38.1206 85.2 38.1228C85.2 38.1249 85.2 38.127 85.2 38.1292C85.2 38.1313 85.2 38.1334 85.2 38.1356C85.2 38.1377 85.2 38.1398 85.2 38.1419C85.2 38.1441 85.2 38.1462 85.2 38.1483C85.2 38.1505 85.2 38.1526 85.2 38.1547C85.2 38.1569 85.2 38.159 85.2 38.1611C85.2 38.1632 85.2 38.1654 85.2 38.1675C85.2 38.1696 85.2 38.1718 85.2 38.1739C85.2 38.176 85.2 38.1782 85.2 38.1803C85.2 38.1824 85.2 38.1846 85.2 38.1867C85.2 38.1888 85.2 38.191 85.2 38.1931C85.2 38.1952 85.2 38.1974 85.2 38.1995C85.2 38.2016 85.2 38.2038 85.2 38.2059C85.2 38.208 85.2 38.2102 85.2 38.2123C85.2 38.2144 85.2 38.2166 85.2 38.2187C85.2 38.2208 85.2 38.223 85.2 38.2251C85.2 38.2272 85.2 38.2294 85.2 38.2315C85.2 38.2337 85.2 38.2358 85.2 38.2379C85.2 38.2401 85.2 38.2422 85.2 38.2443C85.2 38.2465 85.2 38.2486 85.2 38.2507C85.2 38.2529 85.2 38.255 85.2 38.2571C85.2 38.2593 85.2 38.2614 85.2 38.2636C85.2 38.2657 85.2 38.2678 85.2 38.27C85.2 38.2721 85.2 38.2743 85.2 38.2764C85.2 38.2785 85.2 38.2807 85.2 38.2828C85.2 38.2849 85.2 38.2871 85.2 38.2892C85.2 38.2914 85.2 38.2935 85.2 38.2956C85.2 38.2978 85.2 38.2999 85.2 38.3021C85.2 38.3042 85.2 38.3063 85.2 38.3085C85.2 38.3106 85.2 38.3128 85.2 38.3149C85.2 38.317 85.2 38.3192 85.2 38.3213C85.2 38.3235 85.2 38.3256 85.2 38.3277C85.2 38.3299 85.2 38.332 85.2 38.3342C85.2 38.3363 85.2 38.3384 85.2 38.3406C85.2 38.3427 85.2 38.3449 85.2 38.347C85.2 38.3492 85.2 38.3513 85.2 38.3534C85.2 38.3556 85.2 38.3577 85.2 38.3599C85.2 38.362 85.2 38.3642 85.2 38.3663C85.2 38.3684 85.2 38.3706 85.2 38.3727C85.2 38.3749 85.2 38.377 85.2 38.3792C85.2 38.3813 85.2 38.3835 85.2 38.3856C85.2 38.3877 85.2 38.3899 85.2 38.392C85.2 38.3942 85.2 38.3963 85.2 38.3985C85.2 38.4006 85.2 38.4028 85.2 38.4049C85.2 38.4071 85.2 38.4092 85.2 38.4113C85.2 38.4135 85.2 38.4156 85.2 38.4178C85.2 38.4199 85.2 38.4221 85.2 38.4242C85.2 38.4264 85.2 38.4285 85.2 38.4307C85.2 38.4328 85.2 38.435 85.2 38.4371C85.2 38.4393 85.2 38.4414 85.2 38.4436C85.2 38.4457 85.2 38.4478 85.2 38.45H89.2C89.2 38.4478 89.2 38.4457 89.2 38.4436C89.2 38.4414 89.2 38.4393 89.2 38.4371C89.2 38.435 89.2 38.4328 89.2 38.4307C89.2 38.4285 89.2 38.4264 89.2 38.4242C89.2 38.4221 89.2 38.4199 89.2 38.4178C89.2 38.4156 89.2 38.4135 89.2 38.4113C89.2 38.4092 89.2 38.4071 89.2 38.4049C89.2 38.4028 89.2 38.4006 89.2 38.3985C89.2 38.3963 89.2 38.3942 89.2 38.392C89.2 38.3899 89.2 38.3877 89.2 38.3856C89.2 38.3835 89.2 38.3813 89.2 38.3792C89.2 38.377 89.2 38.3749 89.2 38.3727C89.2 38.3706 89.2 38.3684 89.2 38.3663C89.2 38.3642 89.2 38.362 89.2 38.3599C89.2 38.3577 89.2 38.3556 89.2 38.3534C89.2 38.3513 89.2 38.3492 89.2 38.347C89.2 38.3449 89.2 38.3427 89.2 38.3406C89.2 38.3384 89.2 38.3363 89.2 38.3342C89.2 38.332 89.2 38.3299 89.2 38.3277C89.2 38.3256 89.2 38.3235 89.2 38.3213C89.2 38.3192 89.2 38.317 89.2 38.3149C89.2 38.3128 89.2 38.3106 89.2 38.3085C89.2 38.3063 89.2 38.3042 89.2 38.3021C89.2 38.2999 89.2 38.2978 89.2 38.2956C89.2 38.2935 89.2 38.2914 89.2 38.2892C89.2 38.2871 89.2 38.2849 89.2 38.2828C89.2 38.2807 89.2 38.2785 89.2 38.2764C89.2 38.2743 89.2 38.2721 89.2 38.27C89.2 38.2678 89.2 38.2657 89.2 38.2636C89.2 38.2614 89.2 38.2593 89.2 38.2571C89.2 38.255 89.2 38.2529 89.2 38.2507C89.2 38.2486 89.2 38.2465 89.2 38.2443C89.2 38.2422 89.2 38.2401 89.2 38.2379C89.2 38.2358 89.2 38.2337 89.2 38.2315C89.2 38.2294 89.2 38.2272 89.2 38.2251C89.2 38.223 89.2 38.2208 89.2 38.2187C89.2 38.2166 89.2 38.2144 89.2 38.2123C89.2 38.2102 89.2 38.208 89.2 38.2059C89.2 38.2038 89.2 38.2016 89.2 38.1995C89.2 38.1974 89.2 38.1952 89.2 38.1931C89.2 38.191 89.2 38.1888 89.2 38.1867C89.2 38.1846 89.2 38.1824 89.2 38.1803C89.2 38.1782 89.2 38.176 89.2 38.1739C89.2 38.1718 89.2 38.1696 89.2 38.1675C89.2 38.1654 89.2 38.1632 89.2 38.1611C89.2 38.159 89.2 38.1569 89.2 38.1547C89.2 38.1526 89.2 38.1505 89.2 38.1483C89.2 38.1462 89.2 38.1441 89.2 38.1419C89.2 38.1398 89.2 38.1377 89.2 38.1356C89.2 38.1334 89.2 38.1313 89.2 38.1292C89.2 38.127 89.2 38.1249 89.2 38.1228C89.2 38.1206 89.2 38.1185 89.2 38.1164C89.2 38.1143 89.2 38.1121 89.2 38.11C89.2 38.1079 89.2 38.1057 89.2 38.1036C89.2 38.1015 89.2 38.0994 89.2 38.0972C89.2 38.0951 89.2 38.093 89.2 38.0909C89.2 38.0887 89.2 38.0866 89.2 38.0845C89.2 38.0823 89.2 38.0802 89.2 38.0781C89.2 38.076 89.2 38.0738 89.2 38.0717C89.2 38.0696 89.2 38.0675 89.2 38.0653C89.2 38.0632 89.2 38.0611 89.2 38.059C89.2 38.0568 89.2 38.0547 89.2 38.0526C89.2 38.0505 89.2 38.0483 89.2 38.0462C89.2 38.0441 89.2 38.042 89.2 38.0398C89.2 38.0377 89.2 38.0356 89.2 38.0335C89.2 38.0313 89.2 38.0292 89.2 38.0271C89.2 38.025 89.2 38.0229 89.2 38.0207C89.2 38.0186 89.2 38.0165 89.2 38.0144C89.2 38.0122 89.2 38.0101 89.2 38.008C89.2 38.0059 89.2 38.0038 89.2 38.0016C89.2 37.9995 89.2 37.9974 89.2 37.9953C89.2 37.9931 89.2 37.991 89.2 37.9889C89.2 37.9868 89.2 37.9847 89.2 37.9825C89.2 37.9804 89.2 37.9783 89.2 37.9762C89.2 37.9741 89.2 37.9719 89.2 37.9698C89.2 37.9677 89.2 37.9656 89.2 37.9635C89.2 37.9613 89.2 37.9592 89.2 37.9571C89.2 37.955 89.2 37.9529 89.2 37.9507C89.2 37.9486 89.2 37.9465 89.2 37.9444C89.2 37.9423 89.2 37.9402 89.2 37.938C89.2 37.9359 89.2 37.9338 89.2 37.9317C89.2 37.9296 89.2 37.9274 89.2 37.9253C89.2 37.9232 89.2 37.9211 89.2 37.919C89.2 37.9169 89.2 37.9147 89.2 37.9126C89.2 37.9105 89.2 37.9084 89.2 37.9063C89.2 37.9042 89.2 37.902 89.2 37.8999C89.2 37.8978 89.2 37.8957 89.2 37.8936C89.2 37.8915 89.2 37.8894 89.2 37.8872C89.2 37.8851 89.2 37.883 89.2 37.8809C89.2 37.8788 89.2 37.8767 89.2 37.8745C89.2 37.8724 89.2 37.8703 89.2 37.8682C89.2 37.8661 89.2 37.864 89.2 37.8619C89.2 37.8598 89.2 37.8576 89.2 37.8555C89.2 37.8534 89.2 37.8513 89.2 37.8492C89.2 37.8471 89.2 37.845 89.2 37.8429C89.2 37.8407 89.2 37.8386 89.2 37.8365C89.2 37.8344 89.2 37.8323 89.2 37.8302C89.2 37.8281 89.2 37.826 89.2 37.8239C89.2 37.8217 89.2 37.8196 89.2 37.8175C89.2 37.8154 89.2 37.8133 89.2 37.8112C89.2 37.8091 89.2 37.807 89.2 37.8049C89.2 37.8027 89.2 37.8006 89.2 37.7985C89.2 37.7964 89.2 37.7943 89.2 37.7922C89.2 37.7901 89.2 37.788 89.2 37.7859C89.2 37.7838 89.2 37.7817 89.2 37.7795C89.2 37.7774 89.2 37.7753 89.2 37.7732C89.2 37.7711 89.2 37.769 89.2 37.7669C89.2 37.7648 89.2 37.7627 89.2 37.7606C89.2 37.7585 89.2 37.7564 89.2 37.7543C89.2 37.7522 89.2 37.75 89.2 37.7479C89.2 37.7458 89.2 37.7437 89.2 37.7416C89.2 37.7395 89.2 37.7374 89.2 37.7353C89.2 37.7332 89.2 37.7311 89.2 37.729C89.2 37.7269 89.2 37.7248 89.2 37.7227C89.2 37.7206 89.2 37.7185 89.2 37.7164C89.2 37.7142 89.2 37.7121 89.2 37.71C89.2 37.7079 89.2 37.7058 89.2 37.7037C89.2 37.7016 89.2 37.6995 89.2 37.6974C89.2 37.6953 89.2 37.6932 89.2 37.6911C89.2 37.689 89.2 37.6869 89.2 37.6848C89.2 37.6827 89.2 37.6806 89.2 37.6785C89.2 37.6764 89.2 37.6743 89.2 37.6722C89.2 37.6701 89.2 37.668 89.2 37.6659C89.2 37.6638 89.2 37.6617 89.2 37.6596C89.2 37.6575 89.2 37.6554 89.2 37.6533C89.2 37.6512 89.2 37.6491 89.2 37.647C89.2 37.6449 89.2 37.6428 89.2 37.6407C89.2 37.6386 89.2 37.6365 89.2 37.6344C89.2 37.6323 89.2 37.6302 89.2 37.6281C89.2 37.626 89.2 37.6239 89.2 37.6218C89.2 37.6197 89.2 37.6176 89.2 37.6155C89.2 37.6134 89.2 37.6113 89.2 37.6092C89.2 37.6071 89.2 37.605 89.2 37.6029C89.2 37.6008 89.2 37.5987 89.2 37.5966C89.2 37.5945 89.2 37.5924 89.2 37.5903C89.2 37.5882 89.2 37.5861 89.2 37.584C89.2 37.5819 89.2 37.5798 89.2 37.5777C89.2 37.5756 89.2 37.5735 89.2 37.5714C89.2 37.5693 89.2 37.5672 89.2 37.5652C89.2 37.5631 89.2 37.561 89.2 37.5589C89.2 37.5568 89.2 37.5547 89.2 37.5526C89.2 37.5505 89.2 37.5484 89.2 37.5463C89.2 37.5442 89.2 37.5421 89.2 37.54C89.2 37.5379 89.2 37.5358 89.2 37.5337C89.2 37.5316 89.2 37.5295 89.2 37.5275C89.2 37.5254 89.2 37.5233 89.2 37.5212C89.2 37.5191 89.2 37.517 89.2 37.5149C89.2 37.5128 89.2 37.5107 89.2 37.5086C89.2 37.5065 89.2 37.5044 89.2 37.5023C89.2 37.5003 89.2 37.4982 89.2 37.4961C89.2 37.494 89.2 37.4919 89.2 37.4898C89.2 37.4877 89.2 37.4856 89.2 37.4835C89.2 37.4814 89.2 37.4793 89.2 37.4773C89.2 37.4752 89.2 37.4731 89.2 37.471C89.2 37.4689 89.2 37.4668 89.2 37.4647C89.2 37.4626 89.2 37.4605 89.2 37.4585C89.2 37.4564 89.2 37.4543 89.2 37.4522C89.2 37.4501 89.2 37.448 89.2 37.4459C89.2 37.4438 89.2 37.4417 89.2 37.4397C89.2 37.4376 89.2 37.4355 89.2 37.4334C89.2 37.4313 89.2 37.4292 89.2 37.4271C89.2 37.425 89.2 37.423 89.2 37.4209C89.2 37.4188 89.2 37.4167 89.2 37.4146C89.2 37.4125 89.2 37.4104 89.2 37.4084C89.2 37.4063 89.2 37.4042 89.2 37.4021C89.2 37.4 89.2 37.3979 89.2 37.3958C89.2 37.3938 89.2 37.3917 89.2 37.3896C89.2 37.3875 89.2 37.3854 89.2 37.3833C89.2 37.3812 89.2 37.3792 89.2 37.3771C89.2 37.375 89.2 37.3729 89.2 37.3708C89.2 37.3687 89.2 37.3667 89.2 37.3646C89.2 37.3625 89.2 37.3604 89.2 37.3583C89.2 37.3562 89.2 37.3542 89.2 37.3521C89.2 37.35 89.2 37.3479 89.2 37.3458C89.2 37.3438 89.2 37.3417 89.2 37.3396C89.2 37.3375 89.2 37.3354 89.2 37.3333C89.2 37.3313 89.2 37.3292 89.2 37.3271C89.2 37.325 89.2 37.3229 89.2 37.3209C89.2 37.3188 89.2 37.3167 89.2 37.3146C89.2 37.3125 89.2 37.3105 89.2 37.3084C89.2 37.3063 89.2 37.3042 89.2 37.3021C89.2 37.3001 89.2 37.298 89.2 37.2959C89.2 37.2938 89.2 37.2917 89.2 37.2897C89.2 37.2876 89.2 37.2855 89.2 37.2834C89.2 37.2813 89.2 37.2793 89.2 37.2772C89.2 37.2751 89.2 37.273 89.2 37.271C89.2 37.2689 89.2 37.2668 89.2 37.2647C89.2 37.2627 89.2 37.2606 89.2 37.2585C89.2 37.2564 89.2 37.2543 89.2 37.2523C89.2 37.2502 89.2 37.2481 89.2 37.246C89.2 37.244 89.2 37.2419 89.2 37.2398C89.2 37.2377 89.2 37.2357 89.2 37.2336C89.2 37.2315 89.2 37.2294 89.2 37.2274C89.2 37.2253 89.2 37.2232 89.2 37.2211C89.2 37.2191 89.2 37.217 89.2 37.2149C89.2 37.2128 89.2 37.2108 89.2 37.2087C89.2 37.2066 89.2 37.2046 89.2 37.2025C89.2 37.2004 89.2 37.1983 89.2 37.1963C89.2 37.1942 89.2 37.1921 89.2 37.19C89.2 37.188 89.2 37.1859 89.2 37.1838C89.2 37.1817 89.2 37.1797 89.2 37.1776C89.2 37.1755 89.2 37.1735 89.2 37.1714C89.2 37.1693 89.2 37.1673 89.2 37.1652C89.2 37.1631 89.2 37.161 89.2 37.159C89.2 37.1569 89.2 37.1548 89.2 37.1528C89.2 37.1507 89.2 37.1486 89.2 37.1465C89.2 37.1445 89.2 37.1424 89.2 37.1403C89.2 37.1383 89.2 37.1362 89.2 37.1341C89.2 37.1321 89.2 37.13 89.2 37.1279C89.2 37.1259 89.2 37.1238 89.2 37.1217C89.2 37.1196 89.2 37.1176 89.2 37.1155C89.2 37.1134 89.2 37.1114 89.2 37.1093C89.2 37.1072 89.2 37.1052 89.2 37.1031C89.2 37.101 89.2 37.099 89.2 37.0969C89.2 37.0948 89.2 37.0928 89.2 37.0907C89.2 37.0886 89.2 37.0866 89.2 37.0845C89.2 37.0824 89.2 37.0804 89.2 37.0783C89.2 37.0762 89.2 37.0742 89.2 37.0721C89.2 37.07 89.2 37.068 89.2 37.0659C89.2 37.0639 89.2 37.0618 89.2 37.0597C89.2 37.0577 89.2 37.0556 89.2 37.0535C89.2 37.0515 89.2 37.0494 89.2 37.0473C89.2 37.0453 89.2 37.0432 89.2 37.0411C89.2 37.0391 89.2 37.037 89.2 37.035C89.2 37.0329 89.2 37.0308 89.2 37.0288C89.2 37.0267 89.2 37.0246 89.2 37.0226C89.2 37.0205 89.2 37.0185 89.2 37.0164C89.2 37.0143 89.2 37.0123 89.2 37.0102C89.2 37.0081 89.2 37.0061 89.2 37.004C89.2 37.002 89.2 36.9999 89.2 36.9978C89.2 36.9958 89.2 36.9937 89.2 36.9917C89.2 36.9896 89.2 36.9875 89.2 36.9855C89.2 36.9834 89.2 36.9814 89.2 36.9793C89.2 36.9772 89.2 36.9752 89.2 36.9731C89.2 36.9711 89.2 36.969 89.2 36.9669C89.2 36.9649 89.2 36.9628 89.2 36.9608C89.2 36.9587 89.2 36.9567 89.2 36.9546C89.2 36.9525 89.2 36.9505 89.2 36.9484C89.2 36.9464 89.2 36.9443 89.2 36.9423C89.2 36.9402 89.2 36.9381 89.2 36.9361C89.2 36.934 89.2 36.932 89.2 36.9299C89.2 36.9279 89.2 36.9258 89.2 36.9237C89.2 36.9217 89.2 36.9196 89.2 36.9176C89.2 36.9155 89.2 36.9135 89.2 36.9114C89.2 36.9093 89.2 36.9073 89.2 36.9052C89.2 36.9032 89.2 36.9011 89.2 36.8991C89.2 36.897 89.2 36.895 89.2 36.8929C89.2 36.8909 89.2 36.8888 89.2 36.8867C89.2 36.8847 89.2 36.8826 89.2 36.8806C89.2 36.8785 89.2 36.8765 89.2 36.8744C89.2 36.8724 89.2 36.8703 89.2 36.8683C89.2 36.8662 89.2 36.8642 89.2 36.8621C89.2 36.8601 89.2 36.858 89.2 36.856C89.2 36.8539 89.2 36.8519 89.2 36.8498C89.2 36.8477 89.2 36.8457 89.2 36.8437C89.2 36.8416 89.2 36.8395 89.2 36.8375C89.2 36.8354 89.2 36.8334 89.2 36.8313C89.2 36.8293 89.2 36.8272 89.2 36.8252C89.2 36.8231 89.2 36.8211 89.2 36.819C89.2 36.817 89.2 36.8149 89.2 36.8129C89.2 36.8108 89.2 36.8088 89.2 36.8067C89.2 36.8047 89.2 36.8027 89.2 36.8006C89.2 36.7986 89.2 36.7965 89.2 36.7945C89.2 36.7924 89.2 36.7904 89.2 36.7883C89.2 36.7863 89.2 36.7842 89.2 36.7822C89.2 36.7801 89.2 36.7781 89.2 36.776C89.2 36.774 89.2 36.7719 89.2 36.7699C89.2 36.7678 89.2 36.7658 89.2 36.7637C89.2 36.7617 89.2 36.7597 89.2 36.7576C89.2 36.7556 89.2 36.7535 89.2 36.7515C89.2 36.7494 89.2 36.7474 89.2 36.7453C89.2 36.7433 89.2 36.7412 89.2 36.7392C89.2 36.7372 89.2 36.7351 89.2 36.7331C89.2 36.731 89.2 36.729 89.2 36.7269C89.2 36.7249 89.2 36.7229 89.2 36.7208C89.2 36.7188 89.2 36.7167 89.2 36.7147C89.2 36.7126 89.2 36.7106 89.2 36.7085C89.2 36.7065 89.2 36.7045 89.2 36.7024C89.2 36.7004 89.2 36.6983 89.2 36.6963C89.2 36.6943 89.2 36.6922 89.2 36.6902C89.2 36.6881 89.2 36.6861 89.2 36.684C89.2 36.682 89.2 36.68 89.2 36.6779C89.2 36.6759 89.2 36.6738 89.2 36.6718C89.2 36.6698 89.2 36.6677 89.2 36.6657C89.2 36.6636 89.2 36.6616 89.2 36.6596C89.2 36.6575 89.2 36.6555 89.2 36.6534C89.2 36.6514 89.2 36.6494 89.2 36.6473C89.2 36.6453 89.2 36.6432 89.2 36.6412C89.2 36.6392 89.2 36.6371 89.2 36.6351C89.2 36.6331 89.2 36.631 89.2 36.629C89.2 36.6269 89.2 36.6249 89.2 36.6229C89.2 36.6208 89.2 36.6188 89.2 36.6168C89.2 36.6147 89.2 36.6127 89.2 36.6106C89.2 36.6086 89.2 36.6066 89.2 36.6045C89.2 36.6025 89.2 36.6005 89.2 36.5984C89.2 36.5964 89.2 36.5944 89.2 36.5923C89.2 36.5903 89.2 36.5882 89.2 36.5862C89.2 36.5842 89.2 36.5821 89.2 36.5801C89.2 36.5781 89.2 36.576 89.2 36.574C89.2 36.572 89.2 36.5699 89.2 36.5679C89.2 36.5659 89.2 36.5638 89.2 36.5618C89.2 36.5598 89.2 36.5577 89.2 36.5557C89.2 36.5537 89.2 36.5516 89.2 36.5496C89.2 36.5476 89.2 36.5455 89.2 36.5435C89.2 36.5415 89.2 36.5394 89.2 36.5374C89.2 36.5354 89.2 36.5333 89.2 36.5313C89.2 36.5293 89.2 36.5272 89.2 36.5252C89.2 36.5232 89.2 36.5211 89.2 36.5191C89.2 36.5171 89.2 36.5151 89.2 36.513C89.2 36.511 89.2 36.509 89.2 36.5069C89.2 36.5049 89.2 36.5029 89.2 36.5008C89.2 36.4988 89.2 36.4968 89.2 36.4948C89.2 36.4927 89.2 36.4907 89.2 36.4887C89.2 36.4866 89.2 36.4846 89.2 36.4826C89.2 36.4806 89.2 36.4785 89.2 36.4765C89.2 36.4745 89.2 36.4724 89.2 36.4704C89.2 36.4684 89.2 36.4664 89.2 36.4643C89.2 36.4623 89.2 36.4603 89.2 36.4583C89.2 36.4562 89.2 36.4542 89.2 36.4522C89.2 36.4501 89.2 36.4481 89.2 36.4461C89.2 36.4441 89.2 36.442 89.2 36.44C89.2 36.438 89.2 36.436 89.2 36.4339C89.2 36.4319 89.2 36.4299 89.2 36.4279C89.2 36.4258 89.2 36.4238 89.2 36.4218C89.2 36.4198 89.2 36.4177 89.2 36.4157C89.2 36.4137 89.2 36.4117 89.2 36.4096C89.2 36.4076 89.2 36.4056 89.2 36.4036C89.2 36.4015 89.2 36.3995 89.2 36.3975C89.2 36.3955 89.2 36.3934 89.2 36.3914C89.2 36.3894 89.2 36.3874 89.2 36.3854C89.2 36.3833 89.2 36.3813 89.2 36.3793C89.2 36.3773 89.2 36.3752 89.2 36.3732C89.2 36.3712 89.2 36.3692 89.2 36.3672C89.2 36.3651 89.2 36.3631 89.2 36.3611C89.2 36.3591 89.2 36.3571 89.2 36.355C89.2 36.353 89.2 36.351 89.2 36.349C89.2 36.3469 89.2 36.3449 89.2 36.3429C89.2 36.3409 89.2 36.3389 89.2 36.3369C89.2 36.3348 89.2 36.3328 89.2 36.3308C89.2 36.3288 89.2 36.3268 89.2 36.3247C89.2 36.3227 89.2 36.3207 89.2 36.3187C89.2 36.3167 89.2 36.3146 89.2 36.3126C89.2 36.3106 89.2 36.3086 89.2 36.3066C89.2 36.3046 89.2 36.3025 89.2 36.3005C89.2 36.2985 89.2 36.2965 89.2 36.2945C89.2 36.2924 89.2 36.2904 89.2 36.2884C89.2 36.2864 89.2 36.2844 89.2 36.2824C89.2 36.2804 89.2 36.2783 89.2 36.2763C89.2 36.2743 89.2 36.2723 89.2 36.2703C89.2 36.2683 89.2 36.2663 89.2 36.2642C89.2 36.2622 89.2 36.2602 89.2 36.2582C89.2 36.2562 89.2 36.2542 89.2 36.2521C89.2 36.2501 89.2 36.2481 89.2 36.2461C89.2 36.2441 89.2 36.2421 89.2 36.2401C89.2 36.2381 89.2 36.236 89.2 36.234C89.2 36.232 89.2 36.23 89.2 36.228C89.2 36.226 89.2 36.224 89.2 36.2219C89.2 36.2199 89.2 36.2179 89.2 36.2159C89.2 36.2139 89.2 36.2119 89.2 36.2099C89.2 36.2079 89.2 36.2059 89.2 36.2038C89.2 36.2018 89.2 36.1998 89.2 36.1978C89.2 36.1958 89.2 36.1938 89.2 36.1918C89.2 36.1898 89.2 36.1878 89.2 36.1857C89.2 36.1837 89.2 36.1817 89.2 36.1797C89.2 36.1777 89.2 36.1757 89.2 36.1737C89.2 36.1717 89.2 36.1697 89.2 36.1677C89.2 36.1657 89.2 36.1636 89.2 36.1616C89.2 36.1596 89.2 36.1576 89.2 36.1556C89.2 36.1536 89.2 36.1516 89.2 36.1496C89.2 36.1476 89.2 36.1456 89.2 36.1436C89.2 36.1416 89.2 36.1395 89.2 36.1375C89.2 36.1355 89.2 36.1335 89.2 36.1315C89.2 36.1295 89.2 36.1275 89.2 36.1255C89.2 36.1235 89.2 36.1215 89.2 36.1195C89.2 36.1175 89.2 36.1155 89.2 36.1135C89.2 36.1115 89.2 36.1095 89.2 36.1075C89.2 36.1055 89.2 36.1034 89.2 36.1014C89.2 36.0994 89.2 36.0974 89.2 36.0954C89.2 36.0934 89.2 36.0914 89.2 36.0894C89.2 36.0874 89.2 36.0854 89.2 36.0834C89.2 36.0814 89.2 36.0794 89.2 36.0774C89.2 36.0754 89.2 36.0734 89.2 36.0714C89.2 36.0694 89.2 36.0674 89.2 36.0654C89.2 36.0634 89.2 36.0614 89.2 36.0594C89.2 36.0574 89.2 36.0554 89.2 36.0534C89.2 36.0514 89.2 36.0494 89.2 36.0474C89.2 36.0454 89.2 36.0434 89.2 36.0414C89.2 36.0394 89.2 36.0374 89.2 36.0354C89.2 36.0334 89.2 36.0314 89.2 36.0294C89.2 36.0274 89.2 36.0254 89.2 36.0234C89.2 36.0214 89.2 36.0194 89.2 36.0174C89.2 36.0154 89.2 36.0134 89.2 36.0114C89.2 36.0094 89.2 36.0074 89.2 36.0054C89.2 36.0034 89.2 36.0014 89.2 35.9994C89.2 35.9974 89.2 35.9954 89.2 35.9934C89.2 35.9914 89.2 35.9894 89.2 35.9874C89.2 35.9854 89.2 35.9834 89.2 35.9814C89.2 35.9794 89.2 35.9774 89.2 35.9754C89.2 35.9734 89.2 35.9714 89.2 35.9694C89.2 35.9674 89.2 35.9654 89.2 35.9634C89.2 35.9614 89.2 35.9594 89.2 35.9574C89.2 35.9554 89.2 35.9534 89.2 35.9515C89.2 35.9495 89.2 35.9475 89.2 35.9455C89.2 35.9435 89.2 35.9415 89.2 35.9395C89.2 35.9375 89.2 35.9355 89.2 35.9335C89.2 35.9315 89.2 35.9295 89.2 35.9275C89.2 35.9255 89.2 35.9235 89.2 35.9215C89.2 35.9195 89.2 35.9176 89.2 35.9156C89.2 35.9136 89.2 35.9116 89.2 35.9096C89.2 35.9076 89.2 35.9056 89.2 35.9036C89.2 35.9016 89.2 35.8996 89.2 35.8976C89.2 35.8956 89.2 35.8936 89.2 35.8917C89.2 35.8897 89.2 35.8877 89.2 35.8857C89.2 35.8837 89.2 35.8817 89.2 35.8797C89.2 35.8777 89.2 35.8757 89.2 35.8737C89.2 35.8717 89.2 35.8698 89.2 35.8678C89.2 35.8658 89.2 35.8638 89.2 35.8618C89.2 35.8598 89.2 35.8578 89.2 35.8558C89.2 35.8538 89.2 35.8519 89.2 35.8499C89.2 35.8479 89.2 35.8459 89.2 35.8439C89.2 35.8419 89.2 35.8399 89.2 35.8379C89.2 35.836 89.2 35.834 89.2 35.832C89.2 35.83 89.2 35.828 89.2 35.826C89.2 35.824 89.2 35.822 89.2 35.8201C89.2 35.8181 89.2 35.8161 89.2 35.8141C89.2 35.8121 89.2 35.8101 89.2 35.8081C89.2 35.8062 89.2 35.8042 89.2 35.8022C89.2 35.8002 89.2 35.7982 89.2 35.7962C89.2 35.7942 89.2 35.7923 89.2 35.7903C89.2 35.7883 89.2 35.7863 89.2 35.7843C89.2 35.7823 89.2 35.7803 89.2 35.7784C89.2 35.7764 89.2 35.7744 89.2 35.7724C89.2 35.7704 89.2 35.7684 89.2 35.7665C89.2 35.7645 89.2 35.7625 89.2 35.7605C89.2 35.7585 89.2 35.7565 89.2 35.7546C89.2 35.7526 89.2 35.7506 89.2 35.7486C89.2 35.7466 89.2 35.7447 89.2 35.7427C89.2 35.7407 89.2 35.7387 89.2 35.7367C89.2 35.7347 89.2 35.7328 89.2 35.7308C89.2 35.7288 89.2 35.7268 89.2 35.7248C89.2 35.7229 89.2 35.7209 89.2 35.7189C89.2 35.7169 89.2 35.7149 89.2 35.713C89.2 35.711 89.2 35.709 89.2 35.707C89.2 35.705 89.2 35.7031 89.2 35.7011C89.2 35.6991 89.2 35.6971 89.2 35.6951C89.2 35.6932 89.2 35.6912 89.2 35.6892C89.2 35.6872 89.2 35.6852 89.2 35.6833C89.2 35.6813 89.2 35.6793 89.2 35.6773C89.2 35.6754 89.2 35.6734 89.2 35.6714C89.2 35.6694 89.2 35.6675 89.2 35.6655C89.2 35.6635 89.2 35.6615 89.2 35.6595C89.2 35.6576 89.2 35.6556 89.2 35.6536C89.2 35.6516 89.2 35.6497 89.2 35.6477C89.2 35.6457 89.2 35.6437 89.2 35.6418C89.2 35.6398 89.2 35.6378 89.2 35.6358C89.2 35.6339 89.2 35.6319 89.2 35.6299C89.2 35.6279 89.2 35.626 89.2 35.624C89.2 35.622 89.2 35.62 89.2 35.6181C89.2 35.6161 89.2 35.6141 89.2 35.6122C89.2 35.6102 89.2 35.6082 89.2 35.6062C89.2 35.6043 89.2 35.6023 89.2 35.6003C89.2 35.5983 89.2 35.5964 89.2 35.5944C89.2 35.5924 89.2 35.5905 89.2 35.5885C89.2 35.5865 89.2 35.5845 89.2 35.5826C89.2 35.5806 89.2 35.5786 89.2 35.5767C89.2 35.5747 89.2 35.5727 89.2 35.5707C89.2 35.5688 89.2 35.5668 89.2 35.5648C89.2 35.5629 89.2 35.5609 89.2 35.5589C89.2 35.5569 89.2 35.555 89.2 35.553C89.2 35.551 89.2 35.5491 89.2 35.5471C89.2 35.5451 89.2 35.5432 89.2 35.5412C89.2 35.5392 89.2 35.5373 89.2 35.5353C89.2 35.5333 89.2 35.5313 89.2 35.5294C89.2 35.5274 89.2 35.5254 89.2 35.5235C89.2 35.5215 89.2 35.5195 89.2 35.5176C89.2 35.5156 89.2 35.5136 89.2 35.5117C89.2 35.5097 89.2 35.5077 89.2 35.5058C89.2 35.5038 89.2 35.5018 89.2 35.4999C89.2 35.4979 89.2 35.4959 89.2 35.494C89.2 35.492 89.2 35.4901 89.2 35.4881C89.2 35.4861 89.2 35.4842 89.2 35.4822C89.2 35.4802 89.2 35.4783 89.2 35.4763C89.2 35.4743 89.2 35.4724 89.2 35.4704C89.2 35.4684 89.2 35.4665 89.2 35.4645C89.2 35.4625 89.2 35.4606 89.2 35.4586C89.2 35.4566 89.2 35.4547 89.2 35.4527C89.2 35.4508 89.2 35.4488 89.2 35.4468C89.2 35.4449 89.2 35.4429 89.2 35.4409C89.2 35.439 89.2 35.437 89.2 35.4351C89.2 35.4331 89.2 35.4311 89.2 35.4292C89.2 35.4272 89.2 35.4253 89.2 35.4233C89.2 35.4213 89.2 35.4194 89.2 35.4174C89.2 35.4155 89.2 35.4135 89.2 35.4115C89.2 35.4096 89.2 35.4076 89.2 35.4056C89.2 35.4037 89.2 35.4017 89.2 35.3998C89.2 35.3978 89.2 35.3959 89.2 35.3939C89.2 35.3919 89.2 35.39 89.2 35.388C89.2 35.3861 89.2 35.3841 89.2 35.3821C89.2 35.3802 89.2 35.3782 89.2 35.3763C89.2 35.3743 89.2 35.3724 89.2 35.3704C89.2 35.3684 89.2 35.3665 89.2 35.3645C89.2 35.3626 89.2 35.3606 89.2 35.3587C89.2 35.3567 89.2 35.3547 89.2 35.3528C89.2 35.3508 89.2 35.3489 89.2 35.3469C89.2 35.345 89.2 35.343 89.2 35.341C89.2 35.3391 89.2 35.3371 89.2 35.3352C89.2 35.3332 89.2 35.3313 89.2 35.3293C89.2 35.3274 89.2 35.3254 89.2 35.3234C89.2 35.3215 89.2 35.3195 89.2 35.3176C89.2 35.3156 89.2 35.3137 89.2 35.3117C89.2 35.3098 89.2 35.3078 89.2 35.3059C89.2 35.3039 89.2 35.3019 89.2 35.3H85.2ZM85.2 38.45C85.2 45.0595 83.8134 51.2655 81.0437 57.0913L84.6563 58.8087C87.6866 52.4345 89.2 45.6405 89.2 38.45H85.2ZM81.0376 57.1042C78.351 62.8614 74.6089 67.9502 69.7959 72.3781L72.5041 75.3219C77.6911 70.5498 81.749 65.0386 84.6624 58.7958L81.0376 57.1042ZM69.7972 72.3769C65.0856 76.7039 59.6493 80.0742 53.4723 82.4871L54.9277 86.2129C61.5507 83.6258 67.4144 79.9961 72.5028 75.3231L69.7972 72.3769ZM53.4698 82.4881C48.5899 84.4018 43.6869 85.35 38.75 85.35V89.35C44.2131 89.35 49.6102 88.2982 54.9302 86.2119L53.4698 82.4881ZM36.2 84.1C39.5904 84.1 42.928 83.6228 46.2076 82.6707L45.0924 78.8293C42.172 79.6772 39.2097 80.1 36.2 80.1V84.1ZM46.1915 82.6753C49.4868 81.7485 52.588 80.6124 55.4922 79.264L53.8078 75.636C51.112 76.8876 48.2132 77.9515 45.1085 78.8247L46.1915 82.6753ZM55.5166 79.2525C60.8816 76.6732 65.9747 73.3266 70.7962 69.2231L68.2038 66.1769C63.6254 70.0734 58.8184 73.2268 53.7834 75.6475L55.5166 79.2525ZM70.7804 69.2364C75.754 65.0917 79.8098 60.312 82.9324 54.8994L79.4676 52.9006C76.5902 57.888 72.846 62.3083 68.2196 66.1636L70.7804 69.2364ZM82.9405 54.8852C86.1079 49.2894 87.7 43.3007 87.7 36.95H83.7C83.7 42.5993 82.2921 47.9106 79.4595 52.9148L82.9405 54.8852ZM87.7 36.95C87.7 36.0674 87.6449 35.2221 87.5299 34.4171L83.5701 34.9828C83.6551 35.5779 83.7 36.2326 83.7 36.95H87.7ZM87.55 34.7C87.55 33.9044 87.4931 33.1099 87.3799 32.3172L83.4201 32.8828C83.5069 33.4901 83.55 34.0956 83.55 34.7H87.55ZM87.389 32.3906C86.9411 28.1354 85.1884 24.46 82.1642 21.4358L79.3358 24.2642C81.7116 26.64 83.0589 29.4646 83.411 32.8094L87.389 32.3906ZM82.1906 21.4627C79.3738 18.5376 75.9691 16.3283 72.0078 14.8294L70.5922 18.5706C74.0309 19.8717 76.9262 21.7624 79.3094 24.2373L82.1906 21.4627ZM72.0692 14.8538C68.2389 13.2579 64.3282 12.45 60.35 12.45V16.45C63.7718 16.45 67.1611 17.1421 70.5308 18.5462L72.0692 14.8538ZM60.35 12.45C54.9411 12.45 49.6356 13.2827 44.4405 14.9451L45.6596 18.7548C50.4644 17.2173 55.3589 16.45 60.35 16.45V12.45ZM44.4404 14.9451C39.2139 16.6176 34.4959 19.132 30.3006 22.4883L32.7994 25.6117C36.6041 22.568 40.8861 20.2824 45.6596 18.7548L44.4404 14.9451ZM30.3249 22.4692C26.0736 25.7639 22.6869 29.954 20.1611 35.0056L23.7389 36.7944C26.0131 32.246 29.0264 28.5361 32.7751 25.6308L30.3249 22.4692ZM20.1611 35.0056C19.3722 36.5835 18.7276 38.4894 18.2044 40.6868L22.0956 41.6132C22.5724 39.6106 23.1278 38.0165 23.7389 36.7944L20.1611 35.0056ZM18.1853 40.7758C17.7708 42.9518 17.55 44.884 17.55 46.55H21.55C21.55 45.216 21.7292 43.5482 22.1147 41.5242L18.1853 40.7758ZM17.55 46.55C17.55 47.5107 17.6694 48.4327 17.9526 49.2825L21.7474 48.0175C21.6306 47.6673 21.55 47.1893 21.55 46.55H17.55ZM21.6176 49.5858C23.3336 46.3445 25.6913 42.9671 28.7155 39.455L25.6845 36.8449C22.5087 40.5329 19.9664 44.1555 18.0824 47.7142L21.6176 49.5858ZM28.7155 39.455C31.7158 35.9709 35.2102 32.7167 39.2062 29.6953L36.7938 26.5047C32.5898 29.6833 28.8842 33.1291 25.6845 36.8449L28.7155 39.455ZM39.1877 29.7091C43.2566 26.7059 47.5599 24.2894 52.0996 22.4542L50.6004 18.7458C45.7401 20.7106 41.1434 23.2941 36.8123 26.4908L39.1877 29.7091ZM52.0861 22.4596C56.6547 20.6512 61.3552 19.75 66.2 19.75V15.75C60.8448 15.75 55.6453 16.7488 50.6139 18.7404L52.0861 22.4596ZM66.2 19.75C66.5516 19.75 66.8296 19.7639 67.0428 19.7861C67.2629 19.809 67.3721 19.8367 67.4034 19.8465C67.4536 19.8621 67.2875 19.8235 67.0821 19.6309C66.9687 19.5246 66.8407 19.3683 66.7435 19.1557C66.6445 18.9391 66.6 18.7129 66.6 18.5H70.6C70.6 16.8464 69.1822 16.2115 68.5966 16.0285C67.9 15.8109 67.0538 15.75 66.2 15.75V19.75ZM66.6 18.5C66.6 18.3181 66.6356 18.1189 66.7195 17.9231C66.8025 17.7296 66.9139 17.5827 67.017 17.4795C67.2052 17.2913 67.3556 17.2566 67.2925 17.2776C67.2448 17.2936 67.1125 17.328 66.8604 17.356C66.6154 17.3832 66.2983 17.4 65.9 17.4V21.4C66.8584 21.4 67.7948 21.3266 68.5575 21.0724C69.2687 20.8353 70.6 20.1285 70.6 18.5H66.6ZM65.9 17.4C61.3107 17.4 56.5944 18.7123 51.7749 21.2268L53.6251 24.7732C58.0056 22.4877 62.0893 21.4 65.9 21.4V17.4ZM51.7898 21.2191C47.1264 23.6026 42.6398 26.7008 38.3279 30.4993L40.9721 33.5007C45.0602 29.8992 49.2736 26.9974 53.6102 24.7809L51.7898 21.2191ZM38.3279 30.4993C34.0419 34.2751 30.2552 38.2646 26.9734 42.4695L30.1266 44.9305C33.2448 40.9354 36.8581 37.1249 40.9721 33.5007L38.3279 30.4993ZM26.9883 42.4506C23.7178 46.5387 21.2607 50.3874 19.6702 53.9927L23.3298 55.6073C24.7393 52.4126 26.9823 48.8612 30.1117 44.9494L26.9883 42.4506ZM19.7283 55.728C21.0142 58.1829 23.1615 60.4475 26.0095 62.5571L28.3905 59.3429C25.8385 57.4525 24.1858 55.6171 23.2717 53.872L19.7283 55.728ZM26.0375 62.5775C29.0065 64.6982 32.3319 66.3838 36.0014 67.6419L37.2986 63.8581C33.9681 62.7162 30.9935 61.2018 28.3625 59.3225L26.0375 62.5775ZM36.0175 67.6474C39.8246 68.9164 43.531 69.4639 47.121 69.2463L46.879 65.2537C43.869 65.4361 40.6754 64.9836 37.2825 63.8526L36.0175 67.6474ZM47 69.25C47.1879 69.25 47.3147 69.2597 47.3919 69.27C47.476 69.2812 47.4588 69.2876 47.3822 69.257C47.3099 69.228 47.0852 69.1263 46.8698 68.8679C46.6249 68.574 46.5 68.2055 46.5 67.85H50.5C50.5 67.2945 50.3126 66.751 49.9427 66.3071C49.6023 65.8987 49.1901 65.672 48.8678 65.543C48.2579 65.2991 47.5744 65.25 47 65.25V69.25ZM46.5 67.85C46.5 67.445 46.6546 67.0847 46.8701 66.83C47.0551 66.6113 47.2332 66.5289 47.2599 66.5168C47.295 66.5008 47.2723 66.5159 47.1569 66.5404C47.0472 66.5637 46.8879 66.5883 46.6689 66.6082L47.0311 70.5918C47.6515 70.5354 48.3315 70.4235 48.9151 70.1582C49.4914 69.8963 50.5 69.2043 50.5 67.85H46.5ZM46.5672 66.6201C45.8802 66.7182 45.1419 66.8167 44.3519 66.9154L44.8481 70.8846C45.6581 70.7833 46.4198 70.6818 47.1328 70.5799L46.5672 66.6201ZM44.6 66.9C44.5984 66.9 44.5969 66.9 44.5953 66.9C44.5938 66.9 44.5922 66.9 44.5906 66.9C44.5891 66.9 44.5875 66.9 44.5859 66.9C44.5844 66.9 44.5828 66.9 44.5813 66.9C44.5797 66.9 44.5781 66.9 44.5766 66.9C44.575 66.9 44.5735 66.9 44.5719 66.9C44.5703 66.9 44.5688 66.9 44.5672 66.9C44.5657 66.9 44.5641 66.9 44.5625 66.9C44.561 66.9 44.5594 66.9 44.5579 66.9C44.5563 66.9 44.5547 66.9 44.5532 66.9C44.5516 66.9 44.5501 66.9 44.5485 66.9C44.547 66.9 44.5454 66.9 44.5438 66.9C44.5423 66.9 44.5407 66.9 44.5392 66.9C44.5376 66.9 44.536 66.9 44.5345 66.9C44.5329 66.9 44.5314 66.9 44.5298 66.9C44.5283 66.9 44.5267 66.9 44.5251 66.9C44.5236 66.9 44.522 66.9 44.5205 66.9C44.5189 66.9 44.5174 66.9 44.5158 66.9C44.5143 66.9 44.5127 66.9 44.5111 66.9C44.5096 66.9 44.508 66.9 44.5065 66.9C44.5049 66.9 44.5034 66.9 44.5018 66.9C44.5003 66.9 44.4987 66.9 44.4972 66.9C44.4956 66.9 44.494 66.9 44.4925 66.9C44.4909 66.9 44.4894 66.9 44.4878 66.9C44.4863 66.9 44.4847 66.9 44.4832 66.9C44.4816 66.9 44.4801 66.9 44.4785 66.9C44.477 66.9 44.4754 66.9 44.4739 66.9C44.4723 66.9 44.4708 66.9 44.4692 66.9C44.4676 66.9 44.4661 66.9 44.4645 66.9C44.463 66.9 44.4614 66.9 44.4599 66.9C44.4583 66.9 44.4568 66.9 44.4552 66.9C44.4537 66.9 44.4521 66.9 44.4506 66.9C44.449 66.9 44.4475 66.9 44.4459 66.9C44.4444 66.9 44.4428 66.9 44.4413 66.9C44.4397 66.9 44.4382 66.9 44.4366 66.9C44.4351 66.9 44.4335 66.9 44.432 66.9C44.4304 66.9 44.4289 66.9 44.4273 66.9C44.4258 66.9 44.4243 66.9 44.4227 66.9C44.4212 66.9 44.4196 66.9 44.4181 66.9C44.4165 66.9 44.415 66.9 44.4134 66.9C44.4119 66.9 44.4103 66.9 44.4088 66.9C44.4072 66.9 44.4057 66.9 44.4041 66.9C44.4026 66.9 44.401 66.9 44.3995 66.9C44.3979 66.9 44.3964 66.9 44.3949 66.9C44.3933 66.9 44.3918 66.9 44.3902 66.9C44.3887 66.9 44.3871 66.9 44.3856 66.9C44.384 66.9 44.3825 66.9 44.381 66.9C44.3794 66.9 44.3779 66.9 44.3763 66.9C44.3748 66.9 44.3732 66.9 44.3717 66.9C44.3701 66.9 44.3686 66.9 44.3671 66.9C44.3655 66.9 44.364 66.9 44.3624 66.9C44.3609 66.9 44.3593 66.9 44.3578 66.9C44.3563 66.9 44.3547 66.9 44.3532 66.9C44.3516 66.9 44.3501 66.9 44.3485 66.9C44.347 66.9 44.3455 66.9 44.3439 66.9C44.3424 66.9 44.3408 66.9 44.3393 66.9C44.3378 66.9 44.3362 66.9 44.3347 66.9C44.3331 66.9 44.3316 66.9 44.3301 66.9C44.3285 66.9 44.327 66.9 44.3254 66.9C44.3239 66.9 44.3223 66.9 44.3208 66.9C44.3193 66.9 44.3177 66.9 44.3162 66.9C44.3147 66.9 44.3131 66.9 44.3116 66.9C44.31 66.9 44.3085 66.9 44.307 66.9C44.3054 66.9 44.3039 66.9 44.3023 66.9C44.3008 66.9 44.2993 66.9 44.2977 66.9C44.2962 66.9 44.2947 66.9 44.2931 66.9C44.2916 66.9 44.29 66.9 44.2885 66.9C44.287 66.9 44.2854 66.9 44.2839 66.9C44.2824 66.9 44.2808 66.9 44.2793 66.9C44.2778 66.9 44.2762 66.9 44.2747 66.9C44.2731 66.9 44.2716 66.9 44.2701 66.9C44.2685 66.9 44.267 66.9 44.2655 66.9C44.2639 66.9 44.2624 66.9 44.2609 66.9C44.2593 66.9 44.2578 66.9 44.2563 66.9C44.2547 66.9 44.2532 66.9 44.2517 66.9C44.2501 66.9 44.2486 66.9 44.2471 66.9C44.2455 66.9 44.244 66.9 44.2425 66.9C44.2409 66.9 44.2394 66.9 44.2379 66.9C44.2363 66.9 44.2348 66.9 44.2333 66.9C44.2317 66.9 44.2302 66.9 44.2287 66.9C44.2271 66.9 44.2256 66.9 44.2241 66.9C44.2225 66.9 44.221 66.9 44.2195 66.9C44.2179 66.9 44.2164 66.9 44.2149 66.9C44.2133 66.9 44.2118 66.9 44.2103 66.9C44.2088 66.9 44.2072 66.9 44.2057 66.9C44.2042 66.9 44.2026 66.9 44.2011 66.9C44.1996 66.9 44.198 66.9 44.1965 66.9C44.195 66.9 44.1935 66.9 44.1919 66.9C44.1904 66.9 44.1889 66.9 44.1873 66.9C44.1858 66.9 44.1843 66.9 44.1828 66.9C44.1812 66.9 44.1797 66.9 44.1782 66.9C44.1767 66.9 44.1751 66.9 44.1736 66.9C44.1721 66.9 44.1705 66.9 44.169 66.9C44.1675 66.9 44.166 66.9 44.1644 66.9C44.1629 66.9 44.1614 66.9 44.1599 66.9C44.1583 66.9 44.1568 66.9 44.1553 66.9C44.1537 66.9 44.1522 66.9 44.1507 66.9C44.1492 66.9 44.1476 66.9 44.1461 66.9C44.1446 66.9 44.1431 66.9 44.1415 66.9C44.14 66.9 44.1385 66.9 44.137 66.9C44.1354 66.9 44.1339 66.9 44.1324 66.9C44.1309 66.9 44.1294 66.9 44.1278 66.9C44.1263 66.9 44.1248 66.9 44.1233 66.9C44.1217 66.9 44.1202 66.9 44.1187 66.9C44.1172 66.9 44.1156 66.9 44.1141 66.9C44.1126 66.9 44.1111 66.9 44.1096 66.9C44.108 66.9 44.1065 66.9 44.105 66.9C44.1035 66.9 44.1019 66.9 44.1004 66.9C44.0989 66.9 44.0974 66.9 44.0959 66.9C44.0943 66.9 44.0928 66.9 44.0913 66.9C44.0898 66.9 44.0883 66.9 44.0867 66.9C44.0852 66.9 44.0837 66.9 44.0822 66.9C44.0807 66.9 44.0791 66.9 44.0776 66.9C44.0761 66.9 44.0746 66.9 44.0731 66.9C44.0715 66.9 44.07 66.9 44.0685 66.9C44.067 66.9 44.0655 66.9 44.0639 66.9C44.0624 66.9 44.0609 66.9 44.0594 66.9C44.0579 66.9 44.0564 66.9 44.0548 66.9C44.0533 66.9 44.0518 66.9 44.0503 66.9C44.0488 66.9 44.0473 66.9 44.0457 66.9C44.0442 66.9 44.0427 66.9 44.0412 66.9C44.0397 66.9 44.0382 66.9 44.0366 66.9C44.0351 66.9 44.0336 66.9 44.0321 66.9C44.0306 66.9 44.0291 66.9 44.0275 66.9C44.026 66.9 44.0245 66.9 44.023 66.9C44.0215 66.9 44.02 66.9 44.0185 66.9C44.0169 66.9 44.0154 66.9 44.0139 66.9C44.0124 66.9 44.0109 66.9 44.0094 66.9C44.0079 66.9 44.0063 66.9 44.0048 66.9C44.0033 66.9 44.0018 66.9 44.0003 66.9C43.9988 66.9 43.9973 66.9 43.9958 66.9C43.9942 66.9 43.9927 66.9 43.9912 66.9C43.9897 66.9 43.9882 66.9 43.9867 66.9C43.9852 66.9 43.9837 66.9 43.9822 66.9C43.9806 66.9 43.9791 66.9 43.9776 66.9C43.9761 66.9 43.9746 66.9 43.9731 66.9C43.9716 66.9 43.9701 66.9 43.9686 66.9C43.967 66.9 43.9655 66.9 43.964 66.9C43.9625 66.9 43.961 66.9 43.9595 66.9C43.958 66.9 43.9565 66.9 43.955 66.9C43.9535 66.9 43.9519 66.9 43.9504 66.9C43.9489 66.9 43.9474 66.9 43.9459 66.9C43.9444 66.9 43.9429 66.9 43.9414 66.9C43.9399 66.9 43.9384 66.9 43.9369 66.9C43.9354 66.9 43.9338 66.9 43.9323 66.9C43.9308 66.9 43.9293 66.9 43.9278 66.9C43.9263 66.9 43.9248 66.9 43.9233 66.9C43.9218 66.9 43.9203 66.9 43.9188 66.9C43.9173 66.9 43.9158 66.9 43.9143 66.9C43.9128 66.9 43.9113 66.9 43.9098 66.9C43.9082 66.9 43.9067 66.9 43.9052 66.9C43.9037 66.9 43.9022 66.9 43.9007 66.9C43.8992 66.9 43.8977 66.9 43.8962 66.9C43.8947 66.9 43.8932 66.9 43.8917 66.9C43.8902 66.9 43.8887 66.9 43.8872 66.9C43.8857 66.9 43.8842 66.9 43.8827 66.9C43.8812 66.9 43.8797 66.9 43.8782 66.9C43.8767 66.9 43.8752 66.9 43.8737 66.9C43.8722 66.9 43.8707 66.9 43.8692 66.9C43.8677 66.9 43.8661 66.9 43.8647 66.9C43.8631 66.9 43.8616 66.9 43.8601 66.9C43.8586 66.9 43.8571 66.9 43.8556 66.9C43.8541 66.9 43.8526 66.9 43.8511 66.9C43.8496 66.9 43.8481 66.9 43.8466 66.9C43.8451 66.9 43.8436 66.9 43.8421 66.9C43.8406 66.9 43.8391 66.9 43.8376 66.9C43.8361 66.9 43.8346 66.9 43.8331 66.9C43.8316 66.9 43.8302 66.9 43.8287 66.9C43.8272 66.9 43.8257 66.9 43.8242 66.9C43.8227 66.9 43.8212 66.9 43.8197 66.9C43.8182 66.9 43.8167 66.9 43.8152 66.9C43.8137 66.9 43.8122 66.9 43.8107 66.9C43.8092 66.9 43.8077 66.9 43.8062 66.9C43.8047 66.9 43.8032 66.9 43.8017 66.9C43.8002 66.9 43.7987 66.9 43.7972 66.9C43.7957 66.9 43.7942 66.9 43.7927 66.9C43.7912 66.9 43.7897 66.9 43.7882 66.9C43.7867 66.9 43.7853 66.9 43.7838 66.9C43.7823 66.9 43.7808 66.9 43.7793 66.9C43.7778 66.9 43.7763 66.9 43.7748 66.9C43.7733 66.9 43.7718 66.9 43.7703 66.9C43.7688 66.9 43.7673 66.9 43.7658 66.9C43.7643 66.9 43.7628 66.9 43.7614 66.9C43.7599 66.9 43.7584 66.9 43.7569 66.9C43.7554 66.9 43.7539 66.9 43.7524 66.9C43.7509 66.9 43.7494 66.9 43.7479 66.9C43.7464 66.9 43.7449 66.9 43.7434 66.9C43.742 66.9 43.7405 66.9 43.739 66.9C43.7375 66.9 43.736 66.9 43.7345 66.9C43.733 66.9 43.7315 66.9 43.73 66.9C43.7285 66.9 43.7271 66.9 43.7256 66.9C43.7241 66.9 43.7226 66.9 43.7211 66.9C43.7196 66.9 43.7181 66.9 43.7166 66.9C43.7151 66.9 43.7136 66.9 43.7122 66.9C43.7107 66.9 43.7092 66.9 43.7077 66.9C43.7062 66.9 43.7047 66.9 43.7032 66.9C43.7017 66.9 43.7003 66.9 43.6988 66.9C43.6973 66.9 43.6958 66.9 43.6943 66.9C43.6928 66.9 43.6913 66.9 43.6898 66.9C43.6884 66.9 43.6869 66.9 43.6854 66.9C43.6839 66.9 43.6824 66.9 43.6809 66.9C43.6794 66.9 43.678 66.9 43.6765 66.9C43.675 66.9 43.6735 66.9 43.672 66.9C43.6705 66.9 43.669 66.9 43.6676 66.9C43.6661 66.9 43.6646 66.9 43.6631 66.9C43.6616 66.9 43.6601 66.9 43.6587 66.9C43.6572 66.9 43.6557 66.9 43.6542 66.9C43.6527 66.9 43.6512 66.9 43.6498 66.9C43.6483 66.9 43.6468 66.9 43.6453 66.9C43.6438 66.9 43.6423 66.9 43.6409 66.9C43.6394 66.9 43.6379 66.9 43.6364 66.9C43.6349 66.9 43.6334 66.9 43.632 66.9C43.6305 66.9 43.629 66.9 43.6275 66.9C43.626 66.9 43.6246 66.9 43.6231 66.9C43.6216 66.9 43.6201 66.9 43.6186 66.9C43.6172 66.9 43.6157 66.9 43.6142 66.9C43.6127 66.9 43.6112 66.9 43.6098 66.9C43.6083 66.9 43.6068 66.9 43.6053 66.9C43.6038 66.9 43.6024 66.9 43.6009 66.9C43.5994 66.9 43.5979 66.9 43.5964 66.9C43.595 66.9 43.5935 66.9 43.592 66.9C43.5905 66.9 43.5891 66.9 43.5876 66.9C43.5861 66.9 43.5846 66.9 43.5831 66.9C43.5817 66.9 43.5802 66.9 43.5787 66.9C43.5772 66.9 43.5758 66.9 43.5743 66.9C43.5728 66.9 43.5713 66.9 43.5699 66.9C43.5684 66.9 43.5669 66.9 43.5654 66.9C43.5639 66.9 43.5625 66.9 43.561 66.9C43.5595 66.9 43.558 66.9 43.5566 66.9C43.5551 66.9 43.5536 66.9 43.5521 66.9C43.5507 66.9 43.5492 66.9 43.5477 66.9C43.5462 66.9 43.5448 66.9 43.5433 66.9C43.5418 66.9 43.5404 66.9 43.5389 66.9C43.5374 66.9 43.5359 66.9 43.5345 66.9C43.533 66.9 43.5315 66.9 43.53 66.9C43.5286 66.9 43.5271 66.9 43.5256 66.9C43.5241 66.9 43.5227 66.9 43.5212 66.9C43.5197 66.9 43.5183 66.9 43.5168 66.9C43.5153 66.9 43.5138 66.9 43.5124 66.9C43.5109 66.9 43.5094 66.9 43.508 66.9C43.5065 66.9 43.505 66.9 43.5035 66.9C43.5021 66.9 43.5006 66.9 43.4991 66.9C43.4977 66.9 43.4962 66.9 43.4947 66.9C43.4933 66.9 43.4918 66.9 43.4903 66.9C43.4888 66.9 43.4874 66.9 43.4859 66.9C43.4844 66.9 43.483 66.9 43.4815 66.9C43.48 66.9 43.4786 66.9 43.4771 66.9C43.4756 66.9 43.4742 66.9 43.4727 66.9C43.4712 66.9 43.4698 66.9 43.4683 66.9C43.4668 66.9 43.4654 66.9 43.4639 66.9C43.4624 66.9 43.461 66.9 43.4595 66.9C43.458 66.9 43.4566 66.9 43.4551 66.9C43.4536 66.9 43.4522 66.9 43.4507 66.9C43.4492 66.9 43.4478 66.9 43.4463 66.9C43.4448 66.9 43.4434 66.9 43.4419 66.9C43.4404 66.9 43.439 66.9 43.4375 66.9C43.436 66.9 43.4346 66.9 43.4331 66.9C43.4316 66.9 43.4302 66.9 43.4287 66.9C43.4272 66.9 43.4258 66.9 43.4243 66.9C43.4229 66.9 43.4214 66.9 43.4199 66.9C43.4185 66.9 43.417 66.9 43.4155 66.9C43.4141 66.9 43.4126 66.9 43.4112 66.9C43.4097 66.9 43.4082 66.9 43.4068 66.9C43.4053 66.9 43.4038 66.9 43.4024 66.9C43.4009 66.9 43.3995 66.9 43.398 66.9C43.3965 66.9 43.3951 66.9 43.3936 66.9C43.3922 66.9 43.3907 66.9 43.3892 66.9C43.3878 66.9 43.3863 66.9 43.3848 66.9C43.3834 66.9 43.3819 66.9 43.3805 66.9C43.379 66.9 43.3775 66.9 43.3761 66.9C43.3746 66.9 43.3732 66.9 43.3717 66.9C43.3703 66.9 43.3688 66.9 43.3673 66.9C43.3659 66.9 43.3644 66.9 43.363 66.9C43.3615 66.9 43.36 66.9 43.3586 66.9C43.3571 66.9 43.3557 66.9 43.3542 66.9C43.3528 66.9 43.3513 66.9 43.3498 66.9C43.3484 66.9 43.3469 66.9 43.3455 66.9C43.344 66.9 43.3426 66.9 43.3411 66.9C43.3396 66.9 43.3382 66.9 43.3367 66.9C43.3353 66.9 43.3338 66.9 43.3324 66.9C43.3309 66.9 43.3294 66.9 43.328 66.9C43.3265 66.9 43.3251 66.9 43.3236 66.9C43.3222 66.9 43.3207 66.9 43.3193 66.9C43.3178 66.9 43.3164 66.9 43.3149 66.9C43.3134 66.9 43.312 66.9 43.3105 66.9C43.3091 66.9 43.3076 66.9 43.3062 66.9C43.3047 66.9 43.3033 66.9 43.3018 66.9C43.3004 66.9 43.2989 66.9 43.2975 66.9C43.296 66.9 43.2946 66.9 43.2931 66.9C43.2917 66.9 43.2902 66.9 43.2887 66.9C43.2873 66.9 43.2858 66.9 43.2844 66.9C43.2829 66.9 43.2815 66.9 43.28 66.9C43.2786 66.9 43.2771 66.9 43.2757 66.9C43.2742 66.9 43.2728 66.9 43.2713 66.9C43.2699 66.9 43.2684 66.9 43.267 66.9C43.2655 66.9 43.2641 66.9 43.2626 66.9C43.2612 66.9 43.2597 66.9 43.2583 66.9C43.2568 66.9 43.2554 66.9 43.2539 66.9C43.2525 66.9 43.251 66.9 43.2496 66.9C43.2481 66.9 43.2467 66.9 43.2453 66.9C43.2438 66.9 43.2424 66.9 43.2409 66.9C43.2395 66.9 43.238 66.9 43.2366 66.9C43.2351 66.9 43.2337 66.9 43.2322 66.9C43.2308 66.9 43.2293 66.9 43.2279 66.9C43.2264 66.9 43.225 66.9 43.2235 66.9C43.2221 66.9 43.2206 66.9 43.2192 66.9C43.2178 66.9 43.2163 66.9 43.2149 66.9C43.2134 66.9 43.212 66.9 43.2105 66.9C43.2091 66.9 43.2076 66.9 43.2062 66.9C43.2048 66.9 43.2033 66.9 43.2019 66.9C43.2004 66.9 43.199 66.9 43.1975 66.9C43.1961 66.9 43.1946 66.9 43.1932 66.9C43.1918 66.9 43.1903 66.9 43.1889 66.9C43.1874 66.9 43.186 66.9 43.1845 66.9C43.1831 66.9 43.1817 66.9 43.1802 66.9C43.1788 66.9 43.1773 66.9 43.1759 66.9C43.1744 66.9 43.173 66.9 43.1716 66.9C43.1701 66.9 43.1687 66.9 43.1672 66.9C43.1658 66.9 43.1644 66.9 43.1629 66.9C43.1615 66.9 43.16 66.9 43.1586 66.9C43.1572 66.9 43.1557 66.9 43.1543 66.9C43.1528 66.9 43.1514 66.9 43.15 66.9C43.1485 66.9 43.1471 66.9 43.1456 66.9C43.1442 66.9 43.1428 66.9 43.1413 66.9C43.1399 66.9 43.1384 66.9 43.137 66.9C43.1356 66.9 43.1341 66.9 43.1327 66.9C43.1312 66.9 43.1298 66.9 43.1284 66.9C43.1269 66.9 43.1255 66.9 43.1241 66.9C43.1226 66.9 43.1212 66.9 43.1198 66.9C43.1183 66.9 43.1169 66.9 43.1154 66.9C43.114 66.9 43.1126 66.9 43.1111 66.9C43.1097 66.9 43.1083 66.9 43.1068 66.9C43.1054 66.9 43.104 66.9 43.1025 66.9C43.1011 66.9 43.0996 66.9 43.0982 66.9C43.0968 66.9 43.0953 66.9 43.0939 66.9C43.0925 66.9 43.091 66.9 43.0896 66.9C43.0882 66.9 43.0867 66.9 43.0853 66.9C43.0839 66.9 43.0824 66.9 43.081 66.9C43.0796 66.9 43.0781 66.9 43.0767 66.9C43.0753 66.9 43.0738 66.9 43.0724 66.9C43.071 66.9 43.0695 66.9 43.0681 66.9C43.0667 66.9 43.0652 66.9 43.0638 66.9C43.0624 66.9 43.0609 66.9 43.0595 66.9C43.0581 66.9 43.0566 66.9 43.0552 66.9C43.0538 66.9 43.0523 66.9 43.0509 66.9C43.0495 66.9 43.0481 66.9 43.0466 66.9C43.0452 66.9 43.0438 66.9 43.0423 66.9C43.0409 66.9 43.0395 66.9 43.038 66.9C43.0366 66.9 43.0352 66.9 43.0338 66.9C43.0323 66.9 43.0309 66.9 43.0295 66.9C43.028 66.9 43.0266 66.9 43.0252 66.9C43.0238 66.9 43.0223 66.9 43.0209 66.9C43.0195 66.9 43.018 66.9 43.0166 66.9C43.0152 66.9 43.0138 66.9 43.0123 66.9C43.0109 66.9 43.0095 66.9 43.008 66.9C43.0066 66.9 43.0052 66.9 43.0038 66.9C43.0023 66.9 43.0009 66.9 42.9995 66.9C42.9981 66.9 42.9966 66.9 42.9952 66.9C42.9938 66.9 42.9924 66.9 42.9909 66.9C42.9895 66.9 42.9881 66.9 42.9867 66.9C42.9852 66.9 42.9838 66.9 42.9824 66.9C42.981 66.9 42.9795 66.9 42.9781 66.9C42.9767 66.9 42.9753 66.9 42.9738 66.9C42.9724 66.9 42.971 66.9 42.9696 66.9C42.9681 66.9 42.9667 66.9 42.9653 66.9C42.9639 66.9 42.9624 66.9 42.961 66.9C42.9596 66.9 42.9582 66.9 42.9568 66.9C42.9553 66.9 42.9539 66.9 42.9525 66.9C42.9511 66.9 42.9496 66.9 42.9482 66.9C42.9468 66.9 42.9454 66.9 42.944 66.9C42.9425 66.9 42.9411 66.9 42.9397 66.9C42.9383 66.9 42.9369 66.9 42.9354 66.9C42.934 66.9 42.9326 66.9 42.9312 66.9C42.9298 66.9 42.9283 66.9 42.9269 66.9C42.9255 66.9 42.9241 66.9 42.9227 66.9C42.9212 66.9 42.9198 66.9 42.9184 66.9C42.917 66.9 42.9156 66.9 42.9141 66.9C42.9127 66.9 42.9113 66.9 42.9099 66.9C42.9085 66.9 42.907 66.9 42.9056 66.9C42.9042 66.9 42.9028 66.9 42.9014 66.9C42.9 66.9 42.8985 66.9 42.8971 66.9C42.8957 66.9 42.8943 66.9 42.8929 66.9C42.8915 66.9 42.89 66.9 42.8886 66.9C42.8872 66.9 42.8858 66.9 42.8844 66.9C42.883 66.9 42.8815 66.9 42.8801 66.9C42.8787 66.9 42.8773 66.9 42.8759 66.9C42.8745 66.9 42.8731 66.9 42.8716 66.9C42.8702 66.9 42.8688 66.9 42.8674 66.9C42.866 66.9 42.8646 66.9 42.8631 66.9C42.8617 66.9 42.8603 66.9 42.8589 66.9C42.8575 66.9 42.8561 66.9 42.8547 66.9C42.8533 66.9 42.8518 66.9 42.8504 66.9C42.849 66.9 42.8476 66.9 42.8462 66.9C42.8448 66.9 42.8434 66.9 42.842 66.9C42.8405 66.9 42.8391 66.9 42.8377 66.9C42.8363 66.9 42.8349 66.9 42.8335 66.9C42.8321 66.9 42.8307 66.9 42.8292 66.9C42.8278 66.9 42.8264 66.9 42.825 66.9C42.8236 66.9 42.8222 66.9 42.8208 66.9C42.8194 66.9 42.818 66.9 42.8166 66.9C42.8151 66.9 42.8137 66.9 42.8123 66.9C42.8109 66.9 42.8095 66.9 42.8081 66.9C42.8067 66.9 42.8053 66.9 42.8039 66.9C42.8025 66.9 42.8011 66.9 42.7996 66.9C42.7982 66.9 42.7968 66.9 42.7954 66.9C42.794 66.9 42.7926 66.9 42.7912 66.9C42.7898 66.9 42.7884 66.9 42.787 66.9C42.7856 66.9 42.7842 66.9 42.7828 66.9C42.7813 66.9 42.7799 66.9 42.7785 66.9C42.7771 66.9 42.7757 66.9 42.7743 66.9C42.7729 66.9 42.7715 66.9 42.7701 66.9C42.7687 66.9 42.7673 66.9 42.7659 66.9C42.7645 66.9 42.7631 66.9 42.7617 66.9C42.7603 66.9 42.7589 66.9 42.7575 66.9C42.756 66.9 42.7546 66.9 42.7532 66.9C42.7518 66.9 42.7504 66.9 42.749 66.9C42.7476 66.9 42.7462 66.9 42.7448 66.9C42.7434 66.9 42.742 66.9 42.7406 66.9C42.7392 66.9 42.7378 66.9 42.7364 66.9C42.735 66.9 42.7336 66.9 42.7322 66.9C42.7308 66.9 42.7294 66.9 42.728 66.9C42.7266 66.9 42.7252 66.9 42.7238 66.9C42.7224 66.9 42.721 66.9 42.7196 66.9C42.7182 66.9 42.7168 66.9 42.7154 66.9C42.714 66.9 42.7126 66.9 42.7112 66.9C42.7098 66.9 42.7084 66.9 42.707 66.9C42.7056 66.9 42.7042 66.9 42.7028 66.9C42.7014 66.9 42.7 66.9 42.6986 66.9C42.6972 66.9 42.6958 66.9 42.6944 66.9C42.693 66.9 42.6916 66.9 42.6902 66.9C42.6888 66.9 42.6874 66.9 42.686 66.9C42.6846 66.9 42.6832 66.9 42.6818 66.9C42.6804 66.9 42.679 66.9 42.6776 66.9C42.6762 66.9 42.6748 66.9 42.6734 66.9C42.672 66.9 42.6706 66.9 42.6692 66.9C42.6678 66.9 42.6664 66.9 42.665 66.9C42.6636 66.9 42.6622 66.9 42.6608 66.9C42.6594 66.9 42.658 66.9 42.6567 66.9C42.6553 66.9 42.6539 66.9 42.6525 66.9C42.6511 66.9 42.6497 66.9 42.6483 66.9C42.6469 66.9 42.6455 66.9 42.6441 66.9C42.6427 66.9 42.6413 66.9 42.6399 66.9C42.6385 66.9 42.6371 66.9 42.6357 66.9C42.6343 66.9 42.6329 66.9 42.6316 66.9C42.6302 66.9 42.6288 66.9 42.6274 66.9C42.626 66.9 42.6246 66.9 42.6232 66.9C42.6218 66.9 42.6204 66.9 42.619 66.9C42.6176 66.9 42.6162 66.9 42.6148 66.9C42.6135 66.9 42.6121 66.9 42.6107 66.9C42.6093 66.9 42.6079 66.9 42.6065 66.9C42.6051 66.9 42.6037 66.9 42.6023 66.9C42.6009 66.9 42.5995 66.9 42.5982 66.9C42.5968 66.9 42.5954 66.9 42.594 66.9C42.5926 66.9 42.5912 66.9 42.5898 66.9C42.5884 66.9 42.587 66.9 42.5856 66.9C42.5843 66.9 42.5829 66.9 42.5815 66.9C42.5801 66.9 42.5787 66.9 42.5773 66.9C42.5759 66.9 42.5745 66.9 42.5732 66.9C42.5718 66.9 42.5704 66.9 42.569 66.9C42.5676 66.9 42.5662 66.9 42.5648 66.9C42.5634 66.9 42.5621 66.9 42.5607 66.9C42.5593 66.9 42.5579 66.9 42.5565 66.9C42.5551 66.9 42.5537 66.9 42.5524 66.9C42.551 66.9 42.5496 66.9 42.5482 66.9C42.5468 66.9 42.5454 66.9 42.544 66.9C42.5427 66.9 42.5413 66.9 42.5399 66.9C42.5385 66.9 42.5371 66.9 42.5357 66.9C42.5343 66.9 42.533 66.9 42.5316 66.9C42.5302 66.9 42.5288 66.9 42.5274 66.9C42.526 66.9 42.5247 66.9 42.5233 66.9C42.5219 66.9 42.5205 66.9 42.5191 66.9C42.5177 66.9 42.5164 66.9 42.515 66.9C42.5136 66.9 42.5122 66.9 42.5108 66.9C42.5095 66.9 42.5081 66.9 42.5067 66.9C42.5053 66.9 42.5039 66.9 42.5025 66.9C42.5012 66.9 42.4998 66.9 42.4984 66.9C42.497 66.9 42.4956 66.9 42.4943 66.9C42.4929 66.9 42.4915 66.9 42.4901 66.9C42.4887 66.9 42.4874 66.9 42.486 66.9C42.4846 66.9 42.4832 66.9 42.4818 66.9C42.4805 66.9 42.4791 66.9 42.4777 66.9C42.4763 66.9 42.4749 66.9 42.4736 66.9C42.4722 66.9 42.4708 66.9 42.4694 66.9C42.4681 66.9 42.4667 66.9 42.4653 66.9C42.4639 66.9 42.4625 66.9 42.4612 66.9C42.4598 66.9 42.4584 66.9 42.457 66.9C42.4557 66.9 42.4543 66.9 42.4529 66.9C42.4515 66.9 42.4501 66.9 42.4488 66.9C42.4474 66.9 42.446 66.9 42.4446 66.9C42.4433 66.9 42.4419 66.9 42.4405 66.9C42.4391 66.9 42.4378 66.9 42.4364 66.9C42.435 66.9 42.4336 66.9 42.4323 66.9C42.4309 66.9 42.4295 66.9 42.4281 66.9C42.4268 66.9 42.4254 66.9 42.424 66.9C42.4226 66.9 42.4213 66.9 42.4199 66.9C42.4185 66.9 42.4171 66.9 42.4158 66.9C42.4144 66.9 42.413 66.9 42.4117 66.9C42.4103 66.9 42.4089 66.9 42.4075 66.9C42.4062 66.9 42.4048 66.9 42.4034 66.9C42.402 66.9 42.4007 66.9 42.3993 66.9C42.3979 66.9 42.3966 66.9 42.3952 66.9C42.3938 66.9 42.3924 66.9 42.3911 66.9C42.3897 66.9 42.3883 66.9 42.387 66.9C42.3856 66.9 42.3842 66.9 42.3829 66.9C42.3815 66.9 42.3801 66.9 42.3787 66.9C42.3774 66.9 42.376 66.9 42.3746 66.9C42.3733 66.9 42.3719 66.9 42.3705 66.9C42.3692 66.9 42.3678 66.9 42.3664 66.9C42.365 66.9 42.3637 66.9 42.3623 66.9C42.3609 66.9 42.3596 66.9 42.3582 66.9C42.3568 66.9 42.3555 66.9 42.3541 66.9C42.3527 66.9 42.3514 66.9 42.35 66.9V70.9C42.3514 70.9 42.3527 70.9 42.3541 70.9C42.3555 70.9 42.3568 70.9 42.3582 70.9C42.3596 70.9 42.3609 70.9 42.3623 70.9C42.3637 70.9 42.365 70.9 42.3664 70.9C42.3678 70.9 42.3692 70.9 42.3705 70.9C42.3719 70.9 42.3733 70.9 42.3746 70.9C42.376 70.9 42.3774 70.9 42.3787 70.9C42.3801 70.9 42.3815 70.9 42.3829 70.9C42.3842 70.9 42.3856 70.9 42.387 70.9C42.3883 70.9 42.3897 70.9 42.3911 70.9C42.3924 70.9 42.3938 70.9 42.3952 70.9C42.3966 70.9 42.3979 70.9 42.3993 70.9C42.4007 70.9 42.402 70.9 42.4034 70.9C42.4048 70.9 42.4062 70.9 42.4075 70.9C42.4089 70.9 42.4103 70.9 42.4117 70.9C42.413 70.9 42.4144 70.9 42.4158 70.9C42.4171 70.9 42.4185 70.9 42.4199 70.9C42.4213 70.9 42.4226 70.9 42.424 70.9C42.4254 70.9 42.4268 70.9 42.4281 70.9C42.4295 70.9 42.4309 70.9 42.4323 70.9C42.4336 70.9 42.435 70.9 42.4364 70.9C42.4378 70.9 42.4391 70.9 42.4405 70.9C42.4419 70.9 42.4433 70.9 42.4446 70.9C42.446 70.9 42.4474 70.9 42.4488 70.9C42.4501 70.9 42.4515 70.9 42.4529 70.9C42.4543 70.9 42.4557 70.9 42.457 70.9C42.4584 70.9 42.4598 70.9 42.4612 70.9C42.4625 70.9 42.4639 70.9 42.4653 70.9C42.4667 70.9 42.4681 70.9 42.4694 70.9C42.4708 70.9 42.4722 70.9 42.4736 70.9C42.4749 70.9 42.4763 70.9 42.4777 70.9C42.4791 70.9 42.4805 70.9 42.4818 70.9C42.4832 70.9 42.4846 70.9 42.486 70.9C42.4874 70.9 42.4887 70.9 42.4901 70.9C42.4915 70.9 42.4929 70.9 42.4943 70.9C42.4956 70.9 42.497 70.9 42.4984 70.9C42.4998 70.9 42.5012 70.9 42.5025 70.9C42.5039 70.9 42.5053 70.9 42.5067 70.9C42.5081 70.9 42.5095 70.9 42.5108 70.9C42.5122 70.9 42.5136 70.9 42.515 70.9C42.5164 70.9 42.5177 70.9 42.5191 70.9C42.5205 70.9 42.5219 70.9 42.5233 70.9C42.5247 70.9 42.526 70.9 42.5274 70.9C42.5288 70.9 42.5302 70.9 42.5316 70.9C42.533 70.9 42.5343 70.9 42.5357 70.9C42.5371 70.9 42.5385 70.9 42.5399 70.9C42.5413 70.9 42.5427 70.9 42.544 70.9C42.5454 70.9 42.5468 70.9 42.5482 70.9C42.5496 70.9 42.551 70.9 42.5524 70.9C42.5537 70.9 42.5551 70.9 42.5565 70.9C42.5579 70.9 42.5593 70.9 42.5607 70.9C42.5621 70.9 42.5634 70.9 42.5648 70.9C42.5662 70.9 42.5676 70.9 42.569 70.9C42.5704 70.9 42.5718 70.9 42.5732 70.9C42.5745 70.9 42.5759 70.9 42.5773 70.9C42.5787 70.9 42.5801 70.9 42.5815 70.9C42.5829 70.9 42.5843 70.9 42.5856 70.9C42.587 70.9 42.5884 70.9 42.5898 70.9C42.5912 70.9 42.5926 70.9 42.594 70.9C42.5954 70.9 42.5968 70.9 42.5982 70.9C42.5995 70.9 42.6009 70.9 42.6023 70.9C42.6037 70.9 42.6051 70.9 42.6065 70.9C42.6079 70.9 42.6093 70.9 42.6107 70.9C42.6121 70.9 42.6135 70.9 42.6148 70.9C42.6162 70.9 42.6176 70.9 42.619 70.9C42.6204 70.9 42.6218 70.9 42.6232 70.9C42.6246 70.9 42.626 70.9 42.6274 70.9C42.6288 70.9 42.6302 70.9 42.6316 70.9C42.6329 70.9 42.6343 70.9 42.6357 70.9C42.6371 70.9 42.6385 70.9 42.6399 70.9C42.6413 70.9 42.6427 70.9 42.6441 70.9C42.6455 70.9 42.6469 70.9 42.6483 70.9C42.6497 70.9 42.6511 70.9 42.6525 70.9C42.6539 70.9 42.6553 70.9 42.6567 70.9C42.658 70.9 42.6594 70.9 42.6608 70.9C42.6622 70.9 42.6636 70.9 42.665 70.9C42.6664 70.9 42.6678 70.9 42.6692 70.9C42.6706 70.9 42.672 70.9 42.6734 70.9C42.6748 70.9 42.6762 70.9 42.6776 70.9C42.679 70.9 42.6804 70.9 42.6818 70.9C42.6832 70.9 42.6846 70.9 42.686 70.9C42.6874 70.9 42.6888 70.9 42.6902 70.9C42.6916 70.9 42.693 70.9 42.6944 70.9C42.6958 70.9 42.6972 70.9 42.6986 70.9C42.7 70.9 42.7014 70.9 42.7028 70.9C42.7042 70.9 42.7056 70.9 42.707 70.9C42.7084 70.9 42.7098 70.9 42.7112 70.9C42.7126 70.9 42.714 70.9 42.7154 70.9C42.7168 70.9 42.7182 70.9 42.7196 70.9C42.721 70.9 42.7224 70.9 42.7238 70.9C42.7252 70.9 42.7266 70.9 42.728 70.9C42.7294 70.9 42.7308 70.9 42.7322 70.9C42.7336 70.9 42.735 70.9 42.7364 70.9C42.7378 70.9 42.7392 70.9 42.7406 70.9C42.742 70.9 42.7434 70.9 42.7448 70.9C42.7462 70.9 42.7476 70.9 42.749 70.9C42.7504 70.9 42.7518 70.9 42.7532 70.9C42.7546 70.9 42.756 70.9 42.7575 70.9C42.7589 70.9 42.7603 70.9 42.7617 70.9C42.7631 70.9 42.7645 70.9 42.7659 70.9C42.7673 70.9 42.7687 70.9 42.7701 70.9C42.7715 70.9 42.7729 70.9 42.7743 70.9C42.7757 70.9 42.7771 70.9 42.7785 70.9C42.7799 70.9 42.7813 70.9 42.7828 70.9C42.7842 70.9 42.7856 70.9 42.787 70.9C42.7884 70.9 42.7898 70.9 42.7912 70.9C42.7926 70.9 42.794 70.9 42.7954 70.9C42.7968 70.9 42.7982 70.9 42.7996 70.9C42.8011 70.9 42.8025 70.9 42.8039 70.9C42.8053 70.9 42.8067 70.9 42.8081 70.9C42.8095 70.9 42.8109 70.9 42.8123 70.9C42.8137 70.9 42.8151 70.9 42.8166 70.9C42.818 70.9 42.8194 70.9 42.8208 70.9C42.8222 70.9 42.8236 70.9 42.825 70.9C42.8264 70.9 42.8278 70.9 42.8292 70.9C42.8307 70.9 42.8321 70.9 42.8335 70.9C42.8349 70.9 42.8363 70.9 42.8377 70.9C42.8391 70.9 42.8405 70.9 42.842 70.9C42.8434 70.9 42.8448 70.9 42.8462 70.9C42.8476 70.9 42.849 70.9 42.8504 70.9C42.8518 70.9 42.8533 70.9 42.8547 70.9C42.8561 70.9 42.8575 70.9 42.8589 70.9C42.8603 70.9 42.8617 70.9 42.8631 70.9C42.8646 70.9 42.866 70.9 42.8674 70.9C42.8688 70.9 42.8702 70.9 42.8716 70.9C42.8731 70.9 42.8745 70.9 42.8759 70.9C42.8773 70.9 42.8787 70.9 42.8801 70.9C42.8815 70.9 42.883 70.9 42.8844 70.9C42.8858 70.9 42.8872 70.9 42.8886 70.9C42.89 70.9 42.8915 70.9 42.8929 70.9C42.8943 70.9 42.8957 70.9 42.8971 70.9C42.8985 70.9 42.9 70.9 42.9014 70.9C42.9028 70.9 42.9042 70.9 42.9056 70.9C42.907 70.9 42.9085 70.9 42.9099 70.9C42.9113 70.9 42.9127 70.9 42.9141 70.9C42.9156 70.9 42.917 70.9 42.9184 70.9C42.9198 70.9 42.9212 70.9 42.9227 70.9C42.9241 70.9 42.9255 70.9 42.9269 70.9C42.9283 70.9 42.9298 70.9 42.9312 70.9C42.9326 70.9 42.934 70.9 42.9354 70.9C42.9369 70.9 42.9383 70.9 42.9397 70.9C42.9411 70.9 42.9425 70.9 42.944 70.9C42.9454 70.9 42.9468 70.9 42.9482 70.9C42.9496 70.9 42.9511 70.9 42.9525 70.9C42.9539 70.9 42.9553 70.9 42.9568 70.9C42.9582 70.9 42.9596 70.9 42.961 70.9C42.9624 70.9 42.9639 70.9 42.9653 70.9C42.9667 70.9 42.9681 70.9 42.9696 70.9C42.971 70.9 42.9724 70.9 42.9738 70.9C42.9753 70.9 42.9767 70.9 42.9781 70.9C42.9795 70.9 42.981 70.9 42.9824 70.9C42.9838 70.9 42.9852 70.9 42.9867 70.9C42.9881 70.9 42.9895 70.9 42.9909 70.9C42.9924 70.9 42.9938 70.9 42.9952 70.9C42.9966 70.9 42.9981 70.9 42.9995 70.9C43.0009 70.9 43.0023 70.9 43.0038 70.9C43.0052 70.9 43.0066 70.9 43.008 70.9C43.0095 70.9 43.0109 70.9 43.0123 70.9C43.0138 70.9 43.0152 70.9 43.0166 70.9C43.018 70.9 43.0195 70.9 43.0209 70.9C43.0223 70.9 43.0238 70.9 43.0252 70.9C43.0266 70.9 43.028 70.9 43.0295 70.9C43.0309 70.9 43.0323 70.9 43.0338 70.9C43.0352 70.9 43.0366 70.9 43.038 70.9C43.0395 70.9 43.0409 70.9 43.0423 70.9C43.0438 70.9 43.0452 70.9 43.0466 70.9C43.0481 70.9 43.0495 70.9 43.0509 70.9C43.0523 70.9 43.0538 70.9 43.0552 70.9C43.0566 70.9 43.0581 70.9 43.0595 70.9C43.0609 70.9 43.0624 70.9 43.0638 70.9C43.0652 70.9 43.0667 70.9 43.0681 70.9C43.0695 70.9 43.071 70.9 43.0724 70.9C43.0738 70.9 43.0753 70.9 43.0767 70.9C43.0781 70.9 43.0796 70.9 43.081 70.9C43.0824 70.9 43.0839 70.9 43.0853 70.9C43.0867 70.9 43.0882 70.9 43.0896 70.9C43.091 70.9 43.0925 70.9 43.0939 70.9C43.0953 70.9 43.0968 70.9 43.0982 70.9C43.0996 70.9 43.1011 70.9 43.1025 70.9C43.104 70.9 43.1054 70.9 43.1068 70.9C43.1083 70.9 43.1097 70.9 43.1111 70.9C43.1126 70.9 43.114 70.9 43.1154 70.9C43.1169 70.9 43.1183 70.9 43.1198 70.9C43.1212 70.9 43.1226 70.9 43.1241 70.9C43.1255 70.9 43.1269 70.9 43.1284 70.9C43.1298 70.9 43.1312 70.9 43.1327 70.9C43.1341 70.9 43.1356 70.9 43.137 70.9C43.1384 70.9 43.1399 70.9 43.1413 70.9C43.1428 70.9 43.1442 70.9 43.1456 70.9C43.1471 70.9 43.1485 70.9 43.15 70.9C43.1514 70.9 43.1528 70.9 43.1543 70.9C43.1557 70.9 43.1572 70.9 43.1586 70.9C43.16 70.9 43.1615 70.9 43.1629 70.9C43.1644 70.9 43.1658 70.9 43.1672 70.9C43.1687 70.9 43.1701 70.9 43.1716 70.9C43.173 70.9 43.1744 70.9 43.1759 70.9C43.1773 70.9 43.1788 70.9 43.1802 70.9C43.1817 70.9 43.1831 70.9 43.1845 70.9C43.186 70.9 43.1874 70.9 43.1889 70.9C43.1903 70.9 43.1918 70.9 43.1932 70.9C43.1946 70.9 43.1961 70.9 43.1975 70.9C43.199 70.9 43.2004 70.9 43.2019 70.9C43.2033 70.9 43.2048 70.9 43.2062 70.9C43.2076 70.9 43.2091 70.9 43.2105 70.9C43.212 70.9 43.2134 70.9 43.2149 70.9C43.2163 70.9 43.2178 70.9 43.2192 70.9C43.2206 70.9 43.2221 70.9 43.2235 70.9C43.225 70.9 43.2264 70.9 43.2279 70.9C43.2293 70.9 43.2308 70.9 43.2322 70.9C43.2337 70.9 43.2351 70.9 43.2366 70.9C43.238 70.9 43.2395 70.9 43.2409 70.9C43.2424 70.9 43.2438 70.9 43.2453 70.9C43.2467 70.9 43.2481 70.9 43.2496 70.9C43.251 70.9 43.2525 70.9 43.2539 70.9C43.2554 70.9 43.2568 70.9 43.2583 70.9C43.2597 70.9 43.2612 70.9 43.2626 70.9C43.2641 70.9 43.2655 70.9 43.267 70.9C43.2684 70.9 43.2699 70.9 43.2713 70.9C43.2728 70.9 43.2742 70.9 43.2757 70.9C43.2771 70.9 43.2786 70.9 43.28 70.9C43.2815 70.9 43.2829 70.9 43.2844 70.9C43.2858 70.9 43.2873 70.9 43.2887 70.9C43.2902 70.9 43.2917 70.9 43.2931 70.9C43.2946 70.9 43.296 70.9 43.2975 70.9C43.2989 70.9 43.3004 70.9 43.3018 70.9C43.3033 70.9 43.3047 70.9 43.3062 70.9C43.3076 70.9 43.3091 70.9 43.3105 70.9C43.312 70.9 43.3134 70.9 43.3149 70.9C43.3164 70.9 43.3178 70.9 43.3193 70.9C43.3207 70.9 43.3222 70.9 43.3236 70.9C43.3251 70.9 43.3265 70.9 43.328 70.9C43.3294 70.9 43.3309 70.9 43.3324 70.9C43.3338 70.9 43.3353 70.9 43.3367 70.9C43.3382 70.9 43.3396 70.9 43.3411 70.9C43.3426 70.9 43.344 70.9 43.3455 70.9C43.3469 70.9 43.3484 70.9 43.3498 70.9C43.3513 70.9 43.3528 70.9 43.3542 70.9C43.3557 70.9 43.3571 70.9 43.3586 70.9C43.36 70.9 43.3615 70.9 43.363 70.9C43.3644 70.9 43.3659 70.9 43.3673 70.9C43.3688 70.9 43.3703 70.9 43.3717 70.9C43.3732 70.9 43.3746 70.9 43.3761 70.9C43.3775 70.9 43.379 70.9 43.3805 70.9C43.3819 70.9 43.3834 70.9 43.3848 70.9C43.3863 70.9 43.3878 70.9 43.3892 70.9C43.3907 70.9 43.3922 70.9 43.3936 70.9C43.3951 70.9 43.3965 70.9 43.398 70.9C43.3995 70.9 43.4009 70.9 43.4024 70.9C43.4038 70.9 43.4053 70.9 43.4068 70.9C43.4082 70.9 43.4097 70.9 43.4112 70.9C43.4126 70.9 43.4141 70.9 43.4155 70.9C43.417 70.9 43.4185 70.9 43.4199 70.9C43.4214 70.9 43.4229 70.9 43.4243 70.9C43.4258 70.9 43.4272 70.9 43.4287 70.9C43.4302 70.9 43.4316 70.9 43.4331 70.9C43.4346 70.9 43.436 70.9 43.4375 70.9C43.439 70.9 43.4404 70.9 43.4419 70.9C43.4434 70.9 43.4448 70.9 43.4463 70.9C43.4478 70.9 43.4492 70.9 43.4507 70.9C43.4522 70.9 43.4536 70.9 43.4551 70.9C43.4566 70.9 43.458 70.9 43.4595 70.9C43.461 70.9 43.4624 70.9 43.4639 70.9C43.4654 70.9 43.4668 70.9 43.4683 70.9C43.4698 70.9 43.4712 70.9 43.4727 70.9C43.4742 70.9 43.4756 70.9 43.4771 70.9C43.4786 70.9 43.48 70.9 43.4815 70.9C43.483 70.9 43.4844 70.9 43.4859 70.9C43.4874 70.9 43.4888 70.9 43.4903 70.9C43.4918 70.9 43.4933 70.9 43.4947 70.9C43.4962 70.9 43.4977 70.9 43.4991 70.9C43.5006 70.9 43.5021 70.9 43.5035 70.9C43.505 70.9 43.5065 70.9 43.508 70.9C43.5094 70.9 43.5109 70.9 43.5124 70.9C43.5138 70.9 43.5153 70.9 43.5168 70.9C43.5183 70.9 43.5197 70.9 43.5212 70.9C43.5227 70.9 43.5241 70.9 43.5256 70.9C43.5271 70.9 43.5286 70.9 43.53 70.9C43.5315 70.9 43.533 70.9 43.5345 70.9C43.5359 70.9 43.5374 70.9 43.5389 70.9C43.5404 70.9 43.5418 70.9 43.5433 70.9C43.5448 70.9 43.5462 70.9 43.5477 70.9C43.5492 70.9 43.5507 70.9 43.5521 70.9C43.5536 70.9 43.5551 70.9 43.5566 70.9C43.558 70.9 43.5595 70.9 43.561 70.9C43.5625 70.9 43.5639 70.9 43.5654 70.9C43.5669 70.9 43.5684 70.9 43.5699 70.9C43.5713 70.9 43.5728 70.9 43.5743 70.9C43.5758 70.9 43.5772 70.9 43.5787 70.9C43.5802 70.9 43.5817 70.9 43.5831 70.9C43.5846 70.9 43.5861 70.9 43.5876 70.9C43.5891 70.9 43.5905 70.9 43.592 70.9C43.5935 70.9 43.595 70.9 43.5964 70.9C43.5979 70.9 43.5994 70.9 43.6009 70.9C43.6024 70.9 43.6038 70.9 43.6053 70.9C43.6068 70.9 43.6083 70.9 43.6098 70.9C43.6112 70.9 43.6127 70.9 43.6142 70.9C43.6157 70.9 43.6172 70.9 43.6186 70.9C43.6201 70.9 43.6216 70.9 43.6231 70.9C43.6246 70.9 43.626 70.9 43.6275 70.9C43.629 70.9 43.6305 70.9 43.632 70.9C43.6334 70.9 43.6349 70.9 43.6364 70.9C43.6379 70.9 43.6394 70.9 43.6409 70.9C43.6423 70.9 43.6438 70.9 43.6453 70.9C43.6468 70.9 43.6483 70.9 43.6498 70.9C43.6512 70.9 43.6527 70.9 43.6542 70.9C43.6557 70.9 43.6572 70.9 43.6587 70.9C43.6601 70.9 43.6616 70.9 43.6631 70.9C43.6646 70.9 43.6661 70.9 43.6676 70.9C43.669 70.9 43.6705 70.9 43.672 70.9C43.6735 70.9 43.675 70.9 43.6765 70.9C43.678 70.9 43.6794 70.9 43.6809 70.9C43.6824 70.9 43.6839 70.9 43.6854 70.9C43.6869 70.9 43.6884 70.9 43.6898 70.9C43.6913 70.9 43.6928 70.9 43.6943 70.9C43.6958 70.9 43.6973 70.9 43.6988 70.9C43.7003 70.9 43.7017 70.9 43.7032 70.9C43.7047 70.9 43.7062 70.9 43.7077 70.9C43.7092 70.9 43.7107 70.9 43.7122 70.9C43.7136 70.9 43.7151 70.9 43.7166 70.9C43.7181 70.9 43.7196 70.9 43.7211 70.9C43.7226 70.9 43.7241 70.9 43.7256 70.9C43.7271 70.9 43.7285 70.9 43.73 70.9C43.7315 70.9 43.733 70.9 43.7345 70.9C43.736 70.9 43.7375 70.9 43.739 70.9C43.7405 70.9 43.742 70.9 43.7434 70.9C43.7449 70.9 43.7464 70.9 43.7479 70.9C43.7494 70.9 43.7509 70.9 43.7524 70.9C43.7539 70.9 43.7554 70.9 43.7569 70.9C43.7584 70.9 43.7599 70.9 43.7614 70.9C43.7628 70.9 43.7643 70.9 43.7658 70.9C43.7673 70.9 43.7688 70.9 43.7703 70.9C43.7718 70.9 43.7733 70.9 43.7748 70.9C43.7763 70.9 43.7778 70.9 43.7793 70.9C43.7808 70.9 43.7823 70.9 43.7838 70.9C43.7853 70.9 43.7867 70.9 43.7882 70.9C43.7897 70.9 43.7912 70.9 43.7927 70.9C43.7942 70.9 43.7957 70.9 43.7972 70.9C43.7987 70.9 43.8002 70.9 43.8017 70.9C43.8032 70.9 43.8047 70.9 43.8062 70.9C43.8077 70.9 43.8092 70.9 43.8107 70.9C43.8122 70.9 43.8137 70.9 43.8152 70.9C43.8167 70.9 43.8182 70.9 43.8197 70.9C43.8212 70.9 43.8227 70.9 43.8242 70.9C43.8257 70.9 43.8272 70.9 43.8287 70.9C43.8302 70.9 43.8316 70.9 43.8331 70.9C43.8346 70.9 43.8361 70.9 43.8376 70.9C43.8391 70.9 43.8406 70.9 43.8421 70.9C43.8436 70.9 43.8451 70.9 43.8466 70.9C43.8481 70.9 43.8496 70.9 43.8511 70.9C43.8526 70.9 43.8541 70.9 43.8556 70.9C43.8571 70.9 43.8586 70.9 43.8601 70.9C43.8616 70.9 43.8631 70.9 43.8647 70.9C43.8661 70.9 43.8677 70.9 43.8692 70.9C43.8707 70.9 43.8722 70.9 43.8737 70.9C43.8752 70.9 43.8767 70.9 43.8782 70.9C43.8797 70.9 43.8812 70.9 43.8827 70.9C43.8842 70.9 43.8857 70.9 43.8872 70.9C43.8887 70.9 43.8902 70.9 43.8917 70.9C43.8932 70.9 43.8947 70.9 43.8962 70.9C43.8977 70.9 43.8992 70.9 43.9007 70.9C43.9022 70.9 43.9037 70.9 43.9052 70.9C43.9067 70.9 43.9082 70.9 43.9098 70.9C43.9113 70.9 43.9128 70.9 43.9143 70.9C43.9158 70.9 43.9173 70.9 43.9188 70.9C43.9203 70.9 43.9218 70.9 43.9233 70.9C43.9248 70.9 43.9263 70.9 43.9278 70.9C43.9293 70.9 43.9308 70.9 43.9323 70.9C43.9338 70.9 43.9354 70.9 43.9369 70.9C43.9384 70.9 43.9399 70.9 43.9414 70.9C43.9429 70.9 43.9444 70.9 43.9459 70.9C43.9474 70.9 43.9489 70.9 43.9504 70.9C43.9519 70.9 43.9535 70.9 43.955 70.9C43.9565 70.9 43.958 70.9 43.9595 70.9C43.961 70.9 43.9625 70.9 43.964 70.9C43.9655 70.9 43.967 70.9 43.9686 70.9C43.9701 70.9 43.9716 70.9 43.9731 70.9C43.9746 70.9 43.9761 70.9 43.9776 70.9C43.9791 70.9 43.9806 70.9 43.9822 70.9C43.9837 70.9 43.9852 70.9 43.9867 70.9C43.9882 70.9 43.9897 70.9 43.9912 70.9C43.9927 70.9 43.9942 70.9 43.9958 70.9C43.9973 70.9 43.9988 70.9 44.0003 70.9C44.0018 70.9 44.0033 70.9 44.0048 70.9C44.0063 70.9 44.0079 70.9 44.0094 70.9C44.0109 70.9 44.0124 70.9 44.0139 70.9C44.0154 70.9 44.0169 70.9 44.0185 70.9C44.02 70.9 44.0215 70.9 44.023 70.9C44.0245 70.9 44.026 70.9 44.0275 70.9C44.0291 70.9 44.0306 70.9 44.0321 70.9C44.0336 70.9 44.0351 70.9 44.0366 70.9C44.0382 70.9 44.0397 70.9 44.0412 70.9C44.0427 70.9 44.0442 70.9 44.0457 70.9C44.0473 70.9 44.0488 70.9 44.0503 70.9C44.0518 70.9 44.0533 70.9 44.0548 70.9C44.0564 70.9 44.0579 70.9 44.0594 70.9C44.0609 70.9 44.0624 70.9 44.0639 70.9C44.0655 70.9 44.067 70.9 44.0685 70.9C44.07 70.9 44.0715 70.9 44.0731 70.9C44.0746 70.9 44.0761 70.9 44.0776 70.9C44.0791 70.9 44.0807 70.9 44.0822 70.9C44.0837 70.9 44.0852 70.9 44.0867 70.9C44.0883 70.9 44.0898 70.9 44.0913 70.9C44.0928 70.9 44.0943 70.9 44.0959 70.9C44.0974 70.9 44.0989 70.9 44.1004 70.9C44.1019 70.9 44.1035 70.9 44.105 70.9C44.1065 70.9 44.108 70.9 44.1096 70.9C44.1111 70.9 44.1126 70.9 44.1141 70.9C44.1156 70.9 44.1172 70.9 44.1187 70.9C44.1202 70.9 44.1217 70.9 44.1233 70.9C44.1248 70.9 44.1263 70.9 44.1278 70.9C44.1294 70.9 44.1309 70.9 44.1324 70.9C44.1339 70.9 44.1354 70.9 44.137 70.9C44.1385 70.9 44.14 70.9 44.1415 70.9C44.1431 70.9 44.1446 70.9 44.1461 70.9C44.1476 70.9 44.1492 70.9 44.1507 70.9C44.1522 70.9 44.1537 70.9 44.1553 70.9C44.1568 70.9 44.1583 70.9 44.1599 70.9C44.1614 70.9 44.1629 70.9 44.1644 70.9C44.166 70.9 44.1675 70.9 44.169 70.9C44.1705 70.9 44.1721 70.9 44.1736 70.9C44.1751 70.9 44.1767 70.9 44.1782 70.9C44.1797 70.9 44.1812 70.9 44.1828 70.9C44.1843 70.9 44.1858 70.9 44.1873 70.9C44.1889 70.9 44.1904 70.9 44.1919 70.9C44.1935 70.9 44.195 70.9 44.1965 70.9C44.198 70.9 44.1996 70.9 44.2011 70.9C44.2026 70.9 44.2042 70.9 44.2057 70.9C44.2072 70.9 44.2088 70.9 44.2103 70.9C44.2118 70.9 44.2133 70.9 44.2149 70.9C44.2164 70.9 44.2179 70.9 44.2195 70.9C44.221 70.9 44.2225 70.9 44.2241 70.9C44.2256 70.9 44.2271 70.9 44.2287 70.9C44.2302 70.9 44.2317 70.9 44.2333 70.9C44.2348 70.9 44.2363 70.9 44.2379 70.9C44.2394 70.9 44.2409 70.9 44.2425 70.9C44.244 70.9 44.2455 70.9 44.2471 70.9C44.2486 70.9 44.2501 70.9 44.2517 70.9C44.2532 70.9 44.2547 70.9 44.2563 70.9C44.2578 70.9 44.2593 70.9 44.2609 70.9C44.2624 70.9 44.2639 70.9 44.2655 70.9C44.267 70.9 44.2685 70.9 44.2701 70.9C44.2716 70.9 44.2731 70.9 44.2747 70.9C44.2762 70.9 44.2778 70.9 44.2793 70.9C44.2808 70.9 44.2824 70.9 44.2839 70.9C44.2854 70.9 44.287 70.9 44.2885 70.9C44.29 70.9 44.2916 70.9 44.2931 70.9C44.2947 70.9 44.2962 70.9 44.2977 70.9C44.2993 70.9 44.3008 70.9 44.3023 70.9C44.3039 70.9 44.3054 70.9 44.307 70.9C44.3085 70.9 44.31 70.9 44.3116 70.9C44.3131 70.9 44.3147 70.9 44.3162 70.9C44.3177 70.9 44.3193 70.9 44.3208 70.9C44.3223 70.9 44.3239 70.9 44.3254 70.9C44.327 70.9 44.3285 70.9 44.3301 70.9C44.3316 70.9 44.3331 70.9 44.3347 70.9C44.3362 70.9 44.3378 70.9 44.3393 70.9C44.3408 70.9 44.3424 70.9 44.3439 70.9C44.3455 70.9 44.347 70.9 44.3485 70.9C44.3501 70.9 44.3516 70.9 44.3532 70.9C44.3547 70.9 44.3563 70.9 44.3578 70.9C44.3593 70.9 44.3609 70.9 44.3624 70.9C44.364 70.9 44.3655 70.9 44.3671 70.9C44.3686 70.9 44.3701 70.9 44.3717 70.9C44.3732 70.9 44.3748 70.9 44.3763 70.9C44.3779 70.9 44.3794 70.9 44.381 70.9C44.3825 70.9 44.384 70.9 44.3856 70.9C44.3871 70.9 44.3887 70.9 44.3902 70.9C44.3918 70.9 44.3933 70.9 44.3949 70.9C44.3964 70.9 44.3979 70.9 44.3995 70.9C44.401 70.9 44.4026 70.9 44.4041 70.9C44.4057 70.9 44.4072 70.9 44.4088 70.9C44.4103 70.9 44.4119 70.9 44.4134 70.9C44.415 70.9 44.4165 70.9 44.4181 70.9C44.4196 70.9 44.4212 70.9 44.4227 70.9C44.4243 70.9 44.4258 70.9 44.4273 70.9C44.4289 70.9 44.4304 70.9 44.432 70.9C44.4335 70.9 44.4351 70.9 44.4366 70.9C44.4382 70.9 44.4397 70.9 44.4413 70.9C44.4428 70.9 44.4444 70.9 44.4459 70.9C44.4475 70.9 44.449 70.9 44.4506 70.9C44.4521 70.9 44.4537 70.9 44.4552 70.9C44.4568 70.9 44.4583 70.9 44.4599 70.9C44.4614 70.9 44.463 70.9 44.4645 70.9C44.4661 70.9 44.4676 70.9 44.4692 70.9C44.4708 70.9 44.4723 70.9 44.4739 70.9C44.4754 70.9 44.477 70.9 44.4785 70.9C44.4801 70.9 44.4816 70.9 44.4832 70.9C44.4847 70.9 44.4863 70.9 44.4878 70.9C44.4894 70.9 44.4909 70.9 44.4925 70.9C44.494 70.9 44.4956 70.9 44.4972 70.9C44.4987 70.9 44.5003 70.9 44.5018 70.9C44.5034 70.9 44.5049 70.9 44.5065 70.9C44.508 70.9 44.5096 70.9 44.5111 70.9C44.5127 70.9 44.5143 70.9 44.5158 70.9C44.5174 70.9 44.5189 70.9 44.5205 70.9C44.522 70.9 44.5236 70.9 44.5251 70.9C44.5267 70.9 44.5283 70.9 44.5298 70.9C44.5314 70.9 44.5329 70.9 44.5345 70.9C44.536 70.9 44.5376 70.9 44.5392 70.9C44.5407 70.9 44.5423 70.9 44.5438 70.9C44.5454 70.9 44.547 70.9 44.5485 70.9C44.5501 70.9 44.5516 70.9 44.5532 70.9C44.5547 70.9 44.5563 70.9 44.5579 70.9C44.5594 70.9 44.561 70.9 44.5625 70.9C44.5641 70.9 44.5657 70.9 44.5672 70.9C44.5688 70.9 44.5703 70.9 44.5719 70.9C44.5735 70.9 44.575 70.9 44.5766 70.9C44.5781 70.9 44.5797 70.9 44.5813 70.9C44.5828 70.9 44.5844 70.9 44.5859 70.9C44.5875 70.9 44.5891 70.9 44.5906 70.9C44.5922 70.9 44.5938 70.9 44.5953 70.9C44.5969 70.9 44.5984 70.9 44.6 70.9V66.9ZM42.35 66.9C38.9554 66.9 35.8919 66.3818 33.1385 65.3722L31.7615 69.1278C35.0081 70.3182 38.5446 70.9 42.35 70.9V66.9ZM33.2147 65.402C30.4452 64.256 28.1017 62.937 26.1621 61.4591L23.7379 64.6409C25.9983 66.363 28.6548 67.844 31.6853 69.098L33.2147 65.402ZM26.2084 61.4955C24.1785 59.8523 22.7808 58.4322 21.9275 57.2375L18.6725 59.5625C19.8192 61.1678 21.5215 62.8477 23.6916 64.6045L26.2084 61.4955ZM18.443 57.6572C18.039 58.6674 17.5856 59.826 17.0833 61.132L20.8167 62.568C21.3144 61.274 21.761 60.1326 22.157 59.1428L18.443 57.6572ZM17.0384 61.2618C16.5931 62.7092 16.35 64.11 16.35 65.45H20.35C20.35 64.59 20.5069 63.5908 20.8616 62.4382L17.0384 61.2618ZM16.35 65.45C16.35 71.3461 18.0794 76.1207 21.833 79.4052L24.467 76.3948C21.8206 74.0793 20.35 70.5539 20.35 65.45H16.35ZM21.856 79.425C25.6002 82.6019 30.4472 84.1 36.2 84.1V80.1C31.1528 80.1 27.2998 78.7981 24.444 76.375L21.856 79.425Z" fill="#151515"/>
</g>
</g>
<defs>
<filter id="filter0_d_323_54" x="10.65" y="11.75" width="81.55" height="85.6001" filterUnits="userSpaceOnUse" color-interpolation-filters="sRGB">
<feFlood flood-opacity="0" result="BackgroundImageFix"/>
<feColorMatrix in="SourceAlpha" type="matrix" values="0 0 0 0 0 0 0 0 0 0 0 0 0 0 0 0 0 0 127 0" result="hardAlpha"/>
<feOffset dy="5"/>
<feGaussianBlur stdDeviation="2.5"/>
<feComposite in2="hardAlpha" operator="out"/>
<feColorMatrix type="matrix" values="0 0 0 0 0 0 0 0 0 0 0 0 0 0 0 0 0 0 0.5 0"/>
<feBlend mode="normal" in2="BackgroundImageFix" result="effect1_dropShadow_323_54"/>
<feBlend mode="normal" in="SourceGraphic" in2="effect1_dropShadow_323_54" result="shape"/>
</filter>
<clipPath id="clip0_323_54">
<rect width="100" height="100" rx="10" fill="white"/>
</clipPath>
</defs>
</svg>
