<svg width="100" height="100" viewBox="0 0 100 100" fill="none" xmlns="http://www.w3.org/2000/svg">
<rect width="100" height="100" fill="white"/>
<rect x="27" y="15" width="10" height="70" rx="5" fill="#151515"/>
<path d="M56.4883 26.8132C56.3852 25.9912 55.6352 25.4085 54.8132 25.5117L41.4183 27.1929C40.5963 27.2961 40.0136 28.0461 40.1168 28.8681C40.2199 29.69 40.9699 30.2727 41.7919 30.1696L53.6985 28.6751L55.1929 40.5817C55.2961 41.4037 56.0461 41.9864 56.8681 41.8832C57.69 41.7801 58.2727 41.0301 58.1696 40.2081L56.4883 26.8132ZM37.1845 52.3744L56.1845 27.9203L53.8155 26.0797L34.8155 50.5338L37.1845 52.3744Z" fill="#151515"/>
<path d="M73.2057 82.4858C74.0263 82.3722 74.5994 81.6149 74.4858 80.7943L72.6343 67.4218C72.5206 66.6012 71.7633 66.0281 70.9427 66.1418C70.1221 66.2554 69.549 67.0127 69.6626 67.8333L71.3084 79.7199L59.4218 81.3657C58.6012 81.4794 58.0281 82.2367 58.1418 83.0573C58.2554 83.8779 59.0127 84.451 59.8333 84.3374L73.2057 82.4858ZM35.0948 54.1961L72.0948 82.1961L73.9052 79.8039L36.9052 51.8039L35.0948 54.1961Z" fill="#151515"/>
</svg>
