<svg width="100" height="100" viewBox="0 0 100 100" fill="none" xmlns="http://www.w3.org/2000/svg">
<rect width="100" height="100" rx="8" fill="white"/>
<path d="M84.2494 10.9359L96 11.0004L41.9496 67.6054L35.4072 59.2023L84.2494 10.9359Z" fill="#151515"/>
<path d="M35.4072 59.2023L45.9811 59.3393L45.564 91.3659L34.9902 91.2282L35.4072 59.2023Z" fill="#151515"/>
<path d="M50.5676 64.4563L61.2073 59.5371L60.7902 91.5638L50.2164 91.4261L50.5676 64.4563Z" fill="#151515"/>
<path d="M61.399 12.3344L74.0874 12.4997L37.8552 50.7912L31.3644 44.818L61.399 12.3344Z" fill="#151515"/>
<path d="M16.4976 11.7498L3.0317 11.5743L31.3707 44.7441L43.2178 44.1298L16.4976 11.7498Z" fill="#151515"/>
<path d="M33.2779 12.1482L20.9933 11.3342L40.9787 34.5297L53.6572 34.3277L33.2779 12.1482Z" fill="#151515"/>
</svg>
