<svg width="100" height="100" viewBox="0 0 100 100" fill="none" xmlns="http://www.w3.org/2000/svg">
<g clip-path="url(#clip0_415_279)">
<rect width="100" height="100" rx="8" fill="white"/>
<path d="M5.80015 21.6928C5.47802 21.307 5.8068 20.7765 6.36804 20.7765L19.0889 20.7765C19.3012 20.7765 19.5018 20.8581 19.6333 20.9981L50.4114 53.7458C50.55 53.8933 50.5953 54.0879 50.5331 54.2683L45.8096 67.9606C45.6476 68.4302 44.9099 68.5331 44.5756 68.1328L5.80015 21.6928Z" fill="#151515"/>
<path d="M71.8504 3.38772C71.9784 3.0847 72.3748 2.92617 72.7358 3.03365L73.3894 3.22825C73.7504 3.33572 73.9392 3.66849 73.8112 3.97152L46.6357 68.2913C46.5077 68.5943 46.1113 68.7528 45.7503 68.6454L45.0967 68.4508C44.7357 68.3433 44.5469 68.0105 44.6749 67.7075L71.8504 3.38772Z" fill="#151515"/>
<path d="M93.6444 21.2543C93.8544 20.8884 93.4314 20.5273 92.8963 20.6155L78.6318 22.968C78.3969 23.0067 78.1986 23.128 78.1072 23.2888L49.9177 72.8852C49.8247 73.0488 49.8559 73.2295 49.9997 73.3614L58.2942 80.9626C58.6121 81.2539 59.2778 81.1655 59.485 80.8044L93.6444 21.2543Z" fill="#151515"/>
<path d="M82.1689 23.679C82.3326 23.4264 82.7442 23.3029 83.0881 23.4032L83.7108 23.5846C84.0547 23.6848 84.2007 23.9708 84.037 24.2233L37.1742 96.4988C37.0104 96.7514 36.5989 96.8749 36.255 96.7746L35.6323 96.5932C35.2884 96.493 35.1423 96.207 35.3061 95.9545L82.1689 23.679Z" fill="#151515"/>
</g>
<defs>
<clipPath id="clip0_415_279">
<rect width="100" height="100" rx="8" fill="white"/>
</clipPath>
</defs>
</svg>
