<svg width="100" height="100" viewBox="0 0 100 100" fill="none" xmlns="http://www.w3.org/2000/svg">
<rect width="100" height="100" fill="white"/>
<path fill-rule="evenodd" clip-rule="evenodd" d="M45.5 76C62.897 76 77 61.897 77 44.5C77 27.103 62.897 13 45.5 13C28.103 13 14 27.103 14 44.5C14 61.897 28.103 76 45.5 76ZM45.5 67C57.9264 67 68 56.9264 68 44.5C68 32.0736 57.9264 22 45.5 22C33.0736 22 23 32.0736 23 44.5C23 56.9264 33.0736 67 45.5 67Z" fill="#151515"/>
<path d="M71 56L74.3677 66.3647H85.2658L76.4491 72.7705L79.8168 83.1353L71 76.7295L62.1832 83.1353L65.5509 72.7705L56.7342 66.3647H67.6323L71 56Z" fill="#151515"/>
</svg>
