<svg width="100" height="100" viewBox="0 0 100 100" fill="none" xmlns="http://www.w3.org/2000/svg">
<g clip-path="url(#clip0_2264_3658)">
<rect width="100" height="100" fill="white"/>
<path d="M14.36 94.064C13.72 94.064 13.08 94.032 12.44 93.968C11.864 93.968 11.256 93.936 10.616 93.872C7.928 93.552 5.432 92.432 3.128 90.512C0.504 88.4 -0.808 86.064 -0.808 83.504C-0.808 81.008 0.408 79.12 2.84 77.84C4.824 76.752 7.16 76.208 9.848 76.208C13.496 76.208 18.52 77.52 24.92 80.144C29.336 74.576 33.272 67.664 36.728 59.408C35.832 56.336 35.384 54.064 35.384 52.592C35.384 50.288 35.832 49.136 36.728 49.136C37.752 49.136 38.648 50.16 39.416 52.208C41.72 47.664 44.024 39.856 46.328 28.784C32.248 28.848 21.592 32.688 14.36 40.304C11.928 42.928 10.712 45.712 10.712 48.656C10.712 53.904 13.56 57.744 19.256 60.176C19.768 60.432 20.376 60.656 21.08 60.848C21.784 61.04 22.648 61.264 23.672 61.52C23.992 61.648 24.152 61.776 24.152 61.904C24.152 62.224 23.928 62.384 23.48 62.384L23.288 62.288C19.384 62.032 15.8 60.496 12.536 57.68C9.016 54.608 7.256 51.152 7.256 47.312C7.256 44.368 8.44 41.68 10.808 39.248C18.616 31.056 30.552 27.056 46.616 27.248C47 24.432 47.576 21.552 48.344 18.608C48.6 18.672 48.728 19.408 48.728 20.816C48.728 21.648 48.664 22.608 48.536 23.696C48.408 24.784 48.216 25.968 47.96 27.248C52.248 27.376 56.248 27.856 59.96 28.688C64.632 22.48 69.496 19.376 74.552 19.376C76.728 19.376 78.712 19.952 80.504 21.104C82.296 22.192 83.544 23.76 84.248 25.808C84.376 26.256 84.472 26.672 84.536 27.056C84.6 27.376 84.632 27.664 84.632 27.92C84.632 28.176 84.536 28.304 84.344 28.304C84.024 28.304 83.768 27.888 83.576 27.056C83.192 25.584 82.072 24.368 80.216 23.408C78.552 22.512 76.92 22.064 75.32 22.064C71.16 22.064 67.288 24.432 63.704 29.168C71.32 30.384 77.816 33.392 83.192 38.192C89.144 43.44 92.12 49.776 92.12 57.2C92.12 61.936 91.096 66.544 89.048 71.024C86.104 77.296 81.752 82.128 75.992 85.52C70.296 88.848 63.896 90.512 56.792 90.512C49.624 90.512 41.912 88.816 33.656 85.424C29.176 91.184 22.744 94.064 14.36 94.064ZM30.584 82.448C31.736 81.232 33.016 79.536 34.424 77.36C35.832 75.184 37.24 72.496 38.648 69.296L48.056 48.56C50.168 43.888 52.152 40.016 54.008 36.944C55.864 33.808 57.528 31.44 59 29.84C57.208 29.52 55.352 29.264 53.432 29.072C51.576 28.88 49.656 28.784 47.672 28.784C47.032 31.92 46.136 35.376 44.984 39.152C43.896 42.864 42.584 46.96 41.048 51.44C41.944 50.928 42.616 50.672 43.064 50.672C43.576 50.672 43.832 50.992 43.832 51.632C43.832 53.424 41.752 56.24 37.592 60.08C35.928 63.984 34.072 67.664 32.024 71.12C30.04 74.512 27.928 77.616 25.688 80.432L30.584 82.448ZM55.832 88.88C64.664 88.88 71.96 86 77.72 80.24C83.48 74.48 86.36 67.152 86.36 58.256C86.36 51.6 84.088 45.616 79.544 40.304C75.064 34.928 69.496 31.664 62.84 30.512C61.816 32.048 60.664 34.096 59.384 36.656C58.104 39.152 56.632 42.192 54.968 45.776C52.792 50.96 49.24 58.64 44.312 68.816C40.856 75.664 37.656 80.784 34.712 84.176C42.2 87.312 49.24 88.88 55.832 88.88ZM12.536 91.76C15.736 91.76 18.936 91.056 22.136 89.648C25.784 88.112 28.344 86.16 29.816 83.792C28.216 82.896 26.584 82.128 24.92 81.488C21.016 86.288 17.624 88.688 14.744 88.688C13.4 88.688 12.728 88.304 12.728 87.536C12.728 87.216 12.92 87.056 13.304 87.056C13.432 87.056 13.688 87.088 14.072 87.152C14.456 87.28 14.744 87.344 14.936 87.344C17.496 87.344 20.568 85.264 24.152 81.104C18.136 78.48 13.144 77.168 9.176 77.168C7 77.168 5.176 77.584 3.704 78.416C1.784 79.376 0.824 80.848 0.824 82.832C0.824 85.392 2.168 87.568 4.856 89.36C7.224 90.96 9.784 91.76 12.536 91.76Z" fill="#151515"/>
</g>
<defs>
<clipPath id="clip0_2264_3658">
<rect width="100" height="100" fill="white"/>
</clipPath>
</defs>
</svg>
