<svg width="100" height="100" viewBox="0 0 100 100" fill="none" xmlns="http://www.w3.org/2000/svg">
<rect width="100" height="100" fill="white"/>
<path d="M46.5 50C53.263 50 59.749 47.5768 64.5312 43.2635C69.3134 38.9501 72 33.1 72 27C72 20.9 69.3134 15.0499 64.5312 10.7365C59.7491 6.42321 53.263 4 46.5 4L46.5 10.2407C51.428 10.2407 56.1541 12.0064 59.6387 15.1494C63.1233 18.2924 65.0809 22.5552 65.0809 27C65.0809 31.4448 63.1233 35.7076 59.6387 38.8506C56.1541 41.9936 51.428 43.7593 46.5 43.7593L46.5 50Z" fill="#151515"/>
<path d="M47 96C55.2217 96 63.1067 93.4714 68.9203 88.9706C74.7339 84.4697 78 78.3652 78 72C78 65.6348 74.7339 59.5303 68.9203 55.0294C63.1067 50.5286 55.2217 48 47 48L64.5395 69.4737C67.9543 69.4737 53.6898 63.082 56.1044 64.9514C58.519 66.8208 64.5395 75.1579 61.2763 75.1579C61.2763 77.8016 65.3225 79.2885 62.9079 81.1579C60.4933 83.0273 50.4148 81.9682 47 81.9682V96Z" fill="#151515"/>
<rect x="42" y="4" width="9" height="92" rx="4.5" fill="#151515"/>
</svg>
