<svg width="100" height="100" viewBox="0 0 100 100" fill="none" xmlns="http://www.w3.org/2000/svg">
<rect width="100" height="100" fill="white"/>
<path fill-rule="evenodd" clip-rule="evenodd" d="M91.0149 11.1142C90.0068 10.753 88.8968 11.2773 88.5356 12.2854L69.6108 65.1004L53.712 24.8046C53.3188 23.808 52.192 23.3188 51.1954 23.712C50.1987 24.1052 49.7095 25.232 50.1028 26.2286L67.6256 70.6407L66.3633 74.1633L48.1419 25.5472C47.4809 23.7837 45.5155 22.8899 43.752 23.5508C41.9885 24.2118 41.0947 26.1772 41.7557 27.9407L47.3182 42.782L38.3808 67.7246L16.712 12.8046C16.3188 11.808 15.192 11.3188 14.1954 11.712C13.1987 12.1052 12.7095 13.232 13.1028 14.2286L35.5349 71.0833C35.7598 71.6534 36.2248 72.0575 36.7681 72.2253L35.2968 76.3312L14.6042 21.122C13.9433 19.3585 11.9778 18.4646 10.2142 19.1256C8.45067 19.7866 7.55686 21.7521 8.21784 23.5156L30.4488 82.8294C30.9531 84.1748 32.2165 85.014 33.5703 85.0428C33.7327 85.1723 33.9189 85.2777 34.1254 85.3517C35.134 85.7131 36.2447 85.1884 36.6061 84.1798L49.4254 48.404L63.9856 87.2516C64.6466 89.0151 66.612 89.9089 68.3755 89.248C70.139 88.587 71.0327 86.6216 70.3718 84.8581L68.4693 79.7821L92.1861 13.5935C92.5473 12.5854 92.0229 11.4754 91.0149 11.1142Z" fill="#151515"/>
</svg>
