<svg width="100" height="100" viewBox="0 0 100 100" fill="none" xmlns="http://www.w3.org/2000/svg">
<g clip-path="url(#clip0_323_63)">
<rect width="100" height="100" rx="10" fill="white"/>
<path d="M15.1328 11.0859C17.8542 11.7305 20.2891 12.2318 22.4375 12.5898C24.6576 12.8763 26.5195 13.0911 28.0234 13.2344C29.8138 13.4492 31.3893 13.5208 32.75 13.4492C34.4688 13.3776 36.6172 13.127 39.1953 12.6973C41.7734 12.2676 44.4948 11.8379 47.3594 11.4082C50.224 10.9785 53.0527 10.6204 55.8457 10.334C58.6387 10.0475 61.0736 10.0117 63.1504 10.2266C65.2272 10.4414 67.4115 10.9427 69.7031 11.7305C71.9948 12.4466 74.1432 13.4492 76.1484 14.7383C78.1536 15.9557 79.8724 17.4596 81.3047 19.25C82.8086 21.0404 83.7396 23.1172 84.0977 25.4805C84.4557 27.7721 84.2409 30.2428 83.4531 32.8926C82.6654 35.4707 81.4121 38.013 79.6934 40.5195C77.9746 42.9544 75.8262 45.2103 73.248 47.2871C70.6699 49.3639 67.8053 51.0469 64.6543 52.3359C62.1478 53.2669 59.4264 53.9831 56.4902 54.4844C53.9837 54.9141 51.0475 55.2005 47.6816 55.3438C44.3874 55.4154 40.8783 55.0573 37.1543 54.2695C36.653 56.3464 36.3665 58.2799 36.2949 60.0703C36.2949 61.7891 36.3665 63.3288 36.5098 64.6895C36.7246 66.265 37.0111 67.6973 37.3691 68.9863C37.7988 70.2754 38.3359 71.7793 38.9805 73.498C39.5534 74.9303 40.1979 76.6849 40.9141 78.7617C41.7018 80.7669 42.6328 83.0228 43.707 85.5293C42.418 85.5293 41.1647 85.5651 39.9473 85.6367C38.7298 85.6367 37.6198 85.6725 36.6172 85.7441C35.4714 85.8158 34.3971 85.8874 33.3945 85.959C32.2487 86.0306 30.9596 86.1738 29.5273 86.3887C28.3099 86.5319 26.7702 86.7467 24.9082 87.0332C23.1178 87.3197 21.0768 87.6777 18.7852 88.1074C20.2891 85.959 21.4707 83.9896 22.3301 82.1992C23.2611 80.3372 23.9414 78.7259 24.3711 77.3652C24.8724 75.7897 25.1947 74.3574 25.3379 73.0684C25.4095 71.9941 25.4095 70.0964 25.3379 67.375C25.3379 64.6536 25.3021 61.5026 25.2305 57.9219C25.1589 54.3411 25.0514 50.5814 24.9082 46.6426C24.765 42.7038 24.5859 39.0156 24.3711 35.5781C24.1562 32.069 23.9056 29.0612 23.6191 26.5547C23.4043 24.0482 23.1895 22.401 22.9746 21.6133C22.6882 20.6823 22.1868 19.6797 21.4707 18.6055C20.8978 17.6745 20.0742 16.6003 19 15.3828C17.9974 14.0938 16.7083 12.6615 15.1328 11.0859ZM37.3691 32.248C37.2975 32.9642 37.2617 33.7161 37.2617 34.5039C37.2617 36.0078 37.3691 37.9414 37.584 40.3047C38.0853 41.5221 38.694 42.5247 39.4102 43.3125C40.1979 44.1003 41.0215 44.709 41.8809 45.1387C42.8118 45.5684 43.7428 45.8548 44.6738 45.998C45.6048 46.1413 46.5358 46.2129 47.4668 46.2129C49.6152 46.1413 51.8711 45.64 54.2344 44.709C57.3854 43.3483 59.6055 41.4147 60.8945 38.9082C62.1836 36.4017 62.8639 33.8236 62.9355 31.1738C63.0072 28.5241 62.5417 26.0892 61.5391 23.8691C60.6081 21.6491 59.4622 20.1452 58.1016 19.3574C56.9557 18.8561 55.4876 18.6413 53.6973 18.7129C52.1217 18.7845 50.1523 19.1784 47.7891 19.8945C45.4258 20.6107 42.5254 21.8997 39.0879 23.7617C38.7298 25.0508 38.4434 26.1966 38.2285 27.1992C38.0137 28.2018 37.8346 29.097 37.6914 29.8848C37.5482 30.7441 37.4408 31.5319 37.3691 32.248Z" fill="#151515"/>
<path d="M16.1328 16.0859C18.8542 16.7305 21.2891 17.2318 23.4375 17.5898C25.6576 17.8763 27.5195 18.0911 29.0234 18.2344C30.8138 18.4492 32.3893 18.5208 33.75 18.4492C35.4688 18.3776 37.6172 18.127 40.1953 17.6973C42.7734 17.2676 45.4948 16.8379 48.3594 16.4082C51.224 15.9785 54.0527 15.6204 56.8457 15.334C59.6387 15.0475 62.0736 15.0117 64.1504 15.2266C66.2272 15.4414 68.4115 15.9427 70.7031 16.7305C72.9948 17.4466 75.1432 18.4492 77.1484 19.7383C79.1536 20.9557 80.8724 22.4596 82.3047 24.25C83.8086 26.0404 84.7396 28.1172 85.0977 30.4805C85.4557 32.7721 85.2409 35.2428 84.4531 37.8926C83.6654 40.4707 82.4121 43.013 80.6934 45.5195C78.9746 47.9544 76.8262 50.2103 74.248 52.2871C71.6699 54.3639 68.8053 56.0469 65.6543 57.3359C63.1478 58.2669 60.4264 58.9831 57.4902 59.4844C54.9837 59.9141 52.0475 60.2005 48.6816 60.3438C45.3874 60.4154 41.8783 60.0573 38.1543 59.2695C37.653 61.3464 37.3665 63.2799 37.2949 65.0703C37.2949 66.7891 37.3665 68.3288 37.5098 69.6895C37.7246 71.265 38.0111 72.6973 38.3691 73.9863C38.7988 75.2754 39.3359 76.7793 39.9805 78.498C40.5534 79.9303 41.1979 81.6849 41.9141 83.7617C42.7018 85.7669 43.6328 88.0228 44.707 90.5293C43.418 90.5293 42.1647 90.5651 40.9473 90.6367C39.7298 90.6367 38.6198 90.6725 37.6172 90.7441C36.4714 90.8158 35.3971 90.8874 34.3945 90.959C33.2487 91.0306 31.9596 91.1738 30.5273 91.3887C29.3099 91.5319 27.7702 91.7467 25.9082 92.0332C24.1178 92.3197 22.0768 92.6777 19.7852 93.1074C21.2891 90.959 22.4707 88.9896 23.3301 87.1992C24.2611 85.3372 24.9414 83.7259 25.3711 82.3652C25.8724 80.7897 26.1947 79.3574 26.3379 78.0684C26.4095 76.9941 26.4095 75.0964 26.3379 72.375C26.3379 69.6536 26.3021 66.5026 26.2305 62.9219C26.1589 59.3411 26.0514 55.5814 25.9082 51.6426C25.765 47.7038 25.5859 44.0156 25.3711 40.5781C25.1562 37.069 24.9056 34.0612 24.6191 31.5547C24.4043 29.0482 24.1895 27.401 23.9746 26.6133C23.6882 25.6823 23.1868 24.6797 22.4707 23.6055C21.8978 22.6745 21.0742 21.6003 20 20.3828C18.9974 19.0938 17.7083 17.6615 16.1328 16.0859ZM38.3691 37.248C38.2975 37.9642 38.2617 38.7161 38.2617 39.5039C38.2617 41.0078 38.3691 42.9414 38.584 45.3047C39.0853 46.5221 39.694 47.5247 40.4102 48.3125C41.1979 49.1003 42.0215 49.709 42.8809 50.1387C43.8118 50.5684 44.7428 50.8548 45.6738 50.998C46.6048 51.1413 47.5358 51.2129 48.4668 51.2129C50.6152 51.1413 52.8711 50.64 55.2344 49.709C58.3854 48.3483 60.6055 46.4147 61.8945 43.9082C63.1836 41.4017 63.8639 38.8236 63.9355 36.1738C64.0072 33.5241 63.5417 31.0892 62.5391 28.8691C61.6081 26.6491 60.4622 25.1452 59.1016 24.3574C57.9557 23.8561 56.4876 23.6413 54.6973 23.7129C53.1217 23.7845 51.1523 24.1784 48.7891 24.8945C46.4258 25.6107 43.5254 26.8997 40.0879 28.7617C39.7298 30.0508 39.4434 31.1966 39.2285 32.1992C39.0137 33.2018 38.8346 34.097 38.6914 34.8848C38.5482 35.7441 38.4408 36.5319 38.3691 37.248Z" fill="black"/>
</g>
<defs>
<clipPath id="clip0_323_63">
<rect width="100" height="100" rx="10" fill="white"/>
</clipPath>
</defs>
</svg>
