<svg width="99" height="125" viewBox="0 0 99 125" fill="none" xmlns="http://www.w3.org/2000/svg">
<rect width="99" height="125" fill="white"/>
<path d="M55.7689 58.8095C55.7689 60.8406 55.3284 62.3578 54.4474 63.3611C53.5665 64.3399 52.245 64.8294 50.4831 64.8294C48.8925 64.8294 47.6935 64.5357 46.8859 63.9484C46.1028 63.3366 45.7113 62.4312 45.7113 61.2321C45.7113 60.6448 45.8704 60.1187 46.1885 59.6538C46.5066 59.1644 46.9838 58.7483 47.62 58.4058L48.6845 59.1766C48.5132 59.3724 48.3786 59.5681 48.2808 59.7639C48.1829 59.9352 48.1339 60.1065 48.1339 60.2778C48.1339 60.7672 48.2808 61.1343 48.5744 61.379C48.8681 61.5992 49.2963 61.7093 49.8591 61.7093C50.6422 61.7093 51.2173 61.5258 51.5843 61.1587C51.9514 60.7672 52.1349 60.1677 52.1349 59.3601C52.1349 58.7239 51.9636 58.1488 51.621 57.6349C51.3029 57.121 50.8135 56.6806 50.1528 56.3135C49.6389 56.0198 49.0638 55.7996 48.4276 55.6528C47.8158 55.506 47.1429 55.4325 46.4087 55.4325C45.4788 55.4325 44.6346 55.5549 43.876 55.7996C43.1419 56.0198 42.4444 56.3624 41.7837 56.8274C41.0741 57.3413 40.548 57.953 40.2054 58.6627C39.8628 59.3724 39.6915 60.1677 39.6915 61.0486C39.6915 61.9051 40.0218 62.7493 40.6825 63.5813C41.3433 64.3889 42.3099 65.1964 43.5823 66.004C45.8826 67.4722 47.6323 68.5856 48.8314 69.3442C50.0549 70.1028 50.7034 70.5188 50.7768 70.5923C52.0982 71.6935 53.0771 72.8925 53.7133 74.1895C54.3495 75.462 54.6677 76.869 54.6677 78.4107C54.6677 80.4663 54.2761 82.3261 53.4931 83.9901C52.7345 85.6541 51.5599 87.0979 49.9692 88.3214C48.5255 89.4471 46.8981 90.3036 45.0873 90.8909C43.3009 91.4782 41.3433 91.7718 39.2143 91.7718C37.8194 91.7718 36.4858 91.6005 35.2133 91.2579C33.9408 90.9398 32.705 90.4504 31.506 89.7897C30.2824 89.129 29.2057 88.3214 28.2758 87.3671C27.3704 86.4127 26.6118 85.3237 26 84.1002L28.7163 81.5675C29.8419 83.672 31.2245 85.2381 32.8641 86.2659C34.5036 87.2937 36.3879 87.8075 38.5169 87.8075C40.4501 87.8075 42.0284 87.2447 43.252 86.119C44.5 84.9689 45.124 83.4517 45.124 81.5675C45.124 80.3439 44.8426 79.1571 44.2798 78.0069C43.7414 76.8323 42.9094 75.6944 41.7837 74.5933C40.756 73.6878 39.7159 72.7824 38.6637 71.877C37.6114 70.9716 36.5592 70.0661 35.5069 69.1607C34.4058 68.0351 33.5737 66.8604 33.0109 65.6369C32.4481 64.4134 32.1667 63.1286 32.1667 61.7827C32.1667 60.1432 32.5215 58.6749 33.2312 57.378C33.9408 56.081 34.9808 54.9431 36.3512 53.9643C37.5503 53.1078 38.8839 52.4838 40.3522 52.0923C41.8449 51.7007 43.46 51.505 45.1974 51.505C46.6412 51.505 47.9504 51.6395 49.125 51.9087C50.2996 52.1534 51.3396 52.5205 52.245 53.0099C53.4441 53.6462 54.3251 54.4537 54.8879 55.4325C55.4752 56.4114 55.7689 57.537 55.7689 58.8095ZM36.0942 75.4742C36.0942 76.7222 35.6538 77.7867 34.7728 78.6677C33.8919 79.5241 32.8396 79.9524 31.6161 79.9524C30.3925 79.9524 29.3403 79.5119 28.4593 78.631C27.5784 77.75 27.1379 76.6978 27.1379 75.4742C27.1379 74.2507 27.5784 73.1984 28.4593 72.3175C29.3403 71.4365 30.3925 70.996 31.6161 70.996C32.8396 70.996 33.8919 71.4365 34.7728 72.3175C35.6538 73.1984 36.0942 74.2507 36.0942 75.4742Z" fill="#151515"/>
<path d="M44.5526 61.6389L43.8092 60.9699L43.8011 60.9791L44.5526 61.6389ZM52.1141 61.0516L52.7297 60.2636L52.7162 60.253L52.7023 60.2429L52.1141 61.0516ZM52.8115 65.3462L51.9862 64.7815L51.9795 64.7913L51.9731 64.8012L52.8115 65.3462ZM51.38 66.5942L50.7934 67.4042L51.3016 67.7722L51.8541 67.4747L51.38 66.5942ZM50.3155 65.8234L49.5629 65.1649L48.8408 65.9902L49.729 66.6334L50.3155 65.8234ZM50.7192 65.2361L49.851 64.74L49.8372 64.7641L49.8248 64.7889L50.7192 65.2361ZM50.4256 63.621L51.0658 62.8528L51.0461 62.8364L51.0256 62.821L50.4256 63.621ZM47.4157 63.8413L46.7086 63.1342L46.6972 63.1456L46.6861 63.1573L47.4157 63.8413ZM47.379 67.3651L48.2292 66.8387L48.2204 66.8244L48.211 66.8104L47.379 67.3651ZM48.8472 68.6865L49.3434 67.8182L49.3329 67.8124L48.8472 68.6865ZM50.5724 69.3472L50.8058 68.3748L50.7973 68.3728L50.5724 69.3472ZM55.124 69.2004L54.8367 68.2426L54.8268 68.2455L54.817 68.2487L55.124 69.2004ZM57.2163 68.1726L57.7918 68.9905L57.8028 68.9826L57.2163 68.1726ZM58.3175 61.4187L59.1006 60.7968L59.096 60.7911L59.0914 60.7854L58.3175 61.4187ZM55.4177 58.996L54.8796 59.839L54.8818 59.8404L55.4177 58.996ZM50.1686 55.6558L50.7033 54.8106L50.6956 54.8059L50.1686 55.6558ZM48.2232 54.4077L48.9303 53.7006L48.8982 53.6686L48.8634 53.6395L48.2232 54.4077ZM45.2867 50.8105L46.1845 50.3701L46.1811 50.3633L45.2867 50.8105ZM45.5069 41.0099L46.4118 41.4357L46.4169 41.4247L45.5069 41.0099ZM49.0308 36.6786L49.6405 37.4712L49.6456 37.4672L49.0308 36.6786ZM53.9127 34.1091L54.2212 35.0604L54.225 35.0591L53.9127 34.1091ZM63.7867 33.7421L63.5267 34.7077L63.5354 34.71L63.5442 34.7122L63.7867 33.7421ZM67.494 35.2103L67.0114 36.0862L67.0189 36.0902L67.494 35.2103ZM70.7242 37.6329L71.4497 36.9446L71.4404 36.9351L70.7242 37.6329ZM73 40.8998L73.682 41.6312L74.2288 41.1213L73.8944 40.4526L73 40.8998ZM70.2837 43.4325L69.4019 43.9042L70.015 45.0504L70.9657 44.1639L70.2837 43.4325ZM55.748 38.881L55.071 38.145L55.0703 38.1456L55.748 38.881ZM54.7202 46.9931L55.6293 46.5764L55.624 46.5649L55.6185 46.5535L54.7202 46.9931ZM57.2163 50.4067L56.517 51.1216L56.5356 51.1398L56.5552 51.1571L57.2163 50.4067ZM60.3363 53.123L60.9886 52.365L60.3363 53.123ZM63.4931 55.8393L64.2079 55.14L64.1779 55.1093L64.1453 55.0813L63.4931 55.8393ZM62.6488 71.0357L62.0676 70.222L62.6488 71.0357ZM58.6478 72.9077L58.9015 73.875L58.9055 73.874L58.6478 72.9077ZM49.875 73.0913L50.0984 72.1165L50.0887 72.1143L50.079 72.1123L49.875 73.0913ZM46.755 71.9901L47.2305 71.1103L47.2237 71.1067L46.755 71.9901ZM44.1121 69.5675L44.979 69.069L44.9744 69.0609L44.9696 69.053L44.1121 69.5675ZM64.2272 46.3323L63.53 45.6153L63.5201 45.6252L64.2272 46.3323ZM44.2311 66.1905C44.2311 64.2802 44.6487 63.045 45.304 62.2987L43.8011 60.9791C42.6945 62.2394 42.2311 64.0386 42.2311 66.1905H44.2311ZM45.2959 62.3079C45.929 61.6044 46.9379 61.1706 48.5169 61.1706V59.1706C46.572 59.1706 44.9381 59.7157 43.8093 60.9699L45.2959 62.3079ZM48.5169 61.1706C50.012 61.1706 50.9638 61.4515 51.5259 61.8603L52.7023 60.2429C51.6493 59.4771 50.203 59.1706 48.5169 59.1706V61.1706ZM51.4984 61.8396C51.9881 62.2221 52.2887 62.8058 52.2887 63.7679H54.2887C54.2887 62.3318 53.8062 61.1046 52.7297 60.2636L51.4984 61.8396ZM52.2887 63.7679C52.2887 64.1627 52.1855 64.4903 51.9862 64.7815L53.6368 65.9109C54.0738 65.2723 54.2887 64.5476 54.2887 63.7679H52.2887ZM51.9731 64.8012C51.7656 65.1204 51.4291 65.432 50.9059 65.7138L51.8541 67.4747C52.6033 67.0713 53.2211 66.5509 53.65 65.8912L51.9731 64.8012ZM51.9665 65.7843L50.902 65.0135L49.729 66.6334L50.7934 67.4042L51.9665 65.7843ZM51.0681 66.4819C51.2852 66.2337 51.4713 65.968 51.6137 65.6833L49.8248 64.7889C49.7714 64.8958 49.6883 65.0216 49.5629 65.1649L51.0681 66.4819ZM51.5875 65.7323C51.7584 65.4331 51.8661 65.0925 51.8661 64.7222H49.8661C49.8661 64.7173 49.8664 64.7128 49.8669 64.7093C49.8674 64.7058 49.8679 64.7041 49.8678 64.7044C49.8677 64.705 49.8643 64.7167 49.851 64.74L51.5875 65.7323ZM51.8661 64.7222C51.8661 64.0259 51.6485 63.3384 51.0658 62.8528L49.7854 64.3893C49.79 64.3931 49.8661 64.4397 49.8661 64.7222H51.8661ZM51.0256 62.821C50.4884 62.4181 49.8113 62.2907 49.1409 62.2907V64.2907C49.5961 64.2907 49.7755 64.3834 49.8256 64.421L51.0256 62.821ZM49.1409 62.2907C48.2256 62.2907 47.3399 62.5028 46.7086 63.1342L48.1228 64.5484C48.2256 64.4456 48.49 64.2907 49.1409 64.2907V62.2907ZM46.6861 63.1573C46.0753 63.8089 45.8651 64.7036 45.8651 65.6399H47.8651C47.8651 64.9611 48.022 64.6567 48.1452 64.5252L46.6861 63.1573ZM45.8651 65.6399C45.8651 66.4672 46.0914 67.2365 46.5469 67.9198L48.211 66.8104C47.9814 66.4659 47.8651 66.085 47.8651 65.6399H45.8651ZM46.5287 67.8914C46.9565 68.5825 47.5885 69.1312 48.3616 69.5607L49.3329 67.8124C48.7845 67.5077 48.4377 67.1754 48.2292 66.8387L46.5287 67.8914ZM48.3511 69.5548C48.958 69.9016 49.6259 70.1551 50.3476 70.3216L50.7973 68.3728C50.2464 68.2457 49.7642 68.0588 49.3434 67.8183L48.3511 69.5548ZM50.339 70.3196C51.0387 70.4875 51.7912 70.5675 52.5913 70.5675V68.5675C51.923 68.5675 51.3297 68.5006 50.8058 68.3748L50.339 70.3196ZM52.5913 70.5675C53.6084 70.5675 54.5583 70.4336 55.431 70.1521L54.817 68.2487C54.1725 68.4566 53.4339 68.5675 52.5913 68.5675V70.5675ZM55.4114 70.1582C56.2539 69.9055 57.0479 69.5139 57.7918 68.9904L56.6408 67.3548C56.0632 67.7613 55.4624 68.0549 54.8367 68.2426L55.4114 70.1582ZM57.8028 68.9826C58.6313 68.3826 59.2728 67.647 59.6952 66.7721L57.8941 65.9026C57.6313 66.447 57.2206 66.9349 56.6298 67.3627L57.8028 68.9826ZM59.6952 66.7721C60.1106 65.9116 60.3085 64.965 60.3085 63.9514H58.3085C58.3085 64.6997 58.1639 65.3437 57.8941 65.9026L59.6952 66.7721ZM60.3085 63.9514C60.3085 62.8191 59.8671 61.7621 59.1006 60.7968L57.5343 62.0405C58.0892 62.7393 58.3085 63.3707 58.3085 63.9514H60.3085ZM59.0914 60.7854C58.3403 59.8674 57.2797 58.9933 55.9535 58.1517L54.8818 59.8404C56.1006 60.6138 56.9732 61.3548 57.5435 62.0519L59.0914 60.7854ZM55.9557 58.1531C53.6551 56.6847 51.9041 55.5704 50.7033 54.8107L49.634 56.5008C50.8313 57.2583 52.5797 58.3709 54.8796 59.839L55.9557 58.1531ZM50.6956 54.8059C50.0851 54.4274 49.6223 54.1369 49.3046 53.9331C49.1451 53.8308 49.0271 53.7535 48.9473 53.6993C48.9069 53.6719 48.8819 53.6543 48.8686 53.6446C48.8378 53.622 48.8783 53.6486 48.9303 53.7006L47.5161 55.1148C47.5865 55.1852 47.6633 55.2409 47.6868 55.2581C47.7278 55.2881 47.7751 55.321 47.8249 55.3547C47.9255 55.4229 48.0599 55.5108 48.2247 55.6165C48.5555 55.8287 49.0286 56.1255 49.6417 56.5057L50.6956 54.8059ZM48.8634 53.6395C47.6296 52.6114 46.7482 51.5192 46.1845 50.3701L44.3889 51.2509C45.0977 52.6958 46.1739 54.0017 47.583 55.176L48.8634 53.6395ZM46.1811 50.3633C45.62 49.2411 45.3323 47.9889 45.3323 46.5893H43.3323C43.3323 48.273 43.6809 49.835 44.3923 51.2577L46.1811 50.3633ZM45.3323 46.5893C45.3323 44.6635 45.6984 42.9516 46.4118 41.4357L44.6021 40.5841C43.7493 42.3963 43.3323 44.404 43.3323 46.5893H45.3323ZM46.4169 41.4247C47.1013 39.9234 48.1664 38.6051 49.6405 37.4712L48.421 35.8859C46.7139 37.1992 45.4298 38.7684 44.597 40.5951L46.4169 41.4247ZM49.6456 37.4672C50.9939 36.416 52.5167 35.6132 54.2212 35.0603L53.6042 33.1579C51.687 33.7797 49.9552 34.6898 48.4159 35.8899L49.6456 37.4672ZM54.225 35.0591C55.8983 34.509 57.749 34.2282 59.7857 34.2282V32.2282C57.5645 32.2282 55.4999 32.5347 53.6004 33.1591L54.225 35.0591ZM59.7857 34.2282C61.0979 34.2282 62.3438 34.3892 63.5267 34.7077L64.0467 32.7765C62.6846 32.4097 61.2632 32.2282 59.7857 32.2282V34.2282ZM63.5442 34.7122C64.7293 35.0085 65.8847 35.4653 67.0114 36.0862L67.9767 34.3345C66.7053 33.6339 65.3891 33.1119 64.0292 32.7719L63.5442 34.7122ZM67.0189 36.0902C68.1572 36.7049 69.1518 37.4521 70.008 38.3308L71.4404 36.9351C70.4368 35.9051 69.2779 35.0371 67.9692 34.3304L67.0189 36.0902ZM69.9987 38.3212C70.8336 39.2012 71.5362 40.2082 72.1056 41.347L73.8944 40.4526C73.2403 39.1443 72.4257 37.9734 71.4497 36.9447L69.9987 38.3212ZM72.318 40.1684L69.6018 42.7012L70.9657 44.1639L73.682 41.6312L72.318 40.1684ZM71.1655 42.9609C69.9767 40.7383 68.485 39.0264 66.667 37.8868L65.6048 39.5814C67.066 40.4974 68.3394 41.9178 69.4019 43.9042L71.1655 42.9609ZM66.667 37.8868C64.8526 36.7494 62.7805 36.1925 60.4831 36.1925V38.1925C62.4437 38.1925 64.1402 38.6633 65.6048 39.5814L66.667 37.8868ZM60.4831 36.1925C58.3427 36.1925 56.5088 36.8222 55.071 38.145L56.4251 39.6169C57.4343 38.6884 58.7572 38.1925 60.4831 38.1925V36.1925ZM55.0703 38.1456C53.593 39.5071 52.876 41.3031 52.876 43.4325H54.876C54.876 41.7935 55.407 40.5551 56.4257 39.6163L55.0703 38.1456ZM52.876 43.4325C52.876 44.8156 53.1954 46.1522 53.822 47.4326L55.6185 46.5535C55.1194 45.5337 54.876 44.4966 54.876 43.4325H52.876ZM53.8112 47.4097C54.4104 48.7171 55.3223 49.9529 56.517 51.1216L57.9156 49.6919C56.8589 48.6582 56.1068 47.6182 55.6293 46.5764L53.8112 47.4097ZM56.5552 51.1571C57.586 52.0651 58.6289 52.9731 59.6841 53.881L60.9886 52.365C59.9392 51.4621 58.9021 50.5592 57.8773 49.6564L56.5552 51.1571ZM59.6841 53.881C59.685 53.8818 59.6955 53.8909 59.6964 53.8916C59.6973 53.8924 59.7078 53.9015 59.7087 53.9022C59.7096 53.903 59.7201 53.9121 59.7211 53.9129C59.722 53.9136 59.7325 53.9227 59.7334 53.9235C59.7343 53.9243 59.7448 53.9333 59.7457 53.9341C59.7466 53.9349 59.7571 53.9439 59.7581 53.9447C59.759 53.9455 59.7695 53.9545 59.7704 53.9553C59.7713 53.9561 59.7818 53.9651 59.7827 53.9659C59.7836 53.9667 59.7941 53.9757 59.795 53.9765C59.796 53.9773 59.8065 53.9863 59.8074 53.9871C59.8083 53.9879 59.8188 53.997 59.8197 53.9977C59.8206 53.9985 59.8311 54.0076 59.832 54.0084C59.833 54.0091 59.8435 54.0182 59.8444 54.019C59.8453 54.0198 59.8558 54.0288 59.8567 54.0296C59.8576 54.0304 59.8681 54.0394 59.869 54.0402C59.8699 54.041 59.8804 54.05 59.8814 54.0508C59.8823 54.0516 59.8928 54.0606 59.8937 54.0614C59.8946 54.0622 59.9051 54.0712 59.906 54.072C59.9069 54.0728 59.9174 54.0818 59.9184 54.0826C59.9193 54.0834 59.9298 54.0925 59.9307 54.0932C59.9316 54.094 59.9421 54.1031 59.943 54.1038C59.9439 54.1046 59.9544 54.1137 59.9553 54.1145C59.9563 54.1152 59.9668 54.1243 59.9677 54.1251C59.9686 54.1259 59.9791 54.1349 59.98 54.1357C59.9809 54.1365 59.9914 54.1455 59.9923 54.1463C59.9933 54.1471 60.0038 54.1561 60.0047 54.1569C60.0056 54.1577 60.0161 54.1667 60.017 54.1675C60.0179 54.1683 60.0284 54.1773 60.0293 54.1781C60.0303 54.1789 60.0408 54.1879 60.0417 54.1887C60.0426 54.1895 60.0531 54.1986 60.054 54.1993C60.0549 54.2001 60.0654 54.2092 60.0663 54.21C60.0672 54.2107 60.0777 54.2198 60.0787 54.2206C60.0796 54.2213 60.0901 54.2304 60.091 54.2312C60.0919 54.232 60.1024 54.241 60.1033 54.2418C60.1042 54.2426 60.1147 54.2516 60.1157 54.2524C60.1166 54.2532 60.1271 54.2622 60.128 54.263C60.1289 54.2638 60.1394 54.2728 60.1403 54.2736C60.1412 54.2744 60.1517 54.2834 60.1526 54.2842C60.1536 54.285 60.1641 54.294 60.165 54.2948C60.1659 54.2956 60.1764 54.3047 60.1773 54.3054C60.1782 54.3062 60.1887 54.3153 60.1896 54.3161C60.1906 54.3168 60.2011 54.3259 60.202 54.3267C60.2303 54.351 60.186 54.3129 60.2143 54.3373C60.2503 54.3682 60.1906 54.3169 60.2266 54.3479C60.2708 54.3859 60.2072 54.3311 60.2513 54.3691C60.2954 54.4071 60.2318 54.3523 60.276 54.3903C60.36 54.4627 60.2905 54.4029 60.3746 54.4752C60.4587 54.5475 60.3892 54.4878 60.4733 54.5601C60.5573 54.6324 60.4878 54.5727 60.5719 54.645C60.656 54.7173 60.5865 54.6575 60.6706 54.7299C60.7147 54.7678 60.6511 54.7131 60.6952 54.7511C60.6973 54.7529 60.6993 54.7546 60.7014 54.7564C60.7034 54.7582 60.7055 54.7599 60.7075 54.7617C60.7096 54.7635 60.7117 54.7652 60.7137 54.767C60.7158 54.7688 60.7178 54.7705 60.7199 54.7723C60.745 54.7939 60.7441 54.7932 60.7692 54.8147C60.7826 54.8263 60.8544 54.8881 60.8678 54.8996C61.0454 55.0524 61.0849 55.0864 61.2624 55.2392C61.3089 55.2791 61.4133 55.369 61.4597 55.4089C61.5062 55.4489 61.6106 55.5387 61.657 55.5787C61.7035 55.6187 61.8079 55.7085 61.8543 55.7485C61.9008 55.7884 62.0052 55.8783 62.0516 55.9182C62.0981 55.9582 62.2025 56.048 62.2489 56.088C62.2954 56.128 62.3998 56.2178 62.4462 56.2578C62.4927 56.2977 62.5971 56.3876 62.6435 56.4275C62.69 56.4675 62.7944 56.5573 62.8408 56.5973L64.1453 55.0813C63.9677 54.9285 63.9283 54.8945 63.7507 54.7417C63.5731 54.5889 63.5337 54.555 63.3561 54.4022C63.1785 54.2494 63.1391 54.2155 62.9615 54.0627C62.7839 53.9099 62.7445 53.8759 62.5669 53.7231C62.5205 53.6832 62.4161 53.5933 62.3696 53.5534C62.3232 53.5134 62.2188 53.4236 62.1723 53.3836C62.1473 53.362 62.0988 53.3203 62.0737 53.2987C62.0602 53.2872 62.0378 53.2678 62.0244 53.2563C62.0164 53.2495 62.02 53.2525 62.012 53.2457C62.0047 53.2394 62.007 53.2414 61.9997 53.2351C61.9801 53.2182 61.9946 53.2307 61.975 53.2138C61.9349 53.1793 61.8178 53.0786 61.7777 53.0441C61.7376 53.0096 61.6205 52.9088 61.5804 52.8743C61.5692 52.8646 61.5424 52.8415 61.5311 52.8319C61.492 52.7982 61.5209 52.823 61.4818 52.7894C61.4797 52.7877 61.4777 52.7859 61.4756 52.7841C61.4736 52.7823 61.4715 52.7806 61.4695 52.7788C61.4674 52.777 61.4654 52.7753 61.4633 52.7735C61.4612 52.7717 61.4592 52.77 61.4571 52.7682C61.4551 52.7664 61.453 52.7647 61.451 52.7629C61.4489 52.7611 61.4469 52.7594 61.4448 52.7576C61.4427 52.7558 61.4407 52.7541 61.4386 52.7523C61.4366 52.7505 61.4345 52.7487 61.4325 52.747C61.4304 52.7452 61.4284 52.7434 61.4263 52.7417C61.4242 52.7399 61.4222 52.7381 61.4201 52.7364C61.4181 52.7346 61.416 52.7328 61.414 52.7311C61.4119 52.7293 61.4099 52.7275 61.4078 52.7258C61.4058 52.724 61.4037 52.7222 61.4016 52.7205C61.3996 52.7187 61.3975 52.7169 61.3955 52.7151C61.3934 52.7134 61.3914 52.7116 61.3893 52.7098C61.3873 52.7081 61.3852 52.7063 61.3831 52.7045C61.3811 52.7028 61.379 52.701 61.377 52.6992C61.3749 52.6975 61.3729 52.6957 61.3708 52.6939C61.3688 52.6922 61.3667 52.6904 61.3646 52.6886C61.3626 52.6869 61.3605 52.6851 61.3585 52.6833C61.3564 52.6815 61.3544 52.6798 61.3523 52.678C61.3503 52.6762 61.3482 52.6745 61.3462 52.6727C61.3441 52.6709 61.342 52.6692 61.34 52.6674C61.3379 52.6656 61.3359 52.6639 61.3338 52.6621C61.3318 52.6603 61.3297 52.6586 61.3277 52.6568C61.3256 52.655 61.3235 52.6533 61.3215 52.6515C61.3194 52.6497 61.3174 52.6479 61.3153 52.6462C61.3133 52.6444 61.3112 52.6426 61.3092 52.6409C61.3071 52.6391 61.305 52.6373 61.303 52.6356C61.3009 52.6338 61.2989 52.632 61.2968 52.6303C61.2948 52.6285 61.2927 52.6267 61.2907 52.625C61.2886 52.6232 61.2866 52.6214 61.2845 52.6197C61.2824 52.6179 61.2804 52.6161 61.2783 52.6143C61.2763 52.6126 61.2742 52.6108 61.2722 52.609C61.2701 52.6073 61.2681 52.6055 61.266 52.6037C61.2639 52.602 61.2619 52.6002 61.2598 52.5984C61.2578 52.5967 61.2557 52.5949 61.2537 52.5931C61.2516 52.5914 61.2496 52.5896 61.2475 52.5878C61.2454 52.5861 61.2434 52.5843 61.2413 52.5825C61.2393 52.5807 61.2372 52.579 61.2352 52.5772C61.2331 52.5754 61.2311 52.5737 61.229 52.5719C61.227 52.5701 61.2249 52.5684 61.2228 52.5666C61.2208 52.5648 61.2187 52.5631 61.2167 52.5613C61.2146 52.5595 61.2126 52.5578 61.2105 52.556C61.2085 52.5542 61.2064 52.5525 61.2043 52.5507C61.2023 52.5489 61.2002 52.5471 61.1982 52.5454C61.1961 52.5436 61.1941 52.5418 61.192 52.5401C61.19 52.5383 61.1879 52.5365 61.1858 52.5348C61.1838 52.533 61.1817 52.5312 61.1797 52.5295C61.1776 52.5277 61.1756 52.5259 61.1735 52.5242C61.1715 52.5224 61.1694 52.5206 61.1674 52.5189C61.1653 52.5171 61.1632 52.5153 61.1612 52.5135C61.1591 52.5118 61.1571 52.51 61.155 52.5082C61.153 52.5065 61.1509 52.5047 61.1489 52.5029C61.1468 52.5012 61.1447 52.4994 61.1427 52.4976C61.1406 52.4959 61.1386 52.4941 61.1365 52.4923C61.1345 52.4906 61.1324 52.4888 61.1304 52.487C61.1283 52.4853 61.1262 52.4835 61.1242 52.4817C61.1221 52.4799 61.1201 52.4782 61.118 52.4764C61.116 52.4746 61.1139 52.4729 61.1119 52.4711C61.1098 52.4693 61.1078 52.4676 61.1057 52.4658C61.1036 52.464 61.1016 52.4623 61.0995 52.4605C61.0975 52.4587 61.0954 52.457 61.0934 52.4552C61.0913 52.4534 61.0893 52.4517 61.0872 52.4499C61.0851 52.4481 61.0831 52.4464 61.081 52.4446C61.079 52.4428 61.0769 52.441 61.0749 52.4393C61.0728 52.4375 61.0708 52.4357 61.0687 52.434C61.0666 52.4322 61.0646 52.4304 61.0625 52.4287C61.0605 52.4269 61.0584 52.4251 61.0564 52.4234C61.0543 52.4216 61.0523 52.4198 61.0502 52.4181C61.0482 52.4163 61.0461 52.4145 61.044 52.4128C61.042 52.411 61.0399 52.4092 61.0379 52.4074C61.0358 52.4057 61.0338 52.4039 61.0317 52.4021C61.0297 52.4004 61.0276 52.3986 61.0255 52.3968C61.0235 52.3951 61.0214 52.3933 61.0194 52.3915C61.0173 52.3898 61.0153 52.388 61.0132 52.3862C61.0112 52.3845 61.0091 52.3827 61.007 52.3809C61.005 52.3792 61.0029 52.3774 61.0009 52.3756C60.9988 52.3738 60.9968 52.3721 60.9947 52.3703C60.9927 52.3685 60.9906 52.3668 60.9886 52.365L59.6841 53.881ZM62.7782 56.5386C63.8125 57.5958 64.5731 58.6776 65.0806 59.781L66.8976 58.9452C66.2795 57.6015 65.376 56.3341 64.2079 55.14L62.7782 56.5386ZM65.0806 59.781C65.5832 60.8736 65.8333 62.0157 65.8333 63.2173H67.8333C67.8333 61.727 67.5207 60.2997 66.8976 58.9452L65.0806 59.781ZM65.8333 63.2173C65.8333 64.7077 65.5122 66.0078 64.8916 67.142L66.6461 68.102C67.4448 66.6424 67.8333 65.0059 67.8333 63.2173H65.8333ZM64.8916 67.142C64.2637 68.2896 63.3325 69.3185 62.0676 70.222L63.23 71.8494C64.7059 70.7953 65.8547 69.5484 66.6461 68.102L64.8916 67.142ZM62.0676 70.222C60.9694 71.0064 59.7459 71.58 58.3902 71.9415L58.9055 73.874C60.4862 73.4524 61.9301 72.778 63.23 71.8494L62.0676 70.222ZM58.3941 71.9405C56.9938 72.3077 55.465 72.495 53.8026 72.495V74.495C55.6151 74.495 57.3163 74.2908 58.9015 73.875L58.3941 71.9405ZM53.8026 72.495C52.4197 72.495 51.187 72.366 50.0984 72.1165L49.6516 74.066C50.9122 74.3549 52.2979 74.495 53.8026 74.495V72.495ZM50.079 72.1123C48.9839 71.8842 48.0379 71.5468 47.2305 71.1104L46.2794 72.8698C47.2828 73.4122 48.4169 73.809 49.671 74.0703L50.079 72.1123ZM47.2237 71.1067C46.157 70.5407 45.4305 69.8543 44.979 69.069L43.2452 70.0659C43.9193 71.2383 44.9548 72.1669 46.2862 72.8734L47.2237 71.1067ZM44.9696 69.053C44.4859 68.2469 44.2311 67.3031 44.2311 66.1905H42.2311C42.2311 67.6229 42.5637 68.9304 43.2546 70.082L44.9696 69.053ZM63.9058 49.5258C63.9058 48.5425 64.2412 47.7325 64.9343 47.0395L63.5201 45.6252C62.4512 46.6941 61.9058 48.0131 61.9058 49.5258H63.9058ZM64.9243 47.0493C65.6194 46.3735 66.4219 46.0476 67.3839 46.0476V44.0476C65.8988 44.0476 64.5968 44.5782 63.5301 45.6153L64.9243 47.0493ZM67.3839 46.0476C68.3369 46.0476 69.1363 46.3789 69.8336 47.0762L71.2478 45.6619C70.1831 44.5973 68.8781 44.0476 67.3839 44.0476V46.0476ZM69.8336 47.0762C70.5308 47.7734 70.8621 48.5728 70.8621 49.5258H72.8621C72.8621 48.0317 72.3124 46.7266 71.2478 45.6619L69.8336 47.0762ZM70.8621 49.5258C70.8621 50.4787 70.5308 51.2782 69.8336 51.9754L71.2478 53.3896C72.3124 52.325 72.8621 51.0199 72.8621 49.5258H70.8621ZM69.8336 51.9754C69.1363 52.6727 68.3369 53.004 67.3839 53.004V55.004C68.8781 55.004 70.1831 54.4543 71.2478 53.3896L69.8336 51.9754ZM67.3839 53.004C66.431 53.004 65.6315 52.6727 64.9343 51.9754L63.5201 53.3896C64.5847 54.4543 65.8898 55.004 67.3839 55.004V53.004ZM64.9343 51.9754C64.237 51.2782 63.9058 50.4787 63.9058 49.5258H61.9058C61.9058 51.0199 62.4554 52.325 63.5201 53.3896L64.9343 51.9754Z" fill="#151515"/>
</svg>
