<svg width="100" height="100" viewBox="0 0 100 100" fill="none" xmlns="http://www.w3.org/2000/svg">
<g clip-path="url(#clip0_2264_3662)">
<rect width="100" height="100" fill="white"/>
<path d="M20.1886 94.648C18.5246 94.648 17.1166 94.072 15.9646 92.92C14.8766 91.832 14.3326 90.456 14.3326 88.792C14.3326 87.064 14.9086 85.336 16.0606 83.608C19.2606 78.872 23.6446 75.608 29.2126 73.816C32.0926 66.776 33.5326 61.24 33.5326 57.208C33.5326 52.984 31.8686 50.872 28.5406 50.872C28.3486 50.872 28.1566 50.872 27.9646 50.872C27.7726 50.872 27.5806 50.904 27.3886 50.968C28.2846 51.48 28.7326 52.28 28.7326 53.368C28.7326 55.608 27.7086 57.208 25.6606 58.168C25.7246 57.912 25.7566 57.656 25.7566 57.4C25.8206 57.144 25.8526 56.888 25.8526 56.632C25.8526 54.2 24.6046 53.048 22.1086 53.176C23.7086 51 25.9166 49.912 28.7326 49.912C32.8286 49.912 34.8766 52.28 34.8766 57.016C34.8766 57.72 34.8126 58.52 34.6846 59.416C34.6206 60.312 34.4606 61.24 34.2046 62.2C34.7166 60.728 35.1966 59.032 35.6446 57.112C36.1566 55.192 36.6686 52.984 37.1806 50.488L37.9486 46.936H37.4686C31.9006 46.936 27.3246 48.152 23.7406 50.584L23.5486 50.296L26.9086 47.608C29.5326 45.432 33.4366 44.216 38.6206 43.96C39.6446 39.096 40.6366 34.84 41.5966 31.192C42.6206 27.544 43.5486 24.472 44.3806 21.976C43.0366 21.72 41.7246 21.528 40.4446 21.4C39.2286 21.272 37.9806 21.208 36.7006 21.208C33.7566 21.208 30.8446 21.656 27.9646 22.552C24.3166 23.704 22.4926 25.496 22.4926 27.928C22.4926 28.888 22.8446 29.912 23.5486 31C23.8686 31.576 24.0926 32.024 24.2206 32.344C24.4126 32.6 24.5086 32.76 24.5086 32.824C24.5086 33.784 22.9086 34.872 19.7086 36.088C18.8766 35.256 18.4606 34.232 18.4606 33.016C18.4606 29.176 20.9246 25.464 25.8526 21.88C30.8446 18.232 35.2606 16.408 39.1006 16.408C41.1486 16.408 43.5806 16.728 46.3966 17.368C47.4206 15.128 48.5726 13.464 49.8526 12.376C50.1086 12.12 50.4286 11.864 50.8126 11.608C51.1966 11.352 51.6446 11 52.1566 10.552C51.5166 11.64 50.8446 12.792 50.1406 14.008C49.4366 15.224 48.7646 16.472 48.1246 17.752C53.4366 18.968 58.1086 19.928 62.1406 20.632C66.1726 21.272 69.5326 21.592 72.2206 21.592C77.9166 21.592 81.6286 20.44 83.3566 18.136C83.9966 17.304 84.4766 16.888 84.7966 16.888C84.9886 16.888 85.0846 16.984 85.0846 17.176C85.0846 17.368 84.9886 17.656 84.7966 18.04C81.5966 23.48 76.4126 26.2 69.2446 26.2C65.0206 26.2 59.6446 25.432 53.1166 23.896C51.3246 27.544 49.5966 34.36 47.9326 44.344C53.6926 45.048 58.1086 45.592 61.1806 45.976C64.2526 46.296 65.9806 46.456 66.3646 46.456C70.2686 46.456 73.5006 45.752 76.0606 44.344C76.3166 44.344 76.4446 44.44 76.4446 44.632C76.4446 45.784 75.0046 47.032 72.1246 48.376C70.0766 49.4 67.6446 49.912 64.8286 49.912C63.6126 49.912 61.5646 49.752 58.6846 49.432C55.8046 49.048 52.0286 48.504 47.3566 47.8C45.5006 58.616 42.9406 65.464 39.6766 68.344L34.8766 72.664C35.3886 72.6 35.9006 72.568 36.4126 72.568C36.9246 72.504 37.4366 72.472 37.9486 72.472C40.0606 72.472 42.1406 72.728 44.1886 73.24C49.8846 74.84 55.0046 76.056 59.5486 76.888C64.0926 77.656 68.0286 78.04 71.3566 78.04C77.8846 78.04 82.3006 76.696 84.6046 74.008C85.9486 72.472 86.6206 70.744 86.6206 68.824C86.6206 67.736 86.3326 66.84 85.7566 66.136C85.1806 65.368 84.8926 64.952 84.8926 64.888C84.8926 64.44 85.0846 64.216 85.4686 64.216C86.6846 64.216 87.2926 65.528 87.2926 68.152C87.2926 70.264 86.6206 72.28 85.2766 74.2C81.6286 79.192 75.3246 81.688 66.3646 81.688C64.4446 81.688 61.5006 81.368 57.5326 80.728C53.6286 80.088 48.7326 79.128 42.8446 77.848C41.2446 77.528 39.6766 77.304 38.1406 77.176C36.6686 76.984 35.2286 76.888 33.8206 76.888C32.2206 76.888 30.5886 76.984 28.9246 77.176C28.2846 78.52 27.6766 79.768 27.1006 80.92C26.5886 82.072 26.0126 83.16 25.3726 84.184C24.6046 85.464 24.0606 86.104 23.7406 86.104V86.008C23.7406 85.624 23.9966 84.952 24.5086 83.992C25.0206 82.904 25.5646 81.816 26.1406 80.728C26.7166 79.704 27.2286 78.584 27.6766 77.368C23.9646 78.136 20.9566 79.544 18.6526 81.592C16.4126 83.64 15.2926 85.784 15.2926 88.024C15.2926 91.608 17.6286 93.4 22.3006 93.4C22.6206 93.4 22.9726 93.368 23.3566 93.304C23.7406 93.304 23.9326 93.336 23.9326 93.4C23.9326 93.528 23.0046 93.784 21.1486 94.168C20.9566 94.232 20.7966 94.328 20.6686 94.456C20.5406 94.584 20.3806 94.648 20.1886 94.648ZM43.9006 43.96V43.864C43.9006 41.432 44.2846 38.904 45.0526 36.28C45.8206 33.592 46.5566 30.776 47.2606 27.832C47.7726 27.128 48.3806 26.424 49.0846 25.72C49.7886 24.952 50.5246 24.216 51.2926 23.512L46.2046 22.36C45.1806 24.92 44.1566 27.992 43.1326 31.576C42.1086 35.16 41.0526 39.256 39.9646 43.864H40.8286C41.2766 43.864 41.7566 43.864 42.2686 43.864C42.7806 43.864 43.3246 43.896 43.9006 43.96ZM30.7486 73.336L33.9166 72.76C35.9646 69.688 37.7566 66.04 39.2926 61.816C40.8286 57.528 42.1406 52.696 43.2286 47.32C41.8846 47.128 40.5726 47.032 39.2926 47.032L37.0846 56.632C36.6366 58.424 35.9006 60.472 34.8766 62.776C33.9166 65.016 32.8926 67.608 31.8046 70.552L30.7486 73.336Z" fill="#151515"/>
</g>
<defs>
<clipPath id="clip0_2264_3662">
<rect width="100" height="100" fill="white"/>
</clipPath>
</defs>
</svg>
