<svg width="206" height="31" viewBox="0 0 206 31" fill="none" xmlns="http://www.w3.org/2000/svg">
<path d="M22.4798 3.06C22.4798 3.67333 22.3065 4.23333 21.9598 4.74L7.11984 25.7H22.1398V30H0.139844V27.88C0.139844 27.6133 0.18651 27.36 0.279844 27.12C0.373177 26.8667 0.493177 26.6333 0.639844 26.42L15.5198 5.36H1.07984V1.08H22.4798V3.06ZM42.8973 9.48V30H39.8773C39.224 30 38.8107 29.7 38.6373 29.1L38.2973 27.46C37.4573 28.3133 36.5307 29.0067 35.5173 29.54C34.504 30.06 33.3107 30.32 31.9373 30.32C30.8173 30.32 29.824 30.1333 28.9573 29.76C28.104 29.3733 27.384 28.8333 26.7973 28.14C26.2107 27.4467 25.764 26.6267 25.4573 25.68C25.164 24.72 25.0173 23.6667 25.0173 22.52V9.48H29.9573V22.52C29.9573 23.7733 30.244 24.7467 30.8173 25.44C31.404 26.12 32.2773 26.46 33.4373 26.46C34.2907 26.46 35.0907 26.2733 35.8373 25.9C36.584 25.5133 37.2907 24.9867 37.9573 24.32V9.48H42.8973ZM52.4555 13.04C53.0955 11.8133 53.8555 10.8533 54.7355 10.16C55.6155 9.45333 56.6555 9.1 57.8555 9.1C58.8021 9.1 59.5621 9.30667 60.1355 9.72L59.8155 13.42C59.7488 13.66 59.6488 13.8333 59.5155 13.94C59.3955 14.0333 59.2288 14.08 59.0155 14.08C58.8155 14.08 58.5155 14.0467 58.1155 13.98C57.7288 13.9133 57.3488 13.88 56.9755 13.88C56.4288 13.88 55.9421 13.96 55.5155 14.12C55.0888 14.28 54.7021 14.5133 54.3555 14.82C54.0221 15.1133 53.7221 15.4733 53.4555 15.9C53.2021 16.3267 52.9621 16.8133 52.7355 17.36V30H47.7955V9.48H50.6955C51.2021 9.48 51.5555 9.57333 51.7555 9.76C51.9555 9.93333 52.0888 10.2533 52.1555 10.72L52.4555 13.04ZM67.8373 9.48V30H62.8773V9.48H67.8373ZM68.5173 3.5C68.5173 3.92666 68.4307 4.32666 68.2573 4.7C68.084 5.07333 67.8507 5.4 67.5573 5.68C67.2773 5.96 66.944 6.18667 66.5573 6.36C66.1707 6.52 65.7573 6.6 65.3173 6.6C64.8907 6.6 64.484 6.52 64.0973 6.36C63.724 6.18667 63.3973 5.96 63.1173 5.68C62.8373 5.4 62.6107 5.07333 62.4373 4.7C62.2773 4.32666 62.1973 3.92666 62.1973 3.5C62.1973 3.06 62.2773 2.64667 62.4373 2.26C62.6107 1.87333 62.8373 1.54 63.1173 1.26C63.3973 0.979999 63.724 0.759999 64.0973 0.599999C64.484 0.426666 64.8907 0.339999 65.3173 0.339999C65.7573 0.339999 66.1707 0.426666 66.5573 0.599999C66.944 0.759999 67.2773 0.979999 67.5573 1.26C67.8507 1.54 68.084 1.87333 68.2573 2.26C68.4307 2.64667 68.5173 3.06 68.5173 3.5ZM87.5736 13.82C87.4269 14.0067 87.2803 14.1533 87.1336 14.26C87.0003 14.3667 86.8003 14.42 86.5336 14.42C86.2803 14.42 86.0336 14.3467 85.7936 14.2C85.5536 14.04 85.2669 13.8667 84.9336 13.68C84.6003 13.48 84.2003 13.3067 83.7336 13.16C83.2803 13 82.7136 12.92 82.0336 12.92C81.1669 12.92 80.4069 13.08 79.7536 13.4C79.1003 13.7067 78.5536 14.1533 78.1136 14.74C77.6869 15.3267 77.3669 16.04 77.1536 16.88C76.9403 17.7067 76.8336 18.6467 76.8336 19.7C76.8336 20.7933 76.9469 21.7667 77.1736 22.62C77.4136 23.4733 77.7536 24.1933 78.1936 24.78C78.6336 25.3533 79.1669 25.7933 79.7936 26.1C80.4203 26.3933 81.1269 26.54 81.9136 26.54C82.7003 26.54 83.3336 26.4467 83.8136 26.26C84.3069 26.06 84.7203 25.8467 85.0536 25.62C85.3869 25.38 85.6736 25.1667 85.9136 24.98C86.1669 24.78 86.4469 24.68 86.7536 24.68C87.1536 24.68 87.4536 24.8333 87.6536 25.14L89.0736 26.94C88.5269 27.58 87.9336 28.12 87.2936 28.56C86.6536 28.9867 85.9869 29.3333 85.2936 29.6C84.6136 29.8533 83.9069 30.0333 83.1736 30.14C82.4536 30.2467 81.7336 30.3 81.0136 30.3C79.7469 30.3 78.5536 30.0667 77.4336 29.6C76.3136 29.12 75.3336 28.4267 74.4936 27.52C73.6536 26.6133 72.9869 25.5067 72.4936 24.2C72.0136 22.88 71.7736 21.38 71.7736 19.7C71.7736 18.1933 71.9869 16.8 72.4136 15.52C72.8536 14.2267 73.4936 13.1133 74.3336 12.18C75.1736 11.2333 76.2136 10.4933 77.4536 9.96C78.6936 9.42667 80.1203 9.16 81.7336 9.16C83.2669 9.16 84.6069 9.40667 85.7536 9.9C86.9136 10.3933 87.9536 11.1 88.8736 12.02L87.5736 13.82ZM100.899 9.16C102.419 9.16 103.799 9.40667 105.039 9.9C106.292 10.3933 107.359 11.0933 108.239 12C109.132 12.9067 109.819 14.0133 110.299 15.32C110.779 16.6267 111.019 18.0867 111.019 19.7C111.019 21.3267 110.779 22.7933 110.299 24.1C109.819 25.4067 109.132 26.52 108.239 27.44C107.359 28.36 106.292 29.0667 105.039 29.56C103.799 30.0533 102.419 30.3 100.899 30.3C99.3656 30.3 97.9722 30.0533 96.7189 29.56C95.4656 29.0667 94.3922 28.36 93.4989 27.44C92.6189 26.52 91.9322 25.4067 91.4389 24.1C90.9589 22.7933 90.7189 21.3267 90.7189 19.7C90.7189 18.0867 90.9589 16.6267 91.4389 15.32C91.9322 14.0133 92.6189 12.9067 93.4989 12C94.3922 11.0933 95.4656 10.3933 96.7189 9.9C97.9722 9.40667 99.3656 9.16 100.899 9.16ZM100.899 26.5C102.606 26.5 103.866 25.9267 104.679 24.78C105.506 23.6333 105.919 21.9533 105.919 19.74C105.919 17.5267 105.506 15.84 104.679 14.68C103.866 13.52 102.606 12.94 100.899 12.94C99.1656 12.94 97.8789 13.5267 97.0389 14.7C96.2122 15.86 95.7989 17.54 95.7989 19.74C95.7989 21.94 96.2122 23.62 97.0389 24.78C97.8789 25.9267 99.1656 26.5 100.899 26.5ZM119.408 12C119.821 11.5867 120.254 11.2067 120.708 10.86C121.174 10.5 121.661 10.2 122.168 9.96C122.688 9.70667 123.241 9.51333 123.828 9.38C124.414 9.23333 125.054 9.16 125.748 9.16C126.868 9.16 127.861 9.35333 128.728 9.74C129.594 10.1133 130.314 10.6467 130.888 11.34C131.474 12.02 131.914 12.84 132.208 13.8C132.514 14.7467 132.668 15.7933 132.668 16.94V30H127.728V16.94C127.728 15.6867 127.441 14.72 126.868 14.04C126.294 13.3467 125.421 13 124.248 13C123.394 13 122.594 13.1933 121.848 13.58C121.101 13.9667 120.394 14.4933 119.728 15.16V30H114.788V9.48H117.808C118.448 9.48 118.868 9.78 119.068 10.38L119.408 12Z" fill="#251181"/>
<path d="M161.986 15.5V27.2C160.519 28.28 158.952 29.0733 157.286 29.58C155.632 30.0733 153.859 30.32 151.966 30.32C149.606 30.32 147.466 29.9533 145.546 29.22C143.639 28.4867 142.006 27.4667 140.646 26.16C139.299 24.8533 138.259 23.2933 137.526 21.48C136.792 19.6667 136.426 17.6867 136.426 15.54C136.426 13.3667 136.779 11.3733 137.486 9.56C138.192 7.74666 139.192 6.18666 140.486 4.88C141.792 3.57333 143.372 2.56 145.226 1.84C147.079 1.12 149.159 0.76 151.466 0.76C152.639 0.76 153.732 0.853333 154.746 1.04C155.772 1.22667 156.719 1.48667 157.586 1.82C158.466 2.14 159.266 2.53333 159.986 3C160.706 3.46667 161.366 3.98 161.966 4.54L160.426 6.98C160.186 7.36667 159.872 7.60667 159.486 7.7C159.099 7.78 158.679 7.68 158.226 7.4C157.786 7.14667 157.346 6.89333 156.906 6.64C156.466 6.38667 155.972 6.16667 155.426 5.98C154.892 5.79333 154.286 5.64 153.606 5.52C152.939 5.4 152.166 5.34 151.286 5.34C149.859 5.34 148.566 5.58 147.406 6.06C146.259 6.54 145.279 7.22667 144.466 8.12C143.652 9.01333 143.026 10.0867 142.586 11.34C142.146 12.5933 141.926 13.9933 141.926 15.54C141.926 17.1933 142.159 18.6733 142.626 19.98C143.106 21.2733 143.772 22.3733 144.626 23.28C145.492 24.1733 146.532 24.86 147.746 25.34C148.959 25.8067 150.312 26.04 151.806 26.04C152.872 26.04 153.826 25.9267 154.666 25.7C155.506 25.4733 156.326 25.1667 157.126 24.78V19.54H153.486C153.139 19.54 152.866 19.4467 152.666 19.26C152.479 19.06 152.386 18.82 152.386 18.54V15.5H161.986ZM179.375 17.38C179.375 16.74 179.282 16.14 179.095 15.58C178.922 15.0067 178.655 14.5067 178.295 14.08C177.935 13.6533 177.475 13.32 176.915 13.08C176.368 12.8267 175.728 12.7 174.995 12.7C173.568 12.7 172.442 13.1067 171.615 13.92C170.802 14.7333 170.282 15.8867 170.055 17.38H179.375ZM169.955 20.36C170.035 21.4133 170.222 22.3267 170.515 23.1C170.808 23.86 171.195 24.4933 171.675 25C172.155 25.4933 172.722 25.8667 173.375 26.12C174.042 26.36 174.775 26.48 175.575 26.48C176.375 26.48 177.062 26.3867 177.635 26.2C178.222 26.0133 178.728 25.8067 179.155 25.58C179.595 25.3533 179.975 25.1467 180.295 24.96C180.628 24.7733 180.948 24.68 181.255 24.68C181.668 24.68 181.975 24.8333 182.175 25.14L183.595 26.94C183.048 27.58 182.435 28.12 181.755 28.56C181.075 28.9867 180.362 29.3333 179.615 29.6C178.882 29.8533 178.128 30.0333 177.355 30.14C176.595 30.2467 175.855 30.3 175.135 30.3C173.708 30.3 172.382 30.0667 171.155 29.6C169.928 29.12 168.862 28.42 167.955 27.5C167.048 26.5667 166.335 25.42 165.815 24.06C165.295 22.6867 165.035 21.1 165.035 19.3C165.035 17.9 165.262 16.5867 165.715 15.36C166.168 14.12 166.815 13.0467 167.655 12.14C168.508 11.22 169.542 10.4933 170.755 9.96C171.982 9.42667 173.362 9.16 174.895 9.16C176.188 9.16 177.382 9.36667 178.475 9.78C179.568 10.1933 180.508 10.8 181.295 11.6C182.082 12.3867 182.695 13.36 183.135 14.52C183.588 15.6667 183.815 16.98 183.815 18.46C183.815 19.2067 183.735 19.7133 183.575 19.98C183.415 20.2333 183.108 20.36 182.655 20.36H169.955ZM192.142 12C192.555 11.5867 192.989 11.2067 193.442 10.86C193.909 10.5 194.395 10.2 194.902 9.96C195.422 9.70667 195.975 9.51333 196.562 9.38C197.149 9.23333 197.789 9.16 198.482 9.16C199.602 9.16 200.595 9.35333 201.462 9.74C202.329 10.1133 203.049 10.6467 203.622 11.34C204.209 12.02 204.649 12.84 204.942 13.8C205.249 14.7467 205.402 15.7933 205.402 16.94V30H200.462V16.94C200.462 15.6867 200.175 14.72 199.602 14.04C199.029 13.3467 198.155 13 196.982 13C196.129 13 195.329 13.1933 194.582 13.58C193.835 13.9667 193.129 14.4933 192.462 15.16V30H187.522V9.48H190.542C191.182 9.48 191.602 9.78 191.802 10.38L192.142 12Z" fill="#F7B05E"/>
</svg>
