<svg width="28" height="24" viewBox="0 0 28 24" fill="none" xmlns="http://www.w3.org/2000/svg">
<path d="M8.16888 0.75H26.2501C26.5817 0.75 26.8996 0.881696 27.134 1.11612C27.3684 1.35054 27.5001 1.66848 27.5001 2V22C27.5001 22.3315 27.3684 22.6495 27.134 22.8839C26.8996 23.1183 26.5817 23.25 26.2501 23.25H8.16888C7.96314 23.25 7.76057 23.1993 7.57915 23.1022C7.39773 23.0052 7.24307 22.8649 7.12888 22.6938L0.462629 12.6938C0.32558 12.4883 0.252441 12.2469 0.252441 12C0.252441 11.7531 0.32558 11.5117 0.462629 11.3062L7.12888 1.30625C7.24307 1.1351 7.39773 0.99479 7.57915 0.897756C7.76057 0.800722 7.96314 0.749969 8.16888 0.75ZM8.83763 3.25L3.00513 12L8.83763 20.75H25.0001V3.25H8.83763ZM16.2501 10.2325L19.7851 6.69625L21.5539 8.465L18.0176 12L21.5539 15.535L19.7851 17.3037L16.2501 13.7675L12.7151 17.3037L10.9464 15.535L14.4826 12L10.9464 8.465L12.7151 6.69625L16.2501 10.2325Z" fill="#251181"/>
</svg>
